<svg width="26" height="19" viewBox="0 0 26 19" fill="none" xmlns="http://www.w3.org/2000/svg">
<path d="M3.25 0C2.38805 0 1.5614 0.33363 0.951903 0.927495C0.34241 1.52136 0 2.32681 0 3.16667L0 15.8333C0 16.6732 0.34241 17.4786 0.951903 18.0725C1.5614 18.6664 2.38805 19 3.25 19H22.75C23.612 19 24.4386 18.6664 25.0481 18.0725C25.6576 17.4786 26 16.6732 26 15.8333V3.16667C26 2.32681 25.6576 1.52136 25.0481 0.927495C24.4386 0.33363 23.612 0 22.75 0H3.25ZM24.375 3.16667V11.0833H1.625V3.16667C1.625 2.74674 1.7962 2.34401 2.10095 2.04708C2.4057 1.75015 2.81902 1.58333 3.25 1.58333H22.75C23.181 1.58333 23.5943 1.75015 23.899 2.04708C24.2038 2.34401 24.375 2.74674 24.375 3.16667ZM22.75 17.4167H3.25C2.81902 17.4167 2.4057 17.2499 2.10095 16.9529C1.7962 16.656 1.625 16.2533 1.625 15.8333V14.25H24.375V15.8333C24.375 16.2533 24.2038 16.656 23.899 16.9529C23.5943 17.2499 23.181 17.4167 22.75 17.4167Z" fill="#5B5C5E"/>
</svg>
