<svg width="20" height="20" viewBox="0 0 20 20" fill="none" xmlns="http://www.w3.org/2000/svg">
<path d="M10.0003 1.6665C5.39783 1.6665 1.66699 5.39734 1.66699 9.99984C1.66699 14.6023 5.39783 18.3332 10.0003 18.3332C14.6028 18.3332 18.3337 14.6023 18.3337 9.99984C18.3337 5.39734 14.6028 1.6665 10.0003 1.6665Z" stroke="white" stroke-width="1.5" stroke-linecap="round" stroke-linejoin="round"/>
<path d="M3.55957 15.2883C3.55957 15.2883 5.41707 12.9167 10.0004 12.9167C14.5837 12.9167 16.4421 15.2883 16.4421 15.2883M10.0004 10C10.6634 10 11.2993 9.73661 11.7682 9.26777C12.237 8.79893 12.5004 8.16304 12.5004 7.5C12.5004 6.83696 12.237 6.20107 11.7682 5.73223C11.2993 5.26339 10.6634 5 10.0004 5C9.33736 5 8.70148 5.26339 8.23264 5.73223C7.7638 6.20107 7.5004 6.83696 7.5004 7.5C7.5004 8.16304 7.7638 8.79893 8.23264 9.26777C8.70148 9.73661 9.33736 10 10.0004 10V10Z" stroke="white" stroke-width="1.5" stroke-linecap="round" stroke-linejoin="round"/>
</svg>
