<svg width="16" height="18" viewBox="0 0 16 18" fill="none" xmlns="http://www.w3.org/2000/svg">
<path d="M2.86951 2.8069C4.23029 1.44612 6.07591 0.681641 8.00034 0.681641C9.92478 0.681641 11.7704 1.44612 13.1312 2.8069C14.492 4.16768 15.2564 6.0133 15.2564 7.93773C15.2564 9.86217 14.492 11.7078 13.1312 13.0686L12.142 14.0469C11.4128 14.7619 10.467 15.6819 9.30368 16.8069C8.95403 17.145 8.4867 17.334 8.00034 17.334C7.51398 17.334 7.04665 17.145 6.69701 16.8069L3.78784 13.9769C3.42201 13.6177 3.11618 13.3152 2.86951 13.0686C2.19569 12.3948 1.66118 11.5949 1.29651 10.7145C0.931836 9.83419 0.744141 8.89063 0.744141 7.93773C0.744141 6.98484 0.931836 6.04128 1.29651 5.16093C1.66118 4.28057 2.19569 3.48067 2.86951 2.8069V2.8069ZM12.247 3.69023C11.1205 2.56395 9.59272 1.9313 7.99975 1.93145C6.40679 1.93161 4.87913 2.56456 3.75284 3.69107C2.62656 4.81757 1.9939 6.34536 1.99406 7.93832C1.99422 9.53129 2.62717 11.0589 3.75368 12.1852L4.99201 13.4086C5.84741 14.2443 6.70519 15.0777 7.56534 15.9086C7.6819 16.0213 7.83774 16.0844 7.99993 16.0844C8.16211 16.0844 8.31795 16.0213 8.43451 15.9086L11.2628 13.1586C11.6545 12.7744 11.982 12.4502 12.2462 12.1852C13.3724 11.0589 14.0051 9.53136 14.0051 7.93857C14.0051 6.34577 13.3724 4.81821 12.2462 3.6919L12.247 3.69023ZM8.00034 5.66607C8.32887 5.66607 8.65417 5.73078 8.95769 5.8565C9.26121 5.98222 9.53699 6.16649 9.76929 6.39879C10.0016 6.63109 10.1859 6.90687 10.3116 7.21039C10.4373 7.5139 10.502 7.83921 10.502 8.16773C10.502 8.49626 10.4373 8.82156 10.3116 9.12508C10.1859 9.4286 10.0016 9.70438 9.76929 9.93668C9.53699 10.169 9.26121 10.3533 8.95769 10.479C8.65417 10.6047 8.32887 10.6694 8.00034 10.6694C7.34488 10.6574 6.7203 10.3887 6.26099 9.92088C5.80167 9.45311 5.54433 8.82373 5.54433 8.16815C5.54433 7.51258 5.80167 6.88319 6.26099 6.41542C6.7203 5.94765 7.34488 5.67887 8.00034 5.6669V5.66607ZM8.00034 6.91607C7.83597 6.91607 7.67321 6.94844 7.52135 7.01134C7.36949 7.07425 7.23151 7.16644 7.11528 7.28267C6.99905 7.3989 6.90686 7.53688 6.84395 7.68874C6.78105 7.8406 6.74868 8.00336 6.74868 8.16773C6.74868 8.33211 6.78105 8.49487 6.84395 8.64673C6.90686 8.79859 6.99905 8.93657 7.11528 9.0528C7.23151 9.16902 7.36949 9.26122 7.52135 9.32412C7.67321 9.38703 7.83597 9.4194 8.00034 9.4194C8.3322 9.4194 8.65046 9.28757 8.88511 9.05292C9.11977 8.81826 9.25159 8.5 9.25159 8.16815C9.25159 7.8363 9.11977 7.51804 8.88511 7.28338C8.65046 7.04873 8.3322 6.9169 8.00034 6.9169V6.91607Z" fill="white"/>
</svg>
