<svg width="20" height="14" viewBox="0 0 20 14" fill="none" xmlns="http://www.w3.org/2000/svg">
<path d="M0 0V1.27273H11.875V10.8182H8.0275C7.74875 9.72427 6.7825 8.90909 5.625 8.90909C4.4675 8.90909 3.50125 9.72427 3.2225 10.8182H2.5V7.63636H1.25V12.0909H3.2225C3.50125 13.1848 4.4675 14 5.625 14C6.7825 14 7.74875 13.1848 8.0275 12.0909H13.2225C13.5013 13.1848 14.4675 14 15.625 14C16.7825 14 17.7487 13.1848 18.0275 12.0909H20V6.90073L19.9606 6.80082L18.7106 2.98264L18.575 2.54545H13.125V0H0ZM0.625 2.54545V3.81818H6.25V2.54545H0.625ZM13.125 3.81818H17.6756L18.75 7.07955V10.8182H18.0275C17.7487 9.72427 16.7825 8.90909 15.625 8.90909C14.4675 8.90909 13.5013 9.72427 13.2225 10.8182H13.125V3.81818ZM1.25 5.09091V6.36364H5V5.09091H1.25ZM5.625 10.1818C6.32312 10.1818 6.875 10.7437 6.875 11.4545C6.875 12.1654 6.32312 12.7273 5.625 12.7273C4.92688 12.7273 4.375 12.1654 4.375 11.4545C4.375 10.7437 4.92688 10.1818 5.625 10.1818ZM15.625 10.1818C16.3231 10.1818 16.875 10.7437 16.875 11.4545C16.875 12.1654 16.3231 12.7273 15.625 12.7273C14.9269 12.7273 14.375 12.1654 14.375 11.4545C14.375 10.7437 14.9269 10.1818 15.625 10.1818Z" fill="#A59F9F"/>
</svg>
