<svg width="30" height="30" viewBox="0 0 30 30" fill="none" xmlns="http://www.w3.org/2000/svg">
<path d="M5.01714 24.3825C5.41093 22.8715 5.79984 21.5261 6.09605 20.1567C6.18863 19.7248 6.14998 19.1808 5.97151 18.7854C4.24444 14.9739 4.91442 10.7099 7.76419 7.68244C10.4153 4.86569 14.6119 4.00219 18.1636 5.54268C21.882 7.1557 24.1443 10.8152 23.9928 14.9773C23.7487 21.6592 16.8035 26.1372 10.8211 23.4413C10.1882 23.1564 9.64277 23.0925 8.98461 23.2997C7.72722 23.69 6.4462 23.9975 5.01714 24.3825ZM7.35512 21.9924C7.99813 21.8111 8.50992 21.6937 9.00476 21.5209C9.75717 21.2568 10.4087 21.3344 11.1459 21.7248C12.735 22.5676 14.4486 22.7368 16.2109 22.3361C20.5623 21.3447 23.2707 16.732 22.0503 12.3713C20.7726 7.8016 16.1773 5.36653 11.831 6.95709C7.6548 8.48377 5.46986 13.4576 7.34677 17.5954C7.93753 18.8977 8.00494 19.9925 7.55208 21.2411C7.48313 21.4277 7.44936 21.6264 7.35512 21.9924Z" fill="white"/>
<path d="M17.3937 19.1796C14.1316 19.1278 10.4939 16.121 9.80894 13.0608C9.59516 12.1023 9.77351 11.2215 10.3997 10.4772C11.0461 9.71039 11.9063 9.85201 12.3187 10.7673C12.4836 11.1317 12.7378 11.4978 12.7614 11.8761C12.7899 12.3389 12.748 12.9088 12.5039 13.2628C12.2193 13.6773 12.216 13.9554 12.4433 14.337C13.0745 15.4009 13.9397 16.1815 15.054 16.6875C15.5573 16.9155 15.9798 16.938 16.266 16.3818C16.6598 15.6133 17.2069 15.5926 17.8634 15.9967C17.983 16.071 18.1177 16.1176 18.2405 16.1867C18.7455 16.4664 19.4894 16.4906 19.3313 17.4301C19.1864 18.2902 18.7067 18.905 17.8668 19.107C17.6513 19.1571 17.4275 19.1744 17.3937 19.1796Z" fill="white"/>
</svg>
