<svg width="19" height="19" viewBox="0 0 19 19" fill="none" xmlns="http://www.w3.org/2000/svg">
<g clip-path="url(#clip0_507_1674)">
<path d="M18.9902 9.67784C18.9902 8.89942 18.9255 8.33138 18.7857 7.74231H9.68945V11.2557H15.0287C14.9211 12.1288 14.3398 13.4438 13.048 14.3273L13.0299 14.445L15.906 16.6222L16.1052 16.6416C17.9352 14.9901 18.9902 12.5601 18.9902 9.67784Z" fill="#4285F4"/>
<path d="M9.68905 18.9346C12.3048 18.9346 14.5008 18.0931 16.1048 16.6414L13.0476 14.3271C12.2295 14.8847 11.1315 15.2739 9.68905 15.2739C7.12706 15.2739 4.9526 13.6224 4.17746 11.3397L4.06385 11.3491L1.07329 13.6108L1.03418 13.717C2.62734 16.8097 5.89983 18.9346 9.68905 18.9346Z" fill="#34A853"/>
<path d="M4.17765 11.3398C3.97313 10.7508 3.85476 10.1196 3.85476 9.46739C3.85476 8.81516 3.97313 8.18402 4.16689 7.59495L4.16147 7.46949L1.13344 5.17151L1.03437 5.21756C0.377746 6.50093 0.000976562 7.9421 0.000976562 9.46739C0.000976562 10.9927 0.377746 12.4338 1.03437 13.7172L4.17765 11.3398Z" fill="#FBBC05"/>
<path d="M9.68905 3.66069C11.5083 3.66069 12.7354 4.4286 13.4352 5.07032L16.1694 2.46152C14.4901 0.936221 12.3048 0 9.68905 0C5.89983 0 2.62734 2.12488 1.03418 5.21753L4.1667 7.59492C4.9526 5.31224 7.12706 3.66069 9.68905 3.66069Z" fill="#EB4335"/>
</g>
<defs>
<clipPath id="clip0_507_1674">
<rect width="19" height="19" fill="white"/>
</clipPath>
</defs>
</svg>
