<svg width="129" height="41" viewBox="0 0 129 41" fill="none" xmlns="http://www.w3.org/2000/svg">
<rect x="0.75" width="128.25" height="40.5" rx="2.7" fill="#054085"/>
<path d="M111.115 30.5349C111.115 30.8831 111.046 31.2279 110.913 31.5495C110.78 31.8712 110.584 32.1635 110.338 32.4096C110.091 32.6556 109.799 32.8508 109.477 32.9838C109.155 33.1168 108.81 33.1851 108.462 33.1847H21.6314C20.9276 33.1854 20.2524 32.9067 19.7541 32.4098C19.2559 31.9128 18.9755 31.2384 18.9746 30.5349V9.40329C18.9755 8.6994 19.2558 8.02464 19.7539 7.52717C20.2521 7.0297 20.9273 6.75018 21.6314 6.75H108.461C108.81 6.75 109.155 6.81863 109.477 6.95198C109.799 7.08533 110.091 7.28078 110.337 7.52717C110.584 7.77356 110.779 8.06607 110.913 8.38797C111.046 8.70988 111.114 9.05489 111.114 9.40329L111.115 30.5349Z" fill="white"/>
<path d="M111.115 30.5349C111.115 30.8831 111.046 31.2279 110.913 31.5495C110.78 31.8712 110.584 32.1635 110.338 32.4096C110.091 32.6556 109.799 32.8508 109.477 32.9838C109.155 33.1168 108.81 33.1851 108.462 33.1847H21.6314C20.9276 33.1854 20.2524 32.9067 19.7541 32.4098C19.2559 31.9128 18.9755 31.2384 18.9746 30.5349V9.40329C18.9755 8.6994 19.2558 8.02464 19.7539 7.52717C20.2521 7.0297 20.9273 6.75018 21.6314 6.75H108.461C108.81 6.75 109.155 6.81863 109.477 6.95198C109.799 7.08533 110.091 7.28078 110.337 7.52717C110.584 7.77356 110.779 8.06607 110.913 8.38797C111.046 8.70988 111.114 9.05489 111.114 9.40329L111.115 30.5349Z" fill="#054085"/>
<path d="M39.2083 19.822C39.1882 17.5922 41.0346 16.5073 41.1191 16.4568C40.0734 14.9327 38.4526 14.7244 37.883 14.7078C36.5218 14.5646 35.2014 15.5221 34.5079 15.5221C33.8007 15.5221 32.7328 14.7216 31.582 14.7452C30.101 14.768 28.7155 15.6252 27.9556 16.9564C26.3875 19.6705 27.557 23.6591 29.0595 25.853C29.811 26.9282 30.6892 28.1272 31.8387 28.085C32.9633 28.0393 33.3834 27.3689 34.7405 27.3689C36.0851 27.3689 36.4796 28.085 37.6519 28.058C38.8588 28.0393 39.6187 26.9787 40.344 25.8945C41.2125 24.6637 41.5613 23.4502 41.5751 23.3879C41.5474 23.3782 39.2318 22.494 39.2083 19.822ZM36.9938 13.2646C37.5986 12.5084 38.0125 11.4796 37.8976 10.4355C37.0221 10.4743 35.9273 11.0409 35.2969 11.7805C34.7391 12.4323 34.2408 13.5005 34.3695 14.5051C35.3529 14.5784 36.3626 14.009 36.9938 13.2646Z" fill="white"/>
<path d="M55.4978 27.9315H53.9262L53.0653 25.227H50.0728L49.2528 27.9315H47.7227L50.6881 18.7242H52.5192L55.4978 27.9315ZM52.8057 24.0924L52.0272 21.6881C51.9448 21.4425 51.7898 20.8641 51.5628 19.9536H51.5351C51.4438 20.3452 51.2978 20.9236 51.0978 21.6881L50.3324 24.0924H52.8057ZM63.1089 24.5303C63.1089 25.6594 62.8023 26.5519 62.1885 27.2071C61.639 27.7904 60.956 28.0816 60.1414 28.0816C59.2618 28.0816 58.6293 27.7682 58.2452 27.14V30.6235H56.7698V23.4745C56.7698 22.7654 56.7511 22.0382 56.7151 21.2924H58.0127L58.095 22.3447H58.1227C58.6148 21.5518 59.3615 21.1554 60.3636 21.1554C61.147 21.1554 61.8009 21.4647 62.3241 22.0839C62.8466 22.7045 63.1089 23.5195 63.1089 24.5303ZM61.6058 24.5843C61.6058 23.9381 61.4605 23.4053 61.1684 22.9854C60.8494 22.5488 60.421 22.3302 59.884 22.3302C59.52 22.3302 59.1892 22.4519 58.8937 22.692C58.5975 22.9342 58.4037 23.2504 58.313 23.6419C58.2726 23.7884 58.2496 23.9391 58.2445 24.091V25.1986C58.2445 25.6809 58.3926 26.0884 58.6888 26.4219C58.985 26.7539 59.3698 26.9207 59.8432 26.9207C60.3989 26.9207 60.8314 26.7055 61.1407 26.2786C61.4508 25.8504 61.6058 25.2858 61.6058 24.5843ZM70.747 24.5303C70.747 25.6594 70.4405 26.5519 69.8266 27.2071C69.2764 27.7904 68.5941 28.0816 67.7788 28.0816C66.8993 28.0816 66.2667 27.7682 65.8826 27.14V30.6235H64.4072V23.4745C64.4072 22.7654 64.3885 22.0382 64.3525 21.2924H65.6501L65.7325 22.3447H65.7601C66.2515 21.5518 66.9982 21.1554 68.001 21.1554C68.7837 21.1554 69.4377 21.4647 69.9622 22.0839C70.4841 22.7045 70.747 23.5195 70.747 24.5303ZM69.2432 24.5843C69.2432 23.9381 69.0972 23.4053 68.8051 22.9854C68.4861 22.5488 68.0591 22.3302 67.5221 22.3302C67.1581 22.3302 66.8273 22.4519 66.5304 22.692C66.2342 22.9342 66.0411 23.2504 65.9505 23.6419C65.9055 23.8246 65.8813 23.9734 65.8813 24.091V25.1986C65.8813 25.6809 66.03 26.0884 66.3249 26.4219C66.621 26.7533 67.0058 26.9207 67.4806 26.9207C68.037 26.9207 68.4695 26.7055 68.7782 26.2786C69.0882 25.8504 69.2432 25.2858 69.2432 24.5843ZM79.2869 25.3488C79.2869 26.1327 79.0128 26.7699 78.4682 27.2618C77.8689 27.7987 77.0322 28.0678 75.9595 28.0678C74.9685 28.0678 74.174 27.8768 73.5747 27.4942L73.9159 26.2648C74.563 26.6481 75.2737 26.839 76.0474 26.839C76.6038 26.839 77.0363 26.7131 77.345 26.4634C77.6543 26.2129 77.8107 25.878 77.8107 25.4602C77.8107 25.0859 77.6813 24.7725 77.4273 24.5172C77.172 24.2625 76.7498 24.0252 76.1568 23.8073C74.5443 23.2061 73.7374 22.3267 73.7374 21.1699C73.7374 20.4144 74.0225 19.7959 74.5913 19.3123C75.1602 18.8294 75.9145 18.5879 76.853 18.5879C77.691 18.5879 78.3893 18.7339 78.9436 19.0251L78.5734 20.2276C78.0516 19.9453 77.4626 19.8042 76.8038 19.8042C76.2834 19.8042 75.8751 19.9322 75.583 20.1868C75.3374 20.4144 75.2128 20.6918 75.2128 21.0212C75.2128 21.3844 75.3547 21.6861 75.637 21.9227C75.882 22.1406 76.3291 22.3779 76.9754 22.6325C77.7685 22.9522 78.3512 23.3244 78.7242 23.752C79.1 24.1795 79.2869 24.713 79.2869 25.3488ZM84.1776 22.3994H82.5513V25.6228C82.5513 26.4426 82.8378 26.8515 83.4122 26.8515C83.6758 26.8515 83.8945 26.8294 84.0675 26.783L84.1084 27.9031C83.8177 28.0118 83.435 28.0664 82.9609 28.0664C82.3782 28.0664 81.9229 27.8886 81.5942 27.533C81.2668 27.1774 81.1021 26.5817 81.1021 25.7431V22.3966H80.1332V21.2896H81.1021V20.074L82.5513 19.6368V21.2896H84.1776V22.3994ZM91.5008 24.5573C91.5008 25.5778 91.2088 26.4156 90.6261 27.0708C90.0164 27.7454 89.2053 28.0816 88.1942 28.0816C87.2184 28.0816 86.4426 27.7585 85.8641 27.113C85.2855 26.4661 84.9963 25.6511 84.9963 24.668C84.9963 23.6392 85.2952 22.7965 85.8911 22.1413C86.4883 21.4854 87.2925 21.1575 88.3035 21.1575C89.2779 21.1575 90.0606 21.4813 90.653 22.1275C91.2191 22.7543 91.5008 23.5638 91.5008 24.5573ZM89.9714 24.5912C89.9714 23.983 89.8399 23.4614 89.5762 23.0248C89.2669 22.4976 88.824 22.234 88.2503 22.234C87.6592 22.234 87.206 22.4976 86.8973 23.0248C86.6329 23.4614 86.5015 23.992 86.5015 24.6189C86.5015 25.2277 86.6329 25.7507 86.8973 26.1859C87.2163 26.7131 87.6613 26.9767 88.2378 26.9767C88.8018 26.9767 89.244 26.7076 89.5638 26.1728C89.835 25.7258 89.9714 25.2007 89.9714 24.5912ZM96.2988 22.5896C96.1453 22.5619 95.9896 22.5483 95.8337 22.5488C95.3147 22.5488 94.9133 22.7439 94.6309 23.1369C94.3859 23.4828 94.2628 23.9201 94.2628 24.448V27.9315H92.7873V23.3832C92.7886 22.6863 92.7743 21.9894 92.7444 21.2931H94.0295L94.0835 22.5633H94.1243C94.2807 22.1268 94.5257 21.7746 94.8621 21.511C95.1699 21.2807 95.544 21.1559 95.9285 21.1554C96.0648 21.1554 96.188 21.1651 96.2974 21.1824L96.2988 22.5896ZM102.897 24.2978C102.901 24.5221 102.883 24.7461 102.843 24.9669H98.4171C98.4337 25.6228 98.6482 26.125 99.0593 26.471C99.4323 26.7795 99.9147 26.9345 100.507 26.9345C101.162 26.9345 101.76 26.8307 102.298 26.6211L102.529 27.6444C101.901 27.9184 101.159 28.0546 100.303 28.0546C99.2732 28.0546 98.4649 27.7516 97.8766 27.1469C97.2898 26.5415 96.9956 25.7279 96.9956 24.7088C96.9956 23.7084 97.269 22.8747 97.8164 22.2098C98.3894 21.4999 99.1638 21.145 100.138 21.145C101.095 21.145 101.82 21.4999 102.312 22.2098C102.702 22.7723 102.897 23.4697 102.897 24.2978ZM101.49 23.9152C101.501 23.4773 101.404 23.1002 101.204 22.7813C100.949 22.3703 100.556 22.1655 100.029 22.1655C99.5465 22.1655 99.1534 22.3655 98.8545 22.7667C98.6088 23.0857 98.4628 23.469 98.4178 23.9139L101.49 23.9152Z" fill="white"/>
<path d="M49.6468 15.4681C49.2365 15.4681 48.8814 15.448 48.5859 15.4141V10.9627C48.9992 10.8989 49.4169 10.8674 49.8351 10.8686C51.5271 10.8686 52.3064 11.7009 52.3064 13.0577C52.3064 14.6227 51.386 15.4681 49.6468 15.4681ZM49.8946 11.4394C49.6662 11.4394 49.4718 11.4532 49.3105 11.4864V14.8703C49.3977 14.8842 49.5652 14.8904 49.8005 14.8904C50.9091 14.8904 51.5403 14.2594 51.5403 13.0777C51.5403 12.024 50.9693 11.4394 49.8946 11.4394ZM54.7348 15.502C53.7811 15.502 53.1631 14.7901 53.1631 13.8236C53.1631 12.8162 53.7943 12.098 54.7887 12.098C55.7285 12.098 56.3604 12.7761 56.3604 13.7703C56.3604 14.7901 55.7092 15.502 54.7348 15.502ZM54.7624 12.628C54.2386 12.628 53.9029 13.1179 53.9029 13.8028C53.9029 14.4746 54.2455 14.9644 54.7555 14.9644C55.2656 14.9644 55.6081 14.4407 55.6081 13.789C55.6081 13.1248 55.2725 12.628 54.7624 12.628ZM61.7985 12.1652L60.7777 15.428H60.1127L59.6898 14.011C59.5847 13.6645 59.4971 13.3128 59.4275 12.9573H59.4137C59.3604 13.313 59.2594 13.6693 59.1521 14.011L58.7023 15.428H58.0303L57.0697 12.1652H57.8151L58.1846 13.7163C58.2718 14.0858 58.3452 14.4345 58.4061 14.7638H58.4199C58.4732 14.4891 58.5604 14.146 58.6884 13.7232L59.1521 12.1659H59.7431L60.1867 13.69C60.294 14.0595 60.3812 14.422 60.449 14.7645H60.4684C60.5154 14.4289 60.5895 14.0726 60.6898 13.69L61.0864 12.1659L61.7985 12.1652ZM65.5563 15.428H64.831V13.5544C64.831 12.9774 64.6096 12.6882 64.1729 12.6882C63.7431 12.6882 63.4476 13.0577 63.4476 13.4873V15.428H62.7224V13.0978C62.7224 12.8093 62.7154 12.5 62.6954 12.1645H63.3334L63.3673 12.6681H63.3874C63.5826 12.3194 63.9784 12.098 64.422 12.098C65.1071 12.098 65.557 12.6218 65.557 13.4742L65.5563 15.428ZM67.5563 15.428H66.8303V10.668H67.5563V15.428ZM70.2006 15.502C69.2477 15.502 68.629 14.7901 68.629 13.8236C68.629 12.8162 69.2601 12.098 70.2539 12.098C71.1944 12.098 71.8255 12.7761 71.8255 13.7703C71.8262 14.7901 71.1743 15.502 70.2006 15.502ZM70.2276 12.628C69.7037 12.628 69.3681 13.1179 69.3681 13.8028C69.3681 14.4746 69.7113 14.9644 70.22 14.9644C70.7307 14.9644 71.0726 14.4407 71.0726 13.789C71.0733 13.1248 70.7383 12.628 70.2276 12.628ZM74.6851 15.428L74.6325 15.0523H74.6131C74.3916 15.3546 74.0685 15.502 73.6588 15.502C73.074 15.502 72.6588 15.0924 72.6588 14.5417C72.6588 13.7364 73.357 13.3199 74.566 13.3199V13.2597C74.566 12.83 74.3384 12.6149 73.8885 12.6149C73.5667 12.6149 73.2844 12.6958 73.0359 12.857L72.8885 12.3803C73.1902 12.1921 73.5667 12.098 74.0089 12.098C74.8615 12.098 75.292 12.5478 75.292 13.4479V14.6496C75.292 14.979 75.3065 15.2343 75.3391 15.4287L74.6851 15.428ZM74.5854 13.8028C73.7799 13.8028 73.3757 13.9979 73.3757 14.4608C73.3757 14.8032 73.584 14.9707 73.8733 14.9707C74.2422 14.9707 74.5854 14.6891 74.5854 14.3065V13.8028ZM78.8138 15.428L78.7799 14.9042H78.7598C78.5515 15.3 78.2014 15.502 77.7121 15.502C76.9252 15.502 76.3425 14.8102 76.3425 13.8367C76.3425 12.8162 76.9467 12.0974 77.7716 12.0974C78.2083 12.0974 78.5176 12.2447 78.692 12.5408H78.7066V10.668H79.4325V14.5486C79.4325 14.8641 79.4401 15.1595 79.4595 15.428H78.8138ZM78.7066 13.5081C78.7066 13.0514 78.4041 12.6619 77.9425 12.6619C77.4048 12.6619 77.0761 13.1386 77.0761 13.8097C77.0761 14.4677 77.4173 14.9181 77.928 14.9181C78.3841 14.9181 78.7066 14.5216 78.7066 14.0519V13.5081ZM84.0353 15.502C83.0824 15.502 82.4644 14.7901 82.4644 13.8236C82.4644 12.8162 83.0955 12.098 84.0893 12.098C85.0298 12.098 85.6609 12.7761 85.6609 13.7703C85.6616 14.7901 85.0104 15.502 84.0353 15.502ZM84.0623 12.628C83.5391 12.628 83.2035 13.1179 83.2035 13.8028C83.2035 14.4746 83.546 14.9644 84.0554 14.9644C84.5661 14.9644 84.908 14.4407 84.908 13.789C84.9094 13.1248 84.5737 12.628 84.0623 12.628ZM89.5613 15.428H88.8353V13.5544C88.8353 12.9774 88.6139 12.6882 88.1772 12.6882C87.7474 12.6882 87.4526 13.0577 87.4526 13.4873V15.428H86.7267V13.0978C86.7267 12.8093 86.7197 12.5 86.6997 12.1645H87.3377L87.3717 12.6681H87.3917C87.5862 12.3194 87.9827 12.0974 88.4256 12.0974C89.1108 12.0974 89.5613 12.6211 89.5613 13.4735V15.428ZM94.4409 12.709H93.643V14.2933C93.643 14.6967 93.7828 14.898 94.0651 14.898C94.1932 14.898 94.3004 14.8842 94.3869 14.8641L94.407 15.4148C94.2665 15.4688 94.0783 15.4958 93.8444 15.4958C93.2727 15.4958 92.9309 15.1803 92.9309 14.3542V12.709H92.4547V12.1652H92.9309V11.5674L93.643 11.3522V12.1645H94.4409V12.709ZM98.2804 15.428H97.5558V13.5683C97.5558 12.9843 97.335 12.6889 96.8977 12.6889C96.5219 12.6889 96.1717 12.9442 96.1717 13.461V15.428H95.4471V10.668H96.1717V12.628H96.1862C96.4146 12.2724 96.7454 12.0974 97.1676 12.0974C97.8582 12.0974 98.2804 12.6342 98.2804 13.4873V15.428ZM102.214 13.9709H100.037C100.051 14.5888 100.46 14.9375 101.066 14.9375C101.388 14.9375 101.684 14.8835 101.945 14.7832L102.058 15.2868C101.75 15.4211 101.386 15.4882 100.963 15.4882C99.9427 15.4882 99.3385 14.8434 99.3385 13.8436C99.3385 12.8432 99.9572 12.0911 100.882 12.0911C101.716 12.0911 102.239 12.709 102.239 13.6423C102.244 13.7524 102.235 13.8627 102.214 13.9709ZM101.549 13.4541C101.549 12.9504 101.295 12.5948 100.831 12.5948C100.415 12.5948 100.085 12.9573 100.038 13.4541H101.549Z" fill="white"/>
</svg>
