<svg width="120" height="100" viewBox="0 0 120 100" fill="none" xmlns="http://www.w3.org/2000/svg">
<g clip-path="url(#clip0_4_20)">
<path d="M80.8194 41.7092C80.2537 41.2075 79.686 40.7068 79.0984 40.2287C78.8554 40.031 78.8326 39.8971 79.0446 39.657C79.5338 39.1027 79.9941 38.5248 80.4648 37.9551C81.0367 37.2627 80.9146 36.6395 80.1224 36.2407C79.4459 35.9008 78.7706 35.5577 78.0808 35.2477C77.7849 35.1147 77.7632 34.987 77.8987 34.7119C78.2328 34.035 78.5379 33.3437 78.842 32.6535C79.1771 31.8932 78.8947 31.3297 78.0849 31.1525C77.3453 30.9907 76.6038 30.8352 75.8571 30.7095C75.5354 30.6549 75.4278 30.5652 75.5023 30.215C75.6584 29.4773 75.7733 28.7304 75.8736 27.9825C75.9864 27.1428 75.5799 26.7101 74.7266 26.7483C73.987 26.7812 73.2444 26.8101 72.5102 26.8987C72.1243 26.945 72.0447 26.8204 72.023 26.4753C71.9775 25.7562 71.8926 25.0402 71.8172 24.3231C71.7251 23.4361 71.1884 23.0838 70.3465 23.3609C69.6442 23.5927 68.9388 23.8204 68.2479 24.0841C67.9325 24.2046 67.8001 24.149 67.6894 23.8276C67.4453 23.1136 67.1702 22.41 66.8899 21.7094C66.5817 20.9399 65.9766 20.7554 65.2795 21.2098C64.6745 21.6044 64.0642 21.9927 63.483 22.4203C63.1645 22.6552 62.9876 22.65 62.7611 22.3018C62.3598 21.6837 61.9151 21.0913 61.4724 20.5C60.9956 19.8612 60.3627 19.8324 59.8207 20.4258C59.3335 20.9584 58.8495 21.4962 58.3986 22.0587C58.1461 22.3739 57.9714 22.4481 57.6404 22.1401C57.1253 21.66 56.5585 21.2366 56.0114 20.7915C55.3247 20.2331 54.6876 20.364 54.2904 21.1541C53.9594 21.8135 53.6233 22.4718 53.3264 23.1466C53.1847 23.4691 53.0317 23.4886 52.7401 23.3465C52.0905 23.0302 51.4286 22.7386 50.7687 22.4461C49.9186 22.068 49.3601 22.3533 49.178 23.2527C49.0353 23.9584 48.8894 24.6641 48.7622 25.3729C48.7095 25.6686 48.633 25.819 48.2679 25.7417C47.5615 25.5924 46.8426 25.5017 46.1279 25.3894C45.1599 25.2369 44.6965 25.6696 44.7731 26.6494C44.8279 27.351 44.862 28.0536 44.9344 28.7531C44.9696 29.091 44.8568 29.2012 44.5217 29.2218C43.7998 29.2661 43.082 29.3558 42.3611 29.4217C41.4541 29.5052 41.1035 30.0409 41.3951 30.9186C41.6165 31.5862 41.8264 32.2579 42.0798 32.9131C42.2132 33.2593 42.1688 33.4272 41.7954 33.5488C41.1417 33.7611 40.5025 34.0196 39.8592 34.2648C38.916 34.6243 38.7257 35.1899 39.2728 36.0161C39.671 36.6178 40.0671 37.2215 40.4901 37.8057C40.6701 38.055 40.6691 38.19 40.3981 38.3693C39.7817 38.7771 39.1828 39.213 38.586 39.6488C37.8352 40.1969 37.8062 40.8233 38.4971 41.4311C39.039 41.9081 39.581 42.3871 40.1395 42.8445C40.3846 43.0444 40.4477 43.1804 40.2047 43.4503C39.6989 44.0117 39.2304 44.6072 38.7588 45.1975C38.2396 45.8476 38.373 46.4606 39.1166 46.8408C39.7444 47.1611 40.3733 47.4826 41.0197 47.7649C41.4075 47.9338 41.541 48.0987 41.3145 48.52C40.9814 49.1381 40.7125 49.7914 40.4291 50.4342C40.0847 51.2151 40.3898 51.7921 41.2265 51.961C41.935 52.1032 42.6414 52.2639 43.3551 52.371C43.7284 52.4267 43.8474 52.5276 43.7584 52.9273C43.5981 53.6464 43.4895 54.3779 43.3944 55.1093C43.2816 55.9789 43.7098 56.4085 44.5817 56.3487C45.3036 56.3003 46.0266 56.2684 46.7464 56.1983C47.0898 56.1653 47.2325 56.2395 47.2512 56.6155C47.2863 57.3346 47.3763 58.0507 47.4518 58.7666C47.5459 59.6588 48.0703 60.0049 48.9226 59.7289C49.6259 59.5002 50.3281 59.2664 51.0211 59.0077C51.3221 58.8955 51.4679 58.9253 51.5796 59.257C51.8196 59.972 52.0968 60.6746 52.3739 61.3773C52.678 62.1468 53.2851 62.3385 53.9843 61.8852C54.5903 61.4926 55.1985 61.1001 55.7808 60.6736C56.0911 60.447 56.271 60.4315 56.4965 60.7848C56.8657 61.3628 57.2846 61.9099 57.6901 62.4651C58.291 63.2894 58.8908 63.3089 59.5745 62.5301C60.0399 62.0005 60.5136 61.4782 60.9604 60.9332C61.1548 60.6962 61.281 60.6633 61.5262 60.8786C62.1074 61.3896 62.7124 61.8728 63.3175 62.356C63.935 62.8485 64.5669 62.7104 64.932 62.0016C65.293 61.3 65.6446 60.5922 65.9808 59.8783C66.0956 59.6341 66.2073 59.596 66.4525 59.7155C67.164 60.0606 67.8839 60.3903 68.6099 60.7045C69.3319 61.0177 69.9131 60.7066 70.0745 59.9308C70.2244 59.2086 70.3785 58.4864 70.4902 57.758C70.5491 57.3737 70.7095 57.2872 71.0735 57.3594C71.782 57.5016 72.4967 57.6107 73.2103 57.7262C74.0491 57.8622 74.5353 57.4284 74.5073 56.6887C74.4504 55.8944 74.4297 55.2062 74.3429 54.5262C74.286 54.0802 74.3853 53.8793 74.8693 53.8566C75.5737 53.8236 76.2769 53.7412 76.9782 53.6598C77.8201 53.562 78.1573 53.0149 77.8863 52.2072C77.6681 51.5571 77.4643 50.8999 77.2078 50.2652C77.0454 49.8634 77.0816 49.6616 77.5378 49.5224C78.1945 49.3226 78.8285 49.0495 79.4708 48.8033C80.3385 48.4705 80.5227 47.8885 80.0065 47.1075C79.6084 46.5059 79.2163 45.9002 78.7944 45.315C78.602 45.0472 78.6092 44.8947 78.8947 44.7041C79.5235 44.2837 80.1348 43.8366 80.745 43.3885C81.4183 42.894 81.4452 42.2625 80.8194 41.7092ZM59.6169 56.802C51.1835 56.7948 44.3252 49.9603 44.3294 41.5671C44.3335 33.111 51.1535 26.3094 59.6293 26.3073C68.0855 26.3053 74.9386 33.1048 74.9428 41.5022C74.9469 49.9737 68.1 56.8092 59.6169 56.802Z" fill="#E1E1E1"/>
<path d="M80.6644 77.5848C78.1428 71.6569 75.6089 65.7341 73.1203 59.7917C72.8773 59.2107 72.4409 59.255 72.053 59.2334C71.6755 59.2128 71.8834 59.6651 71.7717 59.8865C71.6506 60.1266 71.6321 60.4151 71.5359 60.6706C71.0135 62.048 69.9028 62.6455 68.4588 62.3272C68.1579 62.2602 67.859 62.1716 67.5726 62.0593C66.895 61.7935 66.9012 61.7863 66.5548 62.4457C66.1277 63.2564 65.5961 63.9518 64.6362 64.1847C64.0033 64.3382 63.4147 64.1672 62.7973 63.9405C62.8046 64.0579 62.8056 64.1403 62.8149 64.2218C63.3413 68.8557 63.8698 73.4907 64.3922 78.1246C64.4935 79.0241 64.9072 79.2342 65.656 78.7387C67.2313 77.694 68.8095 76.6525 70.3764 75.5955C70.6567 75.4069 70.8853 75.3502 71.2194 75.4821C72.8804 76.1394 74.5538 76.7668 76.2242 77.4035C77.4602 77.8743 78.6982 78.342 79.9351 78.8118C80.2299 78.9241 80.5143 78.9355 80.7429 78.6851C80.9549 78.4533 80.9311 78.1844 80.8123 77.9156C80.7605 77.8043 80.7109 77.6951 80.6644 77.5848Z" fill="#E1E1E1"/>
<path d="M56.6041 63.7096C56.4241 63.5942 56.2555 63.4016 56.1707 63.2069C55.9173 62.6206 55.6484 62.7401 55.2026 63.044C53.3264 64.3256 51.5889 63.7848 50.7066 61.6883C50.6663 61.5935 50.6095 61.4997 50.597 61.4009C50.536 60.9382 50.3147 60.9619 49.9392 61.1041C48.7312 61.5595 47.5511 61.6697 46.5075 60.5767C46.4227 60.7631 46.3638 60.8847 46.311 61.0083C44.682 64.8429 43.0531 68.6774 41.4241 72.5108C40.667 74.2931 39.9099 76.0765 39.1476 77.8577C39.0163 78.1637 38.9604 78.4594 39.2211 78.7138C39.4621 78.9498 39.7496 78.9199 40.0382 78.7921C40.1012 78.7643 40.1685 78.7489 40.2326 78.7241C43.0282 77.6609 45.827 76.607 48.6143 75.5242C49.0156 75.3686 49.2898 75.4078 49.6403 75.6478C51.1866 76.7059 52.7555 77.7309 54.3194 78.7643C54.9927 79.2094 55.427 79.0188 55.5192 78.2234C56.03 73.7924 56.5255 69.3604 57.0498 64.9304C57.1109 64.4153 57.0809 64.0145 56.6041 63.7096Z" fill="#E1E1E1"/>
<path d="M59.6304 28.5996C52.4639 28.6017 46.6316 34.3997 46.6275 41.5268C46.6234 48.69 52.4525 54.4985 59.6407 54.4953C66.83 54.4923 72.6487 48.6838 72.6436 41.5176C72.6384 34.3936 66.8 28.5976 59.6304 28.5996ZM69.3266 38.3971C69.4415 38.7442 69.2419 38.9781 68.9905 39.1913C67.5756 40.3937 66.1711 41.6083 64.7459 42.7982C64.4936 43.0094 64.4469 43.2021 64.5204 43.4998C64.9496 45.247 65.3644 46.9995 65.7874 48.7478C65.8742 49.1052 65.9839 49.471 65.6188 49.7347C65.2527 49.9994 64.9393 49.7759 64.6259 49.5854C63.0859 48.6447 61.5396 47.7144 60.0079 46.7625C59.7389 46.5956 59.5487 46.5853 59.2735 46.7563C57.6828 47.7443 56.0807 48.7148 54.4776 49.6842C53.916 50.0242 53.4072 49.7955 53.3968 49.1413C53.4724 48.8106 53.5603 48.4098 53.6564 48.0101C54.0122 46.5266 54.3587 45.041 54.7383 43.5636C54.8334 43.1927 54.7475 42.9805 54.4579 42.7395C53.0834 41.5959 51.7326 40.4245 50.3695 39.2676C50.1006 39.0389 49.8183 38.8143 49.9403 38.4114C50.0623 38.0107 50.4037 37.9695 50.7677 37.9406C52.588 37.8006 54.4052 37.6368 56.2266 37.5049C56.5658 37.4801 56.7261 37.3678 56.8554 37.0475C57.5339 35.363 58.2455 33.692 58.9425 32.0148C59.0791 31.6861 59.227 31.3699 59.6531 31.3802C60.0493 31.3904 60.191 31.6913 60.3202 32.0025C61.0236 33.6962 61.7351 35.3857 62.4301 37.0815C62.5388 37.3462 62.6639 37.4771 62.9773 37.4987C64.8493 37.6326 66.7192 37.8006 68.5902 37.9448C68.9285 37.9716 69.2129 38.0561 69.3266 38.3971Z" fill="#E1E1E1"/>
</g>
<defs>
<clipPath id="clip0_4_20">
<rect width="44.25" height="59" fill="white" transform="translate(38 20)"/>
</clipPath>
</defs>
</svg>
