<svg width="120" height="100" viewBox="0 0 120 100" fill="none" xmlns="http://www.w3.org/2000/svg">
<g clip-path="url(#clip0_4_14)">
<path d="M66.8353 71.0371C65.4445 70.9996 64.3604 69.9051 64.3468 68.5357C64.3342 67.3275 64.3324 66.1193 64.3478 64.9111C64.3658 63.5481 65.4806 62.4535 66.855 62.4249C67.0752 62.4204 67.2961 62.424 67.5486 62.424C67.4665 60.9589 68.1988 60.3495 69.5562 60.4559C69.5562 58.155 69.5562 55.9122 69.5562 53.6828C64.8339 53.6828 60.1512 53.6828 55.4299 53.6828C55.4299 53.8431 55.4299 53.9746 55.4299 54.1052C55.4299 56.0742 55.4388 58.0431 55.4208 60.0121C55.4181 60.3468 55.5344 60.4989 55.8239 60.6511C59.1709 62.4016 60.7339 66.3081 59.5208 69.8468C58.3014 73.4026 54.684 75.5585 50.9619 74.9482C47.7295 74.4183 45.1375 71.8569 44.617 68.6762C44.0831 65.4168 45.6596 62.2048 48.5781 60.6717C48.9263 60.489 49.0264 60.2948 49.0219 59.9217C49.0021 57.9975 49.0129 56.0733 49.0129 54.1491C49.0129 53.9915 49.0129 53.835 49.0129 53.6757C44.259 53.6757 39.5745 53.6757 34.8657 53.6757C34.8657 55.9417 34.8657 58.1836 34.8657 60.4255C36.3611 60.4613 36.8517 60.8703 36.9203 62.424C37.1087 62.424 37.2729 62.4231 37.437 62.424C38.9838 62.4321 40.085 63.5096 40.094 65.0346C40.1012 66.1981 40.1057 67.3615 40.0922 68.525C40.0796 69.6035 39.4176 70.5485 38.4003 70.8796C38.0106 71.0058 37.5768 71.0274 37.1611 71.0407C36.4008 71.0649 35.6387 71.0479 34.863 71.0479C34.863 73.8617 34.863 76.6146 34.863 79.3944C46.438 79.3944 57.9876 79.3944 69.5625 79.3944C69.5625 76.6119 69.5625 73.85 69.5625 71.0416C68.6327 71.0425 67.7335 71.0622 66.8353 71.0371Z" fill="#E1E1E1"/>
<path d="M90.9419 48.0276C90.9239 46.0031 89.3456 44.3671 87.3343 44.3608C80.5557 44.3402 73.7762 44.3519 66.9975 44.3573C66.8613 44.3573 66.6991 44.4048 66.5944 44.487C65.9288 45.0141 65.2758 45.5574 64.5724 46.1329C65.1162 47.3867 65.7249 48.6934 66.755 49.7558C67.15 50.163 67.6217 50.4135 68.1835 50.554C69.6085 50.9112 71.0417 51.2548 72.4387 51.704C75.6377 52.7315 77.6624 54.8633 78.2541 58.1873C78.5617 59.9163 78.8169 61.6642 78.9405 63.4139C79.1506 66.4031 79.2444 69.4003 79.3706 72.3948C79.4113 73.348 79.3725 74.3047 79.4166 75.2579C79.5095 77.2403 78.789 78.8019 77.0933 79.9484C77.4351 79.9484 77.7779 79.9573 78.1188 79.9421C78.2054 79.9385 78.3389 79.8768 78.3641 79.8097C78.5058 79.4347 78.8033 79.4186 79.1362 79.4195C81.7516 79.4249 84.3672 79.4221 86.9826 79.4221C89.3691 79.4221 90.9428 77.8667 90.9428 75.504C90.9438 68.1053 90.9428 60.7075 90.9428 53.3088C90.9446 51.5475 90.9572 49.7879 90.9419 48.0276ZM89.314 56.4671C89.6567 56.4949 89.8741 56.69 89.8723 57.0417C89.8705 57.3907 89.6604 57.5768 89.3266 57.6154C88.9586 57.5938 88.7594 57.4006 88.7242 57.0614C88.6927 56.7481 88.9966 56.4412 89.314 56.4671ZM89.3699 65.2441C89.0173 65.2701 88.8261 65.0177 88.8234 64.5352C88.818 63.6725 88.8216 62.8097 88.8216 61.947C88.8216 61.069 88.8243 60.192 88.8207 59.314C88.8189 58.947 88.9199 58.6535 89.341 58.6159C89.682 58.5855 89.8795 58.8566 89.8795 59.3292C89.8813 61.0699 89.8769 62.8097 89.8822 64.5505C89.885 64.9192 89.7992 65.2127 89.3699 65.2441Z" fill="#E1E1E1"/>
<path d="M78.3442 75.6774C78.2974 72.7258 78.283 69.7706 78.1107 66.8253C77.9555 64.1808 77.6615 61.5405 77.3261 58.9112C76.9094 55.6489 75.0226 53.5529 71.8632 52.6069C70.5285 52.2069 69.1729 51.874 67.8182 51.5411C67.1382 51.3737 66.57 51.0453 66.0776 50.5664C65.2063 49.718 64.6093 48.6871 64.0827 47.6094C63.9013 47.239 63.7336 46.8613 63.6055 46.5847C62.5133 46.7109 61.4897 46.9212 60.4669 46.9204C59.4442 46.9194 58.4214 46.7082 57.3374 46.5829C57.3004 46.6644 57.2201 46.838 57.1416 47.0116C56.5734 48.2672 55.9349 49.4799 54.9564 50.4805C54.4323 51.0166 53.819 51.3835 53.0741 51.5571C51.9495 51.8185 50.8347 52.121 49.7163 52.4083C49.6036 52.4369 49.4972 52.4888 49.388 52.5291C49.3961 52.5524 49.4043 52.5756 49.4124 52.598C49.5622 52.598 49.7118 52.598 49.8606 52.598C56.5022 52.598 63.1437 52.598 69.7862 52.5989C70.5285 52.5989 70.6574 52.7234 70.6574 53.4437C70.6574 55.6212 70.6574 57.7978 70.6574 59.9753C70.6574 60.1318 70.6574 60.2885 70.6574 60.4711C71.0579 60.4711 71.3871 60.463 71.7162 60.472C74.0043 60.54 75.4916 62.0606 75.4898 64.3248C75.4889 65.2493 75.4898 66.1738 75.4898 67.0983C75.4898 69.4932 73.9323 71.0415 71.5178 71.0469C71.2401 71.0478 70.9622 71.0469 70.6709 71.0469C70.6709 73.8643 70.6709 76.6056 70.6709 79.4211C72.0049 79.4211 73.2937 79.4238 74.5825 79.4203C76.8083 79.4149 78.3794 77.8782 78.3442 75.6774Z" fill="#E1E1E1"/>
<path d="M52.0748 37.1878C52.2768 37.3399 52.4445 37.6066 52.5131 37.8518C52.7602 38.7387 52.8747 39.6694 53.1904 40.5296C54.252 43.4176 56.1288 45.4483 59.3666 45.8259C62.4277 46.1831 64.9728 45.2604 66.7233 42.6184C67.646 41.2259 68.1646 39.6757 68.3891 38.0344C68.4469 37.611 68.5948 37.3328 68.9565 37.0964C69.6058 36.6732 70.11 36.1164 70.3192 35.3092C68.8022 34.706 67.5729 33.7537 66.5448 32.5348C64.4497 33.5121 62.2536 33.9596 59.9925 34.1099C57.901 34.2496 55.8168 34.2728 53.8344 33.419C53.7451 33.3805 53.5927 33.3833 53.5151 33.4352C52.5708 34.0608 51.6346 34.6998 50.6336 35.3781C50.8437 36.1469 51.4146 36.691 52.0748 37.1878ZM63.9347 35.5643C64.1043 35.5392 64.4434 35.6663 64.4569 35.7593C64.5119 36.138 64.5065 36.5362 64.4397 36.9121C64.4236 37.0033 64.0718 37.1216 63.9077 37.0848C63.4909 36.9908 63.5171 36.6221 63.5306 36.2919C63.509 35.9598 63.5324 35.6224 63.9347 35.5643ZM60.3939 41.5176C61.4211 41.3834 62.3817 41.1014 63.2195 40.4499C63.3512 40.3479 63.7273 40.4043 63.8851 40.5242C64.126 40.7067 64.0998 41.0289 63.8652 41.2294C63.5838 41.4702 63.2799 41.7208 62.94 41.8532C62.149 42.1611 61.3319 42.4001 60.5246 42.6668C60.1386 42.5961 59.8879 42.4627 59.8501 42.0993C59.8139 41.7288 60.0565 41.5615 60.3939 41.5176ZM56.5212 35.7074C56.7295 35.4461 57.0225 35.4649 57.2679 35.6923C57.506 35.9125 57.487 36.776 57.2435 36.9819C57.0018 37.186 56.7204 37.1922 56.5275 36.9542C56.4012 36.7984 56.3858 36.5523 56.3173 36.3357C56.385 36.112 56.3958 35.865 56.5212 35.7074Z" fill="#E1E1E1"/>
<path d="M61.0018 19.0098C61.0018 19.3347 61.0018 19.6587 61.0018 19.9836C61.0018 21.6688 60.9991 23.354 61.0044 25.0401C61.0054 25.4017 60.88 25.6612 60.4903 25.6988C60.1603 25.7311 59.9538 25.4626 59.9447 25.0294C59.9438 24.9694 59.9456 24.9104 59.9456 24.8504C59.9456 23.0605 59.9447 21.2705 59.9447 19.4806C59.9447 19.3213 59.9447 19.1611 59.9447 19C54.7985 19.1835 51.089 23.7031 51.1089 27.7761C57.3536 27.7761 63.5992 27.7761 69.8448 27.7761C69.8168 23.4265 65.8638 19.1262 61.0018 19.0098Z" fill="#E1E1E1"/>
<path d="M45.5784 67.4198C45.5748 71.0569 48.561 74.0049 52.238 73.9942C55.9133 73.9835 58.8715 71.031 58.8625 67.3813C58.8534 63.7343 55.8835 60.8042 52.2001 60.8086C48.5268 60.8123 45.5821 63.7531 45.5784 67.4198ZM51.5508 64.2239C51.5797 64.2175 51.6067 64.2042 51.6563 64.1862C51.7204 63.848 51.6852 63.396 52.2236 63.4014C52.7332 63.4067 52.7314 63.8121 52.7602 64.1872C53.6793 64.3563 54.2961 64.8441 54.4766 65.7811C54.5586 66.2071 54.4116 66.5006 54.0924 66.5678C53.7361 66.6439 53.5295 66.4586 53.4366 65.9726C53.3563 65.5546 53.1083 65.3014 52.6826 65.2665C52.3697 65.2406 52.0505 65.2432 51.7375 65.2719C51.3036 65.3113 51.0133 65.6307 50.9979 66.0361C50.9816 66.4568 51.2748 66.8113 51.7185 66.865C51.9855 66.8971 52.2587 66.8783 52.5285 66.8819C53.6234 66.8998 54.3854 67.5576 54.4982 68.5796C54.6001 69.5051 53.9534 70.3275 52.9325 70.571C52.8892 70.5817 52.846 70.5916 52.7548 70.613C52.734 70.9952 52.7332 71.3961 52.22 71.3979C51.7068 71.3997 51.705 70.9952 51.6716 70.6157C50.7129 70.4394 50.0942 69.9123 49.9454 68.9331C49.8777 68.4884 50.1574 68.1331 50.5191 68.2449C50.7112 68.304 50.924 68.5457 50.9781 68.7452C51.1341 69.3198 51.3353 69.5238 51.9368 69.5346C52.1767 69.539 52.4184 69.5462 52.6574 69.5328C53.0867 69.5077 53.4006 69.2089 53.4384 68.8088C53.4781 68.3917 53.204 68.0204 52.7584 67.9478C52.4941 67.9049 52.22 67.9183 51.9503 67.9165C50.8428 67.9102 50.0717 67.2784 49.9427 66.2652C49.82 65.2987 50.4703 64.4727 51.5508 64.2239Z" fill="#E1E1E1"/>
<path d="M66.5249 31.3579C67.6812 30.7914 68.6733 29.9948 69.503 28.8815C63.3502 28.8815 57.2751 28.8815 51.1477 28.8815C51.2126 29.0882 51.255 29.2591 51.3199 29.4211C52.1091 31.4044 53.6423 32.549 55.6905 32.882C59.4433 33.4932 63.0878 33.0431 66.5249 31.3579Z" fill="#E1E1E1"/>
<path d="M74.4391 67.1943C74.4454 66.1356 74.4418 65.0777 74.4381 64.0189C74.4373 63.8713 74.4228 63.7209 74.3903 63.5769C74.1207 62.3866 73.1782 61.6061 71.8642 61.5407C71.0244 61.4987 70.1821 61.522 69.3407 61.5211C68.6417 61.5202 68.5072 61.6965 68.6741 62.4241C69.2631 62.4241 69.8619 62.4223 70.4599 62.425C70.8026 62.4268 71.0047 62.6093 71.0083 62.9432C71.0118 63.26 70.8062 63.4265 70.495 63.4551C70.3607 63.4677 70.2254 63.4632 70.0901 63.4641C69.0539 63.4649 68.0167 63.4551 66.9804 63.4677C66.2282 63.4766 65.6889 63.8632 65.5753 64.4656C66.6449 64.4656 67.7101 64.4656 68.7743 64.4656C69.126 64.4656 69.3758 64.6231 69.3767 64.9828C69.3777 65.34 69.1423 65.5055 68.7806 65.4992C68.4054 65.493 68.0293 65.4983 67.6541 65.4983C66.9217 65.4983 66.1894 65.4983 65.4381 65.4983C65.4237 65.6612 65.4092 65.7767 65.4048 65.8921C65.3994 66.0371 65.4039 66.183 65.4039 66.3583C65.5924 66.3674 65.7385 66.3789 65.8845 66.3799C66.7855 66.3817 67.6875 66.3799 68.5885 66.3817C69.1124 66.3825 69.3758 66.5562 69.384 66.9008C69.3921 67.2516 69.1287 67.435 68.6092 67.4359C67.7831 67.4368 66.9569 67.4359 66.1308 67.4359C65.8963 67.4359 65.6627 67.4359 65.4427 67.4359C65.4427 67.7644 65.4427 68.0239 65.4427 68.3139C66.5168 68.3139 67.5513 68.313 68.5857 68.3148C69.126 68.3157 69.3777 68.4785 69.3848 68.8241C69.393 69.1748 69.1404 69.3466 68.6083 69.3476C67.7668 69.3494 66.9254 69.3476 66.0848 69.3503C65.9766 69.3503 65.8684 69.3718 65.7223 69.387C66.0677 69.8577 66.5132 70.008 67.0111 70.0108C68.5885 70.0188 70.1667 70.0475 71.7424 70.0027C73.3704 69.9553 74.43 68.8187 74.4391 67.1943Z" fill="#E1E1E1"/>
<path d="M36.8652 70.0123C37.1944 70.0105 37.529 70.007 37.8519 69.9523C38.2009 69.8933 38.5076 69.7304 38.7015 69.3474C37.7283 69.3474 36.8129 69.3474 35.8975 69.3474C35.3068 69.3474 35.0641 69.2015 35.056 68.8453C35.0479 68.4757 35.3068 68.3155 35.9209 68.3146C36.7922 68.3137 37.6634 68.3155 38.5355 68.3128C38.6925 68.3128 38.8503 68.2976 38.9991 68.2896C38.9991 67.9763 38.9991 67.7185 38.9991 67.4768C38.9468 67.4572 38.9333 67.4483 38.9198 67.4483C37.8528 67.4437 36.7868 67.4358 35.7198 67.4384C35.3546 67.4393 35.0957 67.3131 35.0596 66.9265C35.029 66.5972 35.295 66.3895 35.7324 66.3832C36.0932 66.3779 36.454 66.3824 36.8138 66.3824C37.5453 66.3824 38.2767 66.3824 39.0054 66.3824C39.0054 66.061 39.0054 65.8006 39.0054 65.5536C38.9459 65.5304 38.9188 65.5098 38.8918 65.5098C37.8402 65.5052 36.7886 65.5044 35.737 65.499C35.286 65.4963 35.0335 65.3049 35.0605 64.9728C35.093 64.5755 35.3645 64.4644 35.7225 64.4662C36.638 64.4681 37.5543 64.4653 38.4706 64.4653C38.6113 64.4653 38.7511 64.4653 38.9234 64.4653C38.6113 63.7682 38.1739 63.4764 37.4433 63.4692C36.3015 63.4576 35.1597 63.4665 34.0179 63.4611C33.6689 63.4594 33.4227 63.2965 33.4299 62.9305C33.438 62.568 33.6779 62.4194 34.0351 62.423C34.6051 62.4293 35.1751 62.4248 35.7694 62.4248C35.8876 61.7796 35.7902 61.5351 35.3879 61.5307C34.3967 61.5191 33.4002 61.4797 32.4153 61.5603C30.9217 61.6829 30.0009 62.7452 30 64.221C30 65.1751 30.0009 66.13 30 67.084C29.9973 68.9007 31.1039 70.006 32.9438 70.0141C34.2515 70.0186 35.5584 70.0186 36.8652 70.0123Z" fill="#E1E1E1"/>
<path d="M71.1498 43.2698C74.3399 43.2698 77.5317 43.2698 80.7253 43.2698C80.4981 40.7452 78.0854 38.7726 75.5421 39.0089C73.1854 39.2264 70.9848 41.3555 71.1498 43.2698Z" fill="#E1E1E1"/>
<path d="M54.3439 60.0325C54.3439 57.8864 54.3439 55.7948 54.3439 53.6801C52.9172 53.6801 51.5165 53.6801 50.1131 53.6801C50.1131 55.8064 50.1131 57.9052 50.1131 60.0405C51.5435 59.6468 52.9334 59.6781 54.3439 60.0325Z" fill="#E1E1E1"/>
<path d="M67.508 32.0327C68.4 33.0306 69.3911 33.8093 70.6123 34.2791C71.5638 32.4972 71.5413 30.3207 70.5573 29.2198C69.7745 30.3994 68.7201 31.2855 67.508 32.0327Z" fill="#E1E1E1"/>
<path d="M52.7025 32.7997C51.4994 31.9352 50.7048 30.88 50.2331 29.5331C49.3483 30.5909 49.5378 32.9733 50.353 34.272C51.1188 33.7914 51.8854 33.3117 52.7025 32.7997Z" fill="#E1E1E1"/>
<path d="M36.5451 51.55C38.329 51.5438 40.113 51.5492 41.8969 51.5464C42.3451 51.5456 42.6148 51.3496 42.586 51.0274C42.549 50.6166 42.2694 50.5056 41.8879 50.511C41.0185 50.5226 40.149 50.5146 39.2796 50.5146C38.3651 50.5146 37.4506 50.52 36.536 50.5119C36.1636 50.5083 35.8984 50.6488 35.902 51.0346C35.9047 51.4202 36.1744 51.5509 36.5451 51.55Z" fill="#E1E1E1"/>
<path d="M34.2831 51.6611C34.6186 51.6602 34.8693 51.4114 34.8766 51.0964C34.8838 50.7545 34.6294 50.4985 34.2867 50.52C33.9305 50.5415 33.7384 50.75 33.7411 51.0955C33.7438 51.4481 33.9674 51.6208 34.2831 51.6611Z" fill="#E1E1E1"/>
</g>
<defs>
<clipPath id="clip0_4_14">
<rect width="60.9492" height="62" fill="white" transform="translate(30 19)"/>
</clipPath>
</defs>
</svg>
