<svg width="120" height="100" viewBox="0 0 120 100" fill="none" xmlns="http://www.w3.org/2000/svg">
<g clip-path="url(#clip0_4_2)">
<path d="M112.954 45.5845C110.127 42.5578 107.287 39.5445 104.536 36.45C102.75 34.4389 100.611 33.5045 97.9147 33.5553C94.3936 33.623 90.8726 33.5722 87.2042 33.5722C87.4302 30.8671 87.6628 28.3549 87.8408 25.836C88.0597 22.8159 87.2659 22 84.1794 22C65.4721 22 46.7648 22 28.0575 22C24.7897 22 24.2011 22.4063 23.1642 25.4297C20.8169 25.4297 18.4284 25.4331 16.04 25.4297C14.8218 25.4263 14.0108 26.0289 13.9697 27.2105C13.9253 28.5106 14.8628 28.8695 16.0502 28.8594C19.1881 28.8323 22.3224 28.8492 25.4604 28.8492C27.6264 28.8492 29.7958 28.8424 31.9619 28.856C33.0192 28.8627 33.9192 29.3774 33.683 30.4405C33.5291 31.1278 32.6771 31.727 32.0166 32.2078C31.719 32.4245 31.1303 32.262 30.6752 32.262C23.6604 32.262 16.6456 32.2552 9.6274 32.2653C7.89252 32.2687 6.90703 33 7.02337 34.2222C7.17735 35.8643 8.45713 35.6916 9.60003 35.6916C15.7594 35.695 21.9187 35.6984 28.0781 35.6883C29.2928 35.6848 30.5657 35.7729 30.5486 37.3133C30.5316 38.8268 29.3442 39.1518 27.9993 39.1349C25.5459 39.101 23.0959 39.1247 20.6423 39.1281C18.0179 39.1281 15.3967 39.1179 12.7721 39.1349C11.4718 39.1416 10.4692 39.6495 10.5068 41.0816C10.541 42.4325 11.6087 42.622 12.7139 42.622C14.4248 42.622 16.1358 42.622 17.8467 42.622C22.6955 42.622 27.5442 42.6289 32.3896 42.6187C33.4366 42.6153 34.4255 43.0148 34.2442 44.061C34.1176 44.7889 33.2143 45.4661 32.5161 45.9773C32.1809 46.2244 31.5204 46.0416 31.0071 46.0416C22.7947 46.0416 14.5823 46.0518 6.36638 46.0349C5.02159 46.0315 3.87869 46.3193 3.88895 47.8936C3.89922 49.4984 5.17215 49.4882 6.36295 49.4882C13.323 49.4815 20.2797 49.4848 27.2397 49.4848C27.924 49.4848 28.6803 49.3054 29.2757 49.5357C29.9532 49.7997 31.0345 50.5242 30.973 50.873C30.8395 51.5942 30.1688 52.3525 29.5118 52.8028C29.0841 53.0974 28.2971 52.8875 27.6674 52.8875C25.4706 52.8908 23.2737 52.8875 20.9845 52.8875C20.6184 57.2753 20.2386 61.4329 19.9478 65.5938C19.8485 67.009 20.6218 68.1364 22.059 68.2246C24.6459 68.3836 27.25 68.2686 29.8096 68.2686C31.493 61.3178 36.2391 57.2651 42.2685 57.5123C47.9385 57.7425 50.9224 60.9859 52.0961 68.2719C63.6893 68.2719 75.2997 68.2719 86.8963 68.2719C89.2848 60.7388 93.6443 57.1297 99.8001 57.5325C102.106 57.6849 104.119 58.5008 105.836 60.0245C108.293 62.2047 109.176 65.0352 109.135 68.1704C111.914 68.6071 113.529 67.5609 113.754 65.157C114.189 60.495 114.569 55.8229 114.942 51.154C115.11 49.0245 114.435 47.1691 112.954 45.5845ZM89.0247 46.4987C89.2984 43.2214 89.5689 39.9914 89.846 36.643C93.1377 36.643 96.3612 36.5855 99.5778 36.6904C100.228 36.7108 100.984 37.2355 101.47 37.7399C104.136 40.5196 106.729 43.3601 109.638 46.4953C102.568 46.4987 95.9231 46.4987 89.0247 46.4987Z" fill="#E1E1E1"/>
<path d="M41.8476 59.6552C36.66 59.5605 32.1466 63.8534 32.0611 68.9659C31.9892 73.4383 35.4213 76.9289 39.9621 77C45.1838 77.0812 49.6905 72.8085 49.7555 67.7166C49.8171 63.2475 46.3712 59.7365 41.8476 59.6552ZM40.3009 72.5885C38.0664 72.4834 36.3863 70.6214 36.5437 68.4275C36.7217 65.9694 39.0245 63.9449 41.5088 64.0735C43.6715 64.1853 45.3276 65.9525 45.2626 68.0821C45.1873 70.6214 42.8912 72.7069 40.3009 72.5885Z" fill="#E1E1E1"/>
<path d="M98.8248 59.6589C93.6441 59.6589 89.1958 64.0569 89.23 69.149C89.2608 73.6281 92.7237 76.9936 97.3158 77.0003C102.438 77.0071 106.877 72.7107 106.924 67.6999C106.965 63.1631 103.437 59.6589 98.8248 59.6589ZM97.7436 72.5956C95.4749 72.6091 93.7058 70.9027 93.7058 68.702C93.7058 66.2643 95.906 64.0907 98.3971 64.0671C100.642 64.0467 102.438 65.7836 102.438 67.9741C102.438 70.4287 100.252 72.582 97.7436 72.5956Z" fill="#E1E1E1"/>
</g>
<defs>
<clipPath id="clip0_4_2">
<rect width="111.222" height="55" fill="white" transform="translate(3.88889 22)"/>
</clipPath>
</defs>
</svg>
