<svg width="30" height="30" viewBox="0 0 30 30" fill="none" xmlns="http://www.w3.org/2000/svg">
<path d="M15 16C16.6569 16 18 14.6569 18 13C18 11.3431 16.6569 10 15 10C13.3431 10 12 11.3431 12 13C12 14.6569 13.3431 16 15 16Z" stroke="#E1E1E1" stroke-width="2" stroke-linecap="round" stroke-linejoin="round"/>
<path d="M15 5C12.8783 5 10.8434 5.84285 9.34315 7.34315C7.84285 8.84344 7 10.8783 7 13C7 14.892 7.402 16.13 8.5 17.5L15 25L21.5 17.5C22.598 16.13 23 14.892 23 13C23 10.8783 22.1571 8.84344 20.6569 7.34315C19.1566 5.84285 17.1217 5 15 5V5Z" stroke="#E1E1E1" stroke-width="2" stroke-linecap="round" stroke-linejoin="round"/>
</svg>
