<svg width="30" height="30" viewBox="0 0 30 30" fill="none" xmlns="http://www.w3.org/2000/svg">
<g clip-path="url(#clip0_4_56)">
<path d="M24.1086 14.65C24.0455 14.3914 23.7217 14.1 23.4757 14.0345C22.5853 13.7977 21.6772 13.6502 20.7756 13.4736C19.6553 13.2532 18.922 12.5666 18.6581 11.2937C18.5853 10.9404 18.4769 10.5944 18.4121 10.2392C18.2696 9.47617 17.8731 9.08827 17.1705 9.09009C15.5549 9.09556 13.9394 9.09738 12.3238 9.09192C11.6262 9.09009 11.2166 9.46343 11.0709 10.2283C11.0094 10.5543 10.9204 10.873 10.854 11.1972C10.5804 12.5339 9.83254 13.2751 8.63464 13.4881C7.78315 13.6393 6.94138 13.8542 6.08829 13.978C5.65121 14.0418 5.43915 14.2257 5.32907 14.7192C4.79488 17.0976 4.21211 19.4615 3.67791 21.8399C3.31854 23.4406 3.92721 24.5807 5.34689 25.0086C5.73054 25.1252 6.14009 25.1871 6.53669 25.1889C9.28539 25.2035 12.0357 25.1962 14.7844 25.1962C14.7844 25.1998 14.7844 25.2035 14.7844 25.2053C17.614 25.2053 20.4453 25.2253 23.2749 25.198C25.1397 25.1816 26.2147 23.814 25.8132 21.94C25.2887 19.4979 24.7076 17.0703 24.1086 14.65ZM16.6703 14.324C18.718 13.7176 19.3203 14.2512 19.2895 16.7043C18.4397 16.7043 17.5881 16.7043 16.6703 16.7043C16.6703 15.9175 16.6703 15.1217 16.6703 14.324ZM13.3761 14.2475C14.2729 14.2475 15.1956 14.2475 16.1717 14.2475C16.1717 15.0598 16.1717 15.8629 16.1717 16.7589C15.2069 16.7589 14.3246 16.7589 13.3761 16.7589C13.3761 15.9321 13.3761 15.1326 13.3761 14.2475ZM13.3598 17.3271C14.2907 17.3271 15.1908 17.3271 16.1846 17.3271C16.1846 18.0865 16.1846 18.7712 16.1846 19.5379C15.2474 19.5379 14.3263 19.5379 13.3598 19.5379C13.3598 18.8058 13.3598 18.0956 13.3598 17.3271ZM12.803 22.6594C11.8285 22.6594 10.8475 22.6903 9.87139 22.6266C9.72084 22.6175 9.47479 22.1658 9.47479 21.92C9.47479 21.3554 9.59944 20.7891 9.68361 20.1371C10.765 20.1371 11.7508 20.1371 12.803 20.1371C12.803 20.9457 12.803 21.7379 12.803 22.6594ZM12.8289 19.5307C11.8495 19.5307 10.8718 19.5307 9.76131 19.5307C9.83416 18.8933 9.87625 18.2923 9.98633 17.7077C10.0187 17.5383 10.2453 17.3016 10.391 17.2943C11.1907 17.2542 11.992 17.2743 12.8289 17.2743C12.8289 18.0665 12.8289 18.7549 12.8289 19.5307ZM12.8839 15.4841C12.8839 15.8702 12.8839 16.2563 12.8839 16.6933C11.9386 16.6933 11.0693 16.6933 10.1514 16.6933C10.2518 14.111 10.506 13.8851 12.8839 14.2658C12.8839 14.6609 12.8839 15.0725 12.8839 15.4841ZM16.196 22.3097C16.1879 22.4554 15.9386 22.6921 15.7929 22.6994C14.9964 22.7377 14.1968 22.7176 13.3566 22.7176C13.3566 21.8053 13.3566 20.9985 13.3566 20.1262C14.2648 20.1262 15.1664 20.1262 16.2154 20.1262C16.2154 20.8364 16.238 21.5758 16.196 22.3097ZM16.646 17.2743C17.4829 17.2743 18.281 17.2524 19.0758 17.2943C19.2182 17.3016 19.4368 17.5456 19.4692 17.715C19.5792 18.2977 19.6213 18.8951 19.699 19.5561C18.6484 19.5561 17.6723 19.5561 16.646 19.5561C16.646 18.7512 16.646 18.0665 16.646 17.2743ZM18.1061 22.7213C17.6318 22.7213 17.1559 22.7213 16.646 22.7213C16.646 21.8216 16.646 21.0477 16.646 20.1917C17.6772 20.1917 18.7019 20.1917 19.7168 20.1917C19.7556 20.27 19.7946 20.3174 19.8043 20.3738C20.2381 22.7213 20.238 22.7213 18.1061 22.7213Z" fill="#E1E1E1"/>
<path d="M25.729 6.54983C24.9892 6.06905 24.2155 5.60648 23.406 5.31146C20.6072 4.29163 17.7014 4.07673 13.8083 4.00024C12.7593 4.11862 10.7423 4.27888 8.74309 4.59393C7.06117 4.858 5.40677 5.32239 3.9434 6.37682C3.22789 6.8922 2.83776 7.54781 3.06439 8.59132C3.27484 9.56016 3.35416 10.5636 3.49499 11.5525C3.67144 12.7818 4.0729 13.126 5.15748 12.9238C6.35377 12.7016 7.54681 12.454 8.73824 12.2063C9.5622 12.0351 10.0818 11.4869 10.2826 10.5654C10.3603 10.2121 10.4412 9.86065 10.527 9.50917C10.8184 8.31269 11.2668 7.87015 12.3498 7.8483C13.9394 7.81552 15.5307 7.81734 17.122 7.84648C18.1936 7.86651 18.6808 8.33454 18.9593 9.50007C19.0499 9.88068 19.1098 10.2704 19.2069 10.6492C19.419 11.4778 19.9014 12.0278 20.6525 12.1917C21.9216 12.4703 23.1972 12.7235 24.4745 12.9438C25.4036 13.1041 25.8084 12.7235 25.9653 11.6508C26.1191 10.6037 26.2421 9.54924 26.43 8.51119C26.5886 7.65344 26.37 6.96687 25.729 6.54983Z" fill="#E1E1E1"/>
</g>
<defs>
<clipPath id="clip0_4_56">
<rect width="24" height="22" fill="white" transform="translate(3 4)"/>
</clipPath>
</defs>
</svg>
