<svg width="30" height="30" viewBox="0 0 30 30" fill="none" xmlns="http://www.w3.org/2000/svg">
<path d="M19.4575 15.0258C18.2196 15.0258 17.0848 15.0258 15.8348 15.0258C15.8348 18.7185 15.8348 22.3257 15.8348 26C14.8032 26 13.8889 26 12.8756 26C12.8756 22.3012 12.8756 18.7205 12.8756 15.0462C11.5426 15.0462 10.3067 15.0462 9 15.0462C9 14.1342 9 13.3159 9 12.3856C10.3026 12.3856 11.5325 12.3856 12.8958 12.3856C12.8958 11.1011 12.8958 9.92658 12.8958 8.75202C12.8978 4.27771 15.4384 2.25836 19.943 3.24564C19.9612 3.54692 19.9956 3.87465 19.9996 4.20239C20.0037 4.50366 19.9753 4.8029 19.9571 5.19171C19.5061 5.23445 19.0793 5.26295 18.6585 5.31384C17.0363 5.51334 15.9461 6.61257 15.8328 8.25533C15.764 9.26705 15.8085 10.2889 15.8024 11.3047C15.8004 11.606 15.8024 11.9073 15.8024 12.351C17.1475 12.351 18.4381 12.351 19.8439 12.351C19.7063 13.2976 19.593 14.0895 19.4575 15.0258Z" fill="white"/>
</svg>
