<svg width="30" height="30" viewBox="0 0 30 30" fill="none" xmlns="http://www.w3.org/2000/svg">
<path d="M24.6525 25C23.2986 25 21.9492 25 20.4766 25C20.4614 24.6501 20.437 24.3249 20.434 23.9995C20.431 21.988 20.431 19.9767 20.431 17.9652C20.431 17.828 20.4447 17.693 20.4401 17.5559C20.399 15.7634 19.7525 14.7997 18.5096 14.6789C17.148 14.5459 16.0953 15.4074 15.8595 17.118C15.6617 18.5586 15.6982 20.0359 15.6617 21.499C15.6343 22.6183 15.6556 23.7396 15.6556 24.955C14.2758 24.955 12.9736 24.955 11.6029 24.955C11.6029 20.4349 11.6029 15.9169 11.6029 11.3047C12.8945 11.3047 14.1982 11.3047 15.5963 11.3047C15.6298 11.7385 15.6678 12.201 15.7195 12.8558C17.1571 10.9937 18.9644 10.5844 21.0227 10.9487C22.6612 11.2392 23.7002 12.2276 24.2388 13.797C24.4228 14.3393 24.6252 14.9163 24.6313 15.479C24.6723 18.6117 24.6525 21.7405 24.6525 25Z" fill="white"/>
<path d="M8.94171 11.2784C8.94171 15.8497 8.94171 20.3595 8.94171 24.9615C7.62579 24.9615 6.32507 24.9615 4.95895 24.9615C4.95895 20.4106 4.95895 15.8763 4.95895 11.2784C6.26422 11.2784 7.54211 11.2784 8.94171 11.2784Z" fill="white"/>
<path d="M6.97209 9.4285C5.58619 9.44896 4.5152 8.36651 4.50759 6.93824C4.49999 5.51202 5.55577 4.42957 6.95232 4.43573C8.30475 4.44186 9.34835 5.49156 9.36965 6.86868C9.39095 8.30307 8.35799 9.40803 6.97209 9.4285Z" fill="white"/>
</svg>
