<svg width="30" height="30" viewBox="0 0 30 30" fill="none" xmlns="http://www.w3.org/2000/svg">
<path d="M6.51289 16.965C6.9203 16.9423 7.32451 16.9195 8.04065 16.8782C6.03067 15.9049 4.74161 14.6982 4.78936 12.5306C5.36545 12.6691 5.86038 12.7868 6.637 12.9707C4.75434 11.1317 4.30238 9.23065 5.35909 6.92874C7.98655 9.34223 10.6984 11.4912 14.5767 11.5057C14.5767 11.1152 14.5703 10.8155 14.5767 10.5159C14.6149 8.74093 15.4408 7.40399 17.0036 6.58572C18.5282 5.78811 20.1769 5.75298 21.5376 6.80475C22.5116 7.55897 23.2818 7.38127 24.1937 6.9556C24.5025 6.81095 24.8144 6.67665 25.3427 6.69937C24.8924 7.37507 24.442 8.0487 23.9518 8.78431C24.5375 8.66447 25.1454 8.54049 26 8.36485C25.4494 8.96409 25.1295 9.5096 24.6521 9.78856C23.7115 10.3382 23.6876 11.1648 23.6304 12.0719C23.2086 18.5768 18.2386 23.5401 11.7026 23.9741C9.03532 24.1517 6.59245 23.4099 4 21.9448C6.41898 21.9305 8.43851 21.5957 10.1732 20.2091C9.36313 19.8496 8.50855 19.6244 7.85766 19.1326C7.21153 18.6449 6.77865 17.8866 6.25029 17.2481C6.33941 17.1551 6.42855 17.06 6.51289 16.965Z" fill="white"/>
</svg>
