<svg width="30" height="30" viewBox="0 0 30 30" fill="none" xmlns="http://www.w3.org/2000/svg">
<path d="M14.6791 6C16.9613 6.15449 19.2376 6.26778 21.5061 6.47169C24.3178 6.72504 25.2538 7.59015 25.6739 10.5212C26.1038 13.5202 26.1624 16.5378 25.5215 19.5307C25.1483 21.2691 24.0385 22.3628 22.3523 22.5339C17.2212 23.0529 12.0863 23.2321 6.95133 22.5792C4.84686 22.3114 3.79761 21.3412 3.42247 19.1332C2.89099 16.0002 2.81871 12.8611 3.44975 9.72407C3.82891 7.84144 4.7628 6.79713 6.59378 6.60969C9.2804 6.33574 11.9807 6.19774 14.6791 6ZM12.1742 18.0929C14.173 16.8715 16.0117 15.7469 17.9832 14.5439C15.9354 13.3081 14.0968 12.1979 12.1742 11.0362C12.1742 13.4543 12.1742 15.6707 12.1742 18.0929Z" fill="white"/>
</svg>
