<svg width="129" height="41" viewBox="0 0 129 41" fill="none" xmlns="http://www.w3.org/2000/svg">
<path d="M125.55 0H2.7C1.20883 0 0 1.20883 0 2.7V37.8C0 39.2912 1.20883 40.5 2.7 40.5H125.55C127.041 40.5 128.25 39.2912 128.25 37.8V2.7C128.25 1.20883 127.041 0 125.55 0Z" fill="#054085"/>
<path d="M32.1989 20.1677C32.1751 17.5147 34.3603 16.224 34.4603 16.1639C33.2227 14.3505 31.3045 14.1027 30.6304 14.083C29.0194 13.9126 27.4567 15.0518 26.636 15.0518C25.799 15.0518 24.5351 14.0994 23.1732 14.1274C21.4204 14.1546 19.7806 15.1745 18.8814 16.7583C17.0254 19.9874 18.4096 24.7329 20.1878 27.3432C21.0772 28.6224 22.1165 30.0489 23.477 29.9987C24.8079 29.9443 25.3051 29.1467 26.9112 29.1467C28.5026 29.1467 28.9695 29.9987 30.3569 29.9666C31.7853 29.9443 32.6846 28.6825 33.543 27.3925C34.5709 25.9282 34.9837 24.4844 35 24.4103C34.9672 24.3987 32.2267 23.3467 32.1989 20.1677ZM29.578 12.3659C30.2938 11.4662 30.7837 10.2421 30.6477 9C29.6115 9.04609 28.3158 9.72026 27.5697 10.6002C26.9096 11.3756 26.3198 12.6466 26.4722 13.8418C27.636 13.929 28.831 13.2516 29.578 12.3659Z" fill="white"/>
<path d="M52.3005 29.8686H50.4206L49.3908 26.7227H45.8112L44.8303 29.8686H43L46.5472 19.1585H48.7375L52.3005 29.8686ZM49.0802 25.4029L48.149 22.6062C48.0504 22.3205 47.865 21.6477 47.5935 20.5886H47.5604C47.4511 21.0441 47.2765 21.7169 47.0373 22.6062L46.1217 25.4029H49.0802ZM61.4048 25.9123C61.4048 27.2257 61.0381 28.2638 60.3038 29.026C59.6465 29.7045 58.8295 30.0432 57.8551 30.0432C56.803 30.0432 56.0464 29.6787 55.5869 28.9479V33H53.822V24.6842C53.822 23.8593 53.7997 23.0134 53.7566 22.1459H55.3088L55.4072 23.37H55.4404C56.029 22.4477 56.9222 21.9866 58.1209 21.9866C59.058 21.9866 59.8402 22.3463 60.4661 23.0666C61.0911 23.7885 61.4048 24.7365 61.4048 25.9123ZM59.6068 25.9751C59.6068 25.2234 59.433 24.6037 59.0836 24.1152C58.702 23.6074 58.1896 23.3531 57.5472 23.3531C57.1118 23.3531 56.7161 23.4947 56.3626 23.774C56.0083 24.0557 55.7765 24.4235 55.668 24.8789C55.6197 25.0493 55.5922 25.2246 55.5861 25.4013V26.6897C55.5861 27.2507 55.7632 27.7247 56.1175 28.1126C56.4719 28.4988 56.9321 28.6928 57.4984 28.6928C58.1631 28.6928 58.6805 28.4425 59.0505 27.9459C59.4214 27.4479 59.6068 26.7911 59.6068 25.9751ZM70.5414 25.9123C70.5414 27.2257 70.1748 28.2638 69.4405 29.026C68.7823 29.7045 67.9662 30.0432 66.9909 30.0432C65.9389 30.0432 65.1821 29.6787 64.7227 28.9479V33H62.9578V24.6842C62.9578 23.8593 62.9355 23.0134 62.8924 22.1459H64.4446L64.5431 23.37H64.5762C65.164 22.4477 66.0572 21.9866 67.2567 21.9866C68.193 21.9866 68.9753 22.3463 69.6027 23.0666C70.227 23.7885 70.5414 24.7365 70.5414 25.9123ZM68.7426 25.9751C68.7426 25.2234 68.568 24.6037 68.2186 24.1152C67.837 23.6074 67.3262 23.3531 66.6838 23.3531C66.2484 23.3531 65.8527 23.4947 65.4976 23.774C65.1433 24.0557 64.9123 24.4235 64.8039 24.8789C64.7501 25.0914 64.7211 25.2645 64.7211 25.4013V26.6897C64.7211 27.2507 64.899 27.7247 65.2518 28.1126C65.606 28.4981 66.0663 28.6928 66.6342 28.6928C67.2998 28.6928 67.8171 28.4425 68.1864 27.9459C68.5572 27.4479 68.7426 26.7911 68.7426 25.9751ZM80.7568 26.8644C80.7568 27.7762 80.4289 28.5174 79.7775 29.0896C79.0606 29.7141 78.0597 30.0272 76.7766 30.0272C75.5912 30.0272 74.6408 29.805 73.9239 29.3599L74.332 27.9299C75.1061 28.3758 75.9562 28.5978 76.8817 28.5978C77.5473 28.5978 78.0646 28.4514 78.4339 28.1609C78.8039 27.8695 78.991 27.48 78.991 26.994C78.991 26.5586 78.8362 26.194 78.5323 25.8971C78.227 25.6008 77.7219 25.3248 77.0126 25.0713C75.0837 24.372 74.1185 23.349 74.1185 22.0034C74.1185 21.1246 74.4596 20.4052 75.14 19.8426C75.8205 19.2809 76.7228 19 77.8454 19C78.8478 19 79.6831 19.1698 80.3461 19.5086L79.9033 20.9073C79.2791 20.5789 78.5746 20.4148 77.7865 20.4148C77.164 20.4148 76.6756 20.5637 76.3262 20.8599C76.0324 21.1246 75.8834 21.4473 75.8834 21.8305C75.8834 22.2529 76.0531 22.6039 76.3908 22.8791C76.6839 23.1326 77.2187 23.4086 77.9918 23.7047C78.9405 24.0766 79.6375 24.5096 80.0837 25.007C80.5332 25.5042 80.7568 26.1248 80.7568 26.8644ZM86.607 23.4336H84.6616V27.1831C84.6616 28.1367 85.0043 28.6123 85.6914 28.6123C86.0067 28.6123 86.2683 28.5866 86.4753 28.5327L86.5242 29.8356C86.1765 29.962 85.7187 30.0255 85.1516 30.0255C84.4546 30.0255 83.9099 29.8187 83.5168 29.4051C83.1251 28.9914 82.9281 28.2985 82.9281 27.323V23.4303H81.7691V22.1427H82.9281V20.7287L84.6616 20.2201V22.1427H86.607V23.4336ZM95.3669 25.9437C95.3669 27.1308 95.0176 28.1053 94.3206 28.8674C93.5913 29.6521 92.6211 30.0432 91.4116 30.0432C90.2444 30.0432 89.3164 29.6674 88.6244 28.9165C87.9322 28.164 87.5863 27.216 87.5863 26.0725C87.5863 24.8758 87.9438 23.8955 88.6567 23.1334C89.371 22.3704 90.333 21.989 91.5423 21.989C92.7079 21.989 93.6442 22.3656 94.3528 23.1173C95.03 23.8464 95.3669 24.788 95.3669 25.9437ZM93.5375 25.9831C93.5375 25.2757 93.3802 24.6689 93.0647 24.1611C92.6948 23.5478 92.165 23.2412 91.4787 23.2412C90.7716 23.2412 90.2295 23.5478 89.8603 24.1611C89.544 24.6689 89.3868 25.2861 89.3868 26.0154C89.3868 26.7235 89.544 27.3319 89.8603 27.8381C90.2419 28.4514 90.7742 28.758 91.4638 28.758C92.1384 28.758 92.6674 28.445 93.0499 27.8229C93.3743 27.3029 93.5375 26.6921 93.5375 25.9831ZM101.106 23.6548C100.923 23.6226 100.736 23.6068 100.55 23.6074C99.9291 23.6074 99.4489 23.8343 99.1111 24.2915C98.8181 24.6938 98.6708 25.2025 98.6708 25.8166V29.8686H96.9058V24.578C96.9074 23.7673 96.8903 22.9567 96.8545 22.1467H98.3917L98.4563 23.6242H98.5051C98.6922 23.1165 98.9853 22.7068 99.3877 22.4002C99.7559 22.1323 100.203 21.9871 100.663 21.9866C100.826 21.9866 100.974 21.9978 101.105 22.018L101.106 23.6548ZM108.999 25.6418C109.004 25.9028 108.982 26.1633 108.935 26.4202H103.64C103.66 27.1831 103.917 27.7673 104.408 28.1697C104.855 28.5286 105.432 28.7089 106.14 28.7089C106.924 28.7089 107.639 28.5882 108.283 28.3443L108.559 29.5347C107.807 29.8534 106.92 30.0118 105.896 30.0118C104.664 30.0118 103.697 29.6594 102.994 28.956C102.292 28.2518 101.94 27.3054 101.94 26.1199C101.94 24.9562 102.267 23.9865 102.922 23.2131C103.607 22.3873 104.533 21.9745 105.699 21.9745C106.844 21.9745 107.711 22.3873 108.299 23.2131C108.765 23.8674 108.999 24.6786 108.999 25.6418ZM107.317 25.1968C107.329 24.6874 107.213 24.2488 106.974 23.8778C106.668 23.3997 106.198 23.1615 105.568 23.1615C104.991 23.1615 104.521 23.3942 104.163 23.8608C103.869 24.2319 103.695 24.6778 103.641 25.1953L107.317 25.1968Z" fill="white"/>
<path d="M45.2655 14.9579C44.776 14.9579 44.3525 14.933 44 14.8909V9.36582C44.493 9.28659 44.9912 9.24754 45.4901 9.24903C47.5083 9.24903 48.4379 10.2821 48.4379 11.9661C48.4379 13.9086 47.34 14.9579 45.2655 14.9579ZM45.561 9.9575C45.2886 9.9575 45.0567 9.97466 44.8643 10.0159V14.216C44.9683 14.2332 45.1681 14.2409 45.4488 14.2409C46.7712 14.2409 47.5241 13.4577 47.5241 11.991C47.5241 10.6831 46.843 9.9575 45.561 9.9575ZM51.3345 15C50.1969 15 49.4598 14.1164 49.4598 12.9167C49.4598 11.6664 50.2127 10.775 51.3988 10.775C52.5199 10.775 53.2736 11.6166 53.2736 12.8506C53.2736 14.1164 52.4968 15 51.3345 15ZM51.3675 11.4328C50.7427 11.4328 50.3422 12.0408 50.3422 12.8909C50.3422 13.7248 50.7509 14.3328 51.3592 14.3328C51.9677 14.3328 52.3762 13.6827 52.3762 12.8738C52.3762 12.0494 51.9759 11.4328 51.3675 11.4328ZM59.7603 10.8583L58.5426 14.9081H57.7494L57.245 13.1494C57.1196 12.7192 57.0151 12.2827 56.9321 11.8416H56.9156C56.8521 12.283 56.7316 12.7252 56.6036 13.1494L56.0671 14.9081H55.2655L54.1197 10.8583H55.0088L55.4495 12.7836C55.5536 13.2422 55.6411 13.675 55.7138 14.0837H55.7302C55.7938 13.7428 55.8978 13.3169 56.0505 12.7922L56.6036 10.8592H57.3086L57.8377 12.751C57.9657 13.2095 58.0697 13.6595 58.1506 14.0846H58.1737C58.2298 13.6681 58.3182 13.2259 58.4378 12.751L58.9109 10.8592L59.7603 10.8583ZM64.2427 14.9081H63.3775V12.5827C63.3775 11.8665 63.1134 11.5075 62.5925 11.5075C62.0798 11.5075 61.7274 11.9661 61.7274 12.4994V14.9081H60.8623V12.0159C60.8623 11.6578 60.854 11.2739 60.8301 10.8575H61.5911L61.6316 11.4826H61.6556C61.8884 11.0498 62.3605 10.775 62.8897 10.775C63.7069 10.775 64.2435 11.4251 64.2435 12.483L64.2427 14.9081ZM66.6283 14.9081H65.7623V9H66.6283V14.9081ZM69.7825 15C68.6459 15 67.9079 14.1164 67.9079 12.9167C67.9079 11.6664 68.6606 10.775 69.8461 10.775C70.9679 10.775 71.7207 11.6166 71.7207 12.8506C71.7215 14.1164 70.9439 15 69.7825 15ZM69.8147 11.4328C69.1898 11.4328 68.7895 12.0408 68.7895 12.8909C68.7895 13.7248 69.1988 14.3328 69.8056 14.3328C70.4148 14.3328 70.8226 13.6827 70.8226 12.8738C70.8235 12.0494 70.4239 11.4328 69.8147 11.4328ZM75.1317 14.9081L75.069 14.4418H75.0458C74.7816 14.8171 74.3962 15 73.9075 15C73.2099 15 72.7147 14.4916 72.7147 13.8081C72.7147 12.8085 73.5475 12.2915 74.9896 12.2915V12.2168C74.9896 11.6836 74.7182 11.4165 74.1815 11.4165C73.7977 11.4165 73.4609 11.517 73.1645 11.717L72.9887 11.1254C73.3486 10.8918 73.7977 10.775 74.3251 10.775C75.3421 10.775 75.8556 11.3332 75.8556 12.4504V13.942C75.8556 14.3508 75.8729 14.6677 75.9118 14.909L75.1317 14.9081ZM75.0128 12.8909C74.052 12.8909 73.5698 13.1331 73.5698 13.7076C73.5698 14.1327 73.8183 14.3405 74.1634 14.3405C74.6034 14.3405 75.0128 13.991 75.0128 13.5161V12.8909ZM80.0565 14.9081L80.0161 14.258H79.9921C79.7436 14.7493 79.326 15 78.7424 15C77.8037 15 77.1087 14.1413 77.1087 12.933C77.1087 11.6664 77.8294 10.7742 78.8134 10.7742C79.3343 10.7742 79.7032 10.9571 79.9112 11.3246H79.9286V9H80.7945V13.8167C80.7945 14.2083 80.8036 14.5749 80.8267 14.9081H80.0565ZM79.9286 12.5251C79.9286 11.9584 79.5678 11.4749 79.0172 11.4749C78.3758 11.4749 77.9837 12.0666 77.9837 12.8995C77.9837 13.7162 78.3907 14.2752 78.9999 14.2752C79.544 14.2752 79.9286 13.7832 79.9286 13.2001V12.5251ZM86.2848 15C85.1482 15 84.411 14.1164 84.411 12.9167C84.411 11.6664 85.1638 10.775 86.3492 10.775C87.4711 10.775 88.2239 11.6166 88.2239 12.8506C88.2247 14.1164 87.448 15 86.2848 15ZM86.317 11.4328C85.693 11.4328 85.2926 12.0408 85.2926 12.8909C85.2926 13.7248 85.7012 14.3328 86.3088 14.3328C86.918 14.3328 87.3258 13.6827 87.3258 12.8738C87.3275 12.0494 86.9271 11.4328 86.317 11.4328ZM92.8764 14.9081H92.0104V12.5827C92.0104 11.8665 91.7463 11.5075 91.2254 11.5075C90.7127 11.5075 90.3611 11.9661 90.3611 12.4994V14.9081H89.4952V12.0159C89.4952 11.6578 89.4868 11.2739 89.463 10.8575H90.224L90.2646 11.4826H90.2884C90.5204 11.0498 90.9934 10.7742 91.5217 10.7742C92.339 10.7742 92.8764 11.4242 92.8764 12.4822V14.9081ZM98.6969 11.5333H97.7451V13.4998C97.7451 14.0004 97.9119 14.2503 98.2486 14.2503C98.4014 14.2503 98.5293 14.2331 98.6325 14.2083L98.6564 14.8918C98.4888 14.9588 98.2643 14.9923 97.9853 14.9923C97.3034 14.9923 96.8957 14.6007 96.8957 13.5754V11.5333H96.3277V10.8583H96.8957V10.1164L97.7451 9.84929V10.8575H98.6969V11.5333ZM103.277 14.9081H102.412V12.5998C102.412 11.8751 102.149 11.5084 101.627 11.5084C101.179 11.5084 100.761 11.8253 100.761 12.4667V14.9081H99.8971V9H100.761V11.4328H100.779C101.051 10.9914 101.446 10.7742 101.949 10.7742C102.773 10.7742 103.277 11.4405 103.277 12.4994V14.9081ZM107.969 13.0996H105.373C105.389 13.8665 105.877 14.2993 106.599 14.2993C106.983 14.2993 107.336 14.2323 107.649 14.1078L107.783 14.7329C107.415 14.8995 106.981 14.9828 106.477 14.9828C105.26 14.9828 104.539 14.1825 104.539 12.9416C104.539 11.6999 105.277 10.7664 106.38 10.7664C107.374 10.7664 107.998 11.5333 107.998 12.6917C108.004 12.8284 107.994 12.9653 107.969 13.0996ZM107.175 12.4581C107.175 11.833 106.872 11.3916 106.319 11.3916C105.822 11.3916 105.43 11.8416 105.373 12.4581H107.175Z" fill="white"/>
</svg>
