<svg width="30" height="30" viewBox="0 0 30 30" fill="none" xmlns="http://www.w3.org/2000/svg">
<path d="M23 23H7C6.46957 23 5.96086 22.7893 5.58579 22.4142C5.21071 22.0391 5 21.5304 5 21V8.913C5.02243 8.39779 5.24301 7.91116 5.61568 7.5547C5.98835 7.19824 6.4843 6.99951 7 7H23C23.5304 7 24.0391 7.21071 24.4142 7.58579C24.7893 7.96086 25 8.46957 25 9V21C25 21.5304 24.7893 22.0391 24.4142 22.4142C24.0391 22.7893 23.5304 23 23 23ZM7 10.868V21H23V10.868L15 16.2L7 10.868ZM7.8 9L15 13.8L22.2 9H7.8Z" fill="#E1E1E1"/>
</svg>
