<svg width="129" height="41" viewBox="0 0 129 41" fill="none" xmlns="http://www.w3.org/2000/svg">
<rect width="128.25" height="40.5" rx="2.7" fill="#054085"/>
<path d="M62.4889 18.3195C60.4943 18.3195 58.8729 19.8341 58.8729 21.9248C58.8729 24.0048 60.4943 25.5302 62.4889 25.5302C64.4836 25.5302 66.105 24.0048 66.105 21.9248C66.105 19.8448 64.4836 18.3195 62.4889 18.3195V18.3195ZM62.4889 24.1115C61.4009 24.1115 60.4516 23.2048 60.4516 21.9248C60.4516 20.6235 61.3903 19.7381 62.4889 19.7381C63.5876 19.7381 64.5263 20.6235 64.5263 21.9248C64.5156 23.2048 63.577 24.1115 62.4889 24.1115ZM72.1744 19.1301H72.121C71.769 18.7035 71.0864 18.3195 70.2224 18.3195C68.4197 18.3195 66.7663 19.9088 66.7663 21.9355C66.7663 23.9515 68.4197 25.5302 70.2224 25.5302C71.0864 25.5302 71.769 25.1462 72.121 24.7089H72.1744V25.2315C72.1744 26.6075 71.4384 27.3436 70.2544 27.3436C69.2837 27.3436 68.6863 26.6502 68.441 26.0635L67.065 26.6395C67.4597 27.5996 68.5157 28.7729 70.265 28.7729C72.121 28.7729 73.6891 27.6849 73.6891 25.0182V18.5435H72.185L72.1744 19.1301ZM70.361 24.1115C69.273 24.1115 68.3557 23.1942 68.3557 21.9355C68.3557 20.6661 69.273 19.7381 70.361 19.7381C71.4384 19.7381 72.281 20.6661 72.281 21.9355C72.281 23.2048 71.4384 24.1115 70.361 24.1115ZM54.5955 18.3195C52.6008 18.3195 50.9795 19.8341 50.9795 21.9248C50.9795 24.0048 52.6008 25.5302 54.5955 25.5302C56.5902 25.5302 58.2116 24.0048 58.2116 21.9248C58.2116 19.8448 56.5902 18.3195 54.5955 18.3195V18.3195ZM54.5955 24.1115C53.5075 24.1115 52.5582 23.2048 52.5582 21.9248C52.5582 20.6235 53.4968 19.7381 54.5955 19.7381C55.6835 19.7381 56.6329 20.6235 56.6329 21.9248C56.6222 23.2048 55.6835 24.1115 54.5955 24.1115ZM45.1981 19.4181V20.9435H48.8568C48.7501 21.8075 48.4621 22.4368 48.0248 22.8742C47.4914 23.4075 46.6594 23.9942 45.1981 23.9942C42.9474 23.9942 41.1874 22.1808 41.1874 19.9301C41.1874 17.6794 42.9474 15.8661 45.1981 15.8661C46.4141 15.8661 47.2994 16.3461 47.9608 16.9541L49.0381 15.8768C48.1208 15.0021 46.9048 14.3301 45.1981 14.3301C42.1154 14.3301 39.5127 16.8474 39.5127 19.9301C39.5127 23.0128 42.1047 25.5302 45.1981 25.5302C46.8621 25.5302 48.1208 24.9862 49.1021 23.9622C50.1155 22.9488 50.4248 21.5302 50.4248 20.3888C50.4248 20.0368 50.3928 19.7061 50.3395 19.4288L45.1981 19.4181V19.4181ZM83.5985 20.6235C83.2998 19.8128 82.3825 18.3301 80.5158 18.3301C78.6598 18.3301 77.1131 19.7915 77.1131 21.9355C77.1131 23.9515 78.6384 25.5409 80.6865 25.5409C82.3398 25.5409 83.2998 24.5275 83.6945 23.9408L82.4678 23.1195C82.0625 23.7168 81.4971 24.1115 80.6971 24.1115C79.8971 24.1115 79.3211 23.7382 78.9478 23.0235L83.7692 21.0288L83.5985 20.6235V20.6235ZM78.6918 21.8182C78.6491 20.4208 79.7691 19.7168 80.5798 19.7168C81.2091 19.7168 81.7425 20.0261 81.9131 20.4848L78.6918 21.8182ZM74.7664 25.3169H76.3451V14.7247H74.7664V25.3169ZM91.0226 14.7247H87.2359V25.3169H88.8146V21.3062H91.0226C92.7719 21.3062 94.5 20.0368 94.5 18.0101C94.5 15.9941 92.7719 14.7247 91.0226 14.7247ZM91.0652 19.8128H88.8146V16.1861H91.0652C92.2493 16.1861 92.9213 17.1674 92.9213 17.9995C92.9213 18.8315 92.2493 19.8128 91.0652 19.8128ZM95.3746 25.3169H96.9533V14.7247H95.3746V25.3169ZM100.836 18.2981C99.6947 18.2981 98.5 18.7995 98.0093 19.9195L99.4173 20.5061C99.716 19.9195 100.271 19.7275 100.857 19.7275C101.679 19.7275 102.511 20.2181 102.521 21.0928V21.1995C102.233 21.0395 101.625 20.7941 100.868 20.7941C99.3533 20.7941 97.8173 21.6262 97.8173 23.1835C97.8173 24.6022 99.0547 25.5089 100.452 25.5089C101.519 25.5089 102.105 25.0289 102.468 24.4742H102.521V25.2955H104.047V21.2315C104.057 19.3541 102.649 18.2981 100.836 18.2981ZM100.644 24.1115C100.121 24.1115 99.4067 23.8555 99.4067 23.2155C99.4067 22.3942 100.303 22.0848 101.081 22.0848C101.775 22.0848 102.105 22.2342 102.521 22.4368C102.404 23.4182 101.561 24.1115 100.644 24.1115ZM109.615 18.5328L107.801 23.1302H107.748L105.871 18.5328H104.164L106.98 24.9542L105.369 28.5382H107.023L111.375 18.5435H109.615V18.5328V18.5328Z" fill="white"/>
<path d="M17.8911 11.0972C17.6778 11.3212 17.5498 11.6732 17.5498 12.1212V28.2601C17.5498 28.7081 17.6778 29.0601 17.8911 29.2841L17.9445 29.3374L26.9899 20.292V20.0786L17.9445 11.0332L17.8911 11.0972Z" fill="url(#paint0_linear_921_3932)"/>
<path d="M29.9983 23.3113L26.9902 20.2926V20.0792L30.0089 17.0605L30.0729 17.1032L33.6463 19.1299C34.6703 19.7059 34.6703 20.6553 33.6463 21.2419L30.0729 23.2686L29.9983 23.3113V23.3113Z" fill="url(#paint1_linear_921_3932)"/>
<path d="M30.0721 23.2682L26.9894 20.1855L17.8906 29.2843C18.2213 29.6363 18.7866 29.6896 19.4053 29.327L30.0721 23.2682" fill="url(#paint2_linear_921_3932)"/>
<path d="M30.0721 17.1149L19.4053 11.0561C18.776 10.7041 18.2213 10.7468 17.8906 11.0988L26.9894 20.1976L30.0721 17.1149V17.1149Z" fill="url(#paint3_linear_921_3932)"/>
<path opacity="0.2" d="M29.9974 23.2051L19.4053 29.2211C18.808 29.5625 18.2853 29.5411 17.944 29.2318L17.8906 29.2851L17.944 29.3385C18.2853 29.6478 18.8186 29.6691 19.4053 29.3278L30.0721 23.2691L29.9974 23.2051V23.2051Z" fill="black"/>
<path opacity="0.12" d="M17.8911 29.1776C17.6778 28.9536 17.5498 28.6016 17.5498 28.1536V28.2603C17.5498 28.7083 17.6778 29.0603 17.8911 29.2843L17.9445 29.231L17.8911 29.1776ZM33.6353 21.1349L29.9979 23.2042L30.0619 23.2682L33.6353 21.2416C34.1473 20.9536 34.4033 20.5696 34.4033 20.1855C34.3607 20.5376 34.1047 20.8682 33.6353 21.1349Z" fill="black"/>
<path opacity="0.25" d="M19.4058 11.1513L33.6353 19.2367C34.094 19.5034 34.3607 19.834 34.4033 20.186C34.4033 19.802 34.1473 19.418 33.6353 19.13L19.4058 11.0446C18.3818 10.4686 17.5498 10.9486 17.5498 12.1113V12.2179C17.5498 11.0553 18.3818 10.5753 19.4058 11.1513Z" fill="white"/>
<defs>
<linearGradient id="paint0_linear_921_3932" x1="26.1788" y1="11.9457" x2="11.6959" y2="15.7978" gradientUnits="userSpaceOnUse">
<stop stop-color="#00A0FF"/>
<stop offset="0.007" stop-color="#00A1FF"/>
<stop offset="0.26" stop-color="#00BEFF"/>
<stop offset="0.512" stop-color="#00D2FF"/>
<stop offset="0.76" stop-color="#00DFFF"/>
<stop offset="1" stop-color="#00E3FF"/>
</linearGradient>
<linearGradient id="paint1_linear_921_3932" x1="34.9667" y1="20.1912" x2="17.3055" y2="20.1912" gradientUnits="userSpaceOnUse">
<stop stop-color="#FFE000"/>
<stop offset="0.409" stop-color="#FFBD00"/>
<stop offset="0.775" stop-color="#FFA500"/>
<stop offset="1" stop-color="#FF9C00"/>
</linearGradient>
<linearGradient id="paint2_linear_921_3932" x1="28.3941" y1="21.8689" x2="16.7664" y2="41.4406" gradientUnits="userSpaceOnUse">
<stop stop-color="#FF3A44"/>
<stop offset="1" stop-color="#C31162"/>
</linearGradient>
<linearGradient id="paint3_linear_921_3932" x1="15.5994" y1="5.71951" x2="20.7877" y2="14.4603" gradientUnits="userSpaceOnUse">
<stop stop-color="#32A071"/>
<stop offset="0.069" stop-color="#2DA771"/>
<stop offset="0.476" stop-color="#15CF74"/>
<stop offset="0.801" stop-color="#06E775"/>
<stop offset="1" stop-color="#00F076"/>
</linearGradient>
</defs>
</svg>
