<svg width="240" height="60" viewBox="0 0 240 60" fill="none" xmlns="http://www.w3.org/2000/svg">
<path d="M212.797 6.73473C213.801 6.40818 214.809 5.89006 215.895 6.02068C217.676 6.20355 219.605 5.89441 221.202 6.87406C223.126 7.76228 224.444 9.47775 225.553 11.215C226.046 10.784 226.543 10.3616 227.058 9.95669C226.687 12.826 226.307 15.704 225.902 18.5689C223.593 18.1945 221.276 17.8418 218.968 17.5022C219.513 16.7881 220.285 16.2003 220.674 15.3774C219.871 12.556 217.798 9.84784 214.835 9.11637C211.806 8.41102 208.739 9.70416 206.33 11.4675C205.038 12.273 204.17 13.601 202.834 14.3368C205.518 11.1149 208.795 8.18461 212.797 6.73473Z" fill="white"/>
<path d="M54.6608 16.6183C56.5722 15.8651 58.4093 14.8636 60.4429 14.45C60.4298 21.9824 60.4342 29.5192 60.4342 37.0516C60.4996 37.8136 60.4342 38.7758 61.1193 39.2939C61.835 39.7293 62.7034 39.7903 63.4845 40.0776C62.3979 40.4695 61.2371 40.3563 60.1069 40.3607C58.2741 40.3345 56.4456 40.4347 54.6216 40.2692C55.4943 39.4899 57.2704 39.7772 57.3009 38.2533C57.554 33.5815 57.3315 28.8835 57.41 24.1943C57.3271 21.9563 57.637 19.6792 57.1482 17.4717C56.7075 16.5791 55.6994 16.971 54.9401 17.0842C54.8703 16.971 54.7306 16.7359 54.6608 16.6183Z" fill="white"/>
<path d="M126.889 17.0011C128.543 15.6601 130.716 14.9939 132.767 14.4802C132.781 21.7296 132.785 28.9833 132.767 36.2327C132.776 37.1253 132.741 38.0614 133.099 38.893C133.693 39.7987 134.971 39.6289 135.783 40.2558C132.925 40.4648 130.058 40.3168 127.195 40.356L127.256 39.8291C127.902 39.6811 128.635 39.6985 129.215 39.3241C129.739 38.5404 129.743 37.552 129.756 36.6507C129.743 31.0341 129.748 25.4174 129.756 19.8051C129.756 18.8342 129.591 17.8719 129.342 16.9358C128.526 16.9402 127.705 16.9881 126.889 17.0011Z" fill="white"/>
<path d="M227.491 15.1426C229.137 15.3647 230.769 15.6825 232.405 15.9568C232.314 17.5808 232.095 19.2005 231.873 20.8159C230.241 20.5024 228.6 20.215 226.946 20.0496C226.95 19.9843 226.959 19.8536 226.968 19.7883C227.099 18.2339 227.343 16.697 227.491 15.1426Z" fill="white"/>
<path d="M4 15.9612C6.5092 15.5475 9.06204 15.8523 11.5887 15.7522C14.5605 22.109 17.4406 28.5094 20.4298 34.8575C23.3623 28.5137 26.2468 22.1482 29.1575 15.7957C31.4572 15.7304 33.7656 15.7652 36.0654 15.7565C36.1265 15.8958 36.2443 16.1745 36.301 16.3138C35.1315 16.4053 33.5649 16.3138 32.9671 17.5591C32.6616 18.395 32.6878 19.305 32.6703 20.1802C32.6921 25.6662 32.666 31.1435 32.6791 36.6296C32.7489 37.5091 32.7096 38.554 33.3773 39.2333C34.1889 39.7732 35.2057 39.7383 36.1352 39.8211L36.205 40.3697C32.6965 40.3435 29.1836 40.374 25.6751 40.3479L25.6358 39.8385C26.6439 39.6774 27.9661 39.8559 28.6294 38.898C29.2229 38.1491 29.092 37.1259 29.1531 36.2421C29.1138 30.7386 29.2229 25.2308 29.0745 19.7274C26.0373 26.5806 22.8823 33.3859 19.7447 40.1999C19.5745 40.2086 19.2341 40.226 19.0596 40.2347C15.8521 33.4207 12.7233 26.5588 9.56824 19.7187C9.48533 25.1002 9.56824 30.4817 9.5246 35.8633C9.48533 37.0084 9.70788 38.1361 10.0221 39.2333C11.0563 39.8385 12.4833 39.4074 13.3473 40.2913C10.3755 40.4611 7.39942 40.2869 4.42766 40.3827L4.38838 39.7862C5.51425 39.7862 6.88012 39.7993 7.57397 38.7326C7.93181 37.8182 7.90999 36.8037 7.93617 35.8328C7.91871 30.6167 7.92744 25.4006 7.93617 20.1845C7.88817 19.0743 7.95799 17.7158 6.97613 16.9582C6.051 16.4488 4.96004 16.3878 4 15.9612Z" fill="white"/>
<path d="M232.848 19.67C234.031 19.8746 235.218 20.0879 236.4 20.31V20.8151C236.278 21.8034 236.125 22.7918 236.008 23.7801C234.821 23.5886 233.638 23.3839 232.455 23.188C232.578 22.0124 232.713 20.8412 232.848 19.67Z" fill="white"/>
<path d="M227.988 21.1547C229.188 21.3419 230.393 21.5466 231.584 21.7947C231.44 22.9181 231.3 24.0414 231.191 25.1734C230.89 25.1386 230.288 25.0646 229.991 25.0298C229.193 24.9296 228.407 24.7946 227.617 24.6814C227.722 23.5059 227.862 22.3303 227.988 21.1547Z" fill="white"/>
<path d="M215.202 27.8339C214.944 24.7643 217.541 22.0387 220.548 21.7557C220.469 23.2274 220.129 24.7121 220.294 26.1837C221.18 28.2606 223.367 29.3273 225.522 29.5189C225.81 28.2432 226.09 26.9631 226.404 25.6874C226.923 25.5655 227.438 25.4523 227.966 25.339C229.218 27.5552 230.275 30.3636 228.996 32.8018C228.049 34.8395 225.688 35.3228 223.799 36.0847C221.141 41.9713 217.537 47.6489 212.274 51.5414C209.625 53.5181 206.383 54.9636 203.018 54.7851C200.675 54.6545 198.545 53.4354 196.896 51.8331C198.484 52.2511 200.042 53.2003 201.744 52.8128C205.58 52.2424 208.49 49.3209 210.821 46.4429C213.509 42.9597 215.966 39.0411 216.681 34.6305C217.275 32.1966 215.176 30.2286 215.202 27.8339Z" fill="white"/>
<path d="M39.9313 24.9126C41.8645 23.0795 44.8101 22.8705 47.2888 23.4714C48.7812 23.7849 50.2649 24.9126 50.3652 26.5366C50.7274 30.4073 50.2125 34.3128 50.662 38.1792C51.7791 38.6538 52.4992 37.5914 53.3239 37.0472C53.4767 38.0529 52.6475 38.7583 51.993 39.3809C51.0591 40.1995 49.6714 40.9962 48.4452 40.3127C47.5811 39.8207 47.5899 38.7235 47.3804 37.8744C45.648 39.333 43.6231 41.1791 41.1488 40.5608C38.0244 39.8947 37.2083 35.3796 39.5255 33.3767C41.7729 31.3739 44.7534 30.477 47.5113 29.3972C47.4153 27.8907 47.5462 26.0969 46.3287 24.9866C44.9716 23.9765 42.8551 24.29 41.8514 25.6528C41.786 26.7804 42.0653 28.091 41.2623 29.0315C40.6077 29.2622 39.591 29.3972 39.1808 28.6875C38.3385 27.4727 39.0062 25.8705 39.9313 24.9126ZM41.7161 33.8905C40.4943 35.5363 41.5852 38.2663 43.6755 38.4535C45.1287 38.484 46.3243 37.4826 47.4764 36.725C47.4633 34.6873 47.4633 32.654 47.4633 30.6163C45.4254 31.4262 43.0995 32.0749 41.7161 33.8905Z" fill="white"/>
<path d="M80.736 25.2214C82.6212 24.4421 84.4845 23.5713 86.4701 23.0488C86.4963 24.2679 86.4963 25.4914 86.505 26.7149C88.1676 25.0081 90.0615 22.9225 92.7016 23.2012C94.6348 23.2883 95.8741 24.9602 96.424 26.6452C98.0168 24.8165 100.133 22.8529 102.769 23.2273C105.06 23.4058 106.504 25.7222 106.557 27.8513C106.714 31.0384 106.544 34.2342 106.631 37.4257C106.679 38.0178 106.736 38.6492 107.067 39.1629C107.656 39.6245 108.424 39.6898 109.131 39.8291C109.105 39.9641 109.062 40.2297 109.044 40.369C106.317 40.3385 103.589 40.3385 100.858 40.369L100.879 39.8335C101.901 39.7377 103.45 39.5896 103.541 38.2617C103.664 35.1747 103.563 32.0746 103.594 28.9833C103.594 27.6553 103.288 25.9137 101.761 25.548C99.7012 24.9254 97.8335 26.3927 96.4414 27.725C96.7382 31.2169 96.3803 34.7349 96.6247 38.2268C96.7163 39.7638 98.5753 39.6027 99.6227 40.16C97.8815 40.5127 96.0967 40.2906 94.3381 40.3516C93.0551 40.3211 91.7067 40.5344 90.4935 40.0163C91.5714 39.6288 93.3518 39.7507 93.474 38.2312C93.6049 35.2922 93.4915 32.3446 93.5351 29.3969C93.5569 27.9775 93.3038 26.1401 91.7721 25.5698C89.8259 24.9689 87.7094 26.2054 86.5355 27.7032C86.4788 31.2256 86.3654 34.7785 86.601 38.2921C86.6665 39.7594 88.364 39.6245 89.3895 40.012C89.0927 40.2819 88.7393 40.3908 88.3291 40.3429C85.8766 40.3734 83.4241 40.3472 80.9717 40.3516V39.8465C81.539 39.7203 82.1368 39.6724 82.6823 39.459C83.3412 39.0497 83.3805 38.1659 83.4416 37.4736C83.5027 34.7828 83.4285 32.092 83.4678 29.4013C83.446 28.1996 83.5158 26.9456 83.0707 25.8092C82.4379 25.3912 81.7179 25.5785 81.0371 25.7265C80.9717 25.6002 80.8146 25.3477 80.736 25.2214Z" fill="white"/>
<path d="M66.8536 24.8912C68.6821 23.1234 71.4662 22.958 73.8445 23.3803C75.4896 23.6285 77.1261 24.8433 77.2221 26.6153C77.5581 30.0768 77.2002 33.5687 77.401 37.0345C77.3355 37.6832 77.7414 38.1578 78.1908 38.5671C78.9065 38.0533 79.596 37.496 80.316 36.9779C79.9887 38.8718 78.1167 40.4132 76.2271 40.583C74.822 40.5264 74.3463 39.0982 74.2329 37.9227C72.4786 39.2855 70.5716 41.162 68.1322 40.5873C65.0208 40.0169 64.0739 35.6194 66.2383 33.5295C68.4421 31.3873 71.5142 30.5818 74.2721 29.4106C74.4161 28.2176 74.3681 26.9419 73.8445 25.8403C73.0503 24.1161 70.4887 23.9638 69.1664 25.135C68.2326 26.2104 69.1621 27.9477 68.1235 28.9752C67.4689 29.4063 66.6049 29.2408 66.0463 28.7357C65.2434 27.4557 65.8412 25.849 66.8536 24.8912ZM68.6122 33.843C67.3555 35.5236 68.4595 38.2841 70.5934 38.493C71.9506 38.2797 73.3339 37.6571 74.2634 36.6382C74.4161 34.6398 74.2809 32.6326 74.3289 30.6297C72.3215 31.4526 69.9825 32.0361 68.6122 33.843Z" fill="white"/>
<path d="M112.394 24.9251C114.318 23.0877 117.264 22.8657 119.742 23.4665C121.222 23.8062 122.714 24.899 122.793 26.5361C123.124 30.0367 122.766 33.5722 122.972 37.0815C122.989 37.6345 123.111 38.231 123.726 38.4051C124.569 38.1743 125.149 37.4516 125.847 36.9726C125.603 38.9189 123.596 40.4689 121.689 40.5821C120.279 40.5212 119.969 39.0277 119.808 37.9088C118.106 39.1888 116.365 41.0306 114.017 40.63C110.753 40.3601 109.509 35.7318 111.761 33.5809C113.982 31.4169 117.067 30.5287 119.891 29.4185C119.864 28.1079 119.987 26.658 119.21 25.5216C118.276 24.1371 116.129 24.0892 114.864 25.0296C113.677 26.0441 114.846 27.9729 113.655 28.9961C112.926 29.4272 111.8 29.2748 111.447 28.4257C110.879 27.2153 111.512 25.8003 112.394 24.9251ZM114.152 33.9161C112.939 35.5402 114.017 38.2614 116.085 38.4617C117.539 38.5314 118.708 37.4908 119.891 36.7854C119.908 34.739 119.895 32.6927 119.895 30.6463C117.848 31.4213 115.501 32.0526 114.152 33.9161Z" fill="white"/>
<path d="M146.976 23.7855C149.738 23.6461 152.509 23.6723 155.276 23.7593C154.818 24.1643 154.303 24.4647 153.722 24.6606C153.731 26.5546 155.372 27.8477 156.236 29.4021C157.113 28.2048 158.126 27.0858 158.789 25.7491C159.413 24.7433 157.934 24.3471 157.427 23.7637C159.43 23.6723 161.442 23.6418 163.449 23.7811C162.647 24.4516 161.521 24.6563 160.849 25.4922C159.452 27.1293 158.217 28.8927 156.912 30.5995C158.723 33.1683 160.434 35.8112 162.31 38.3322C162.983 39.3162 164.187 39.6253 165.13 40.2697C162.372 40.4134 159.601 40.4177 156.847 40.2566C157.419 39.6558 159.099 39.4468 158.623 38.3322C157.593 36.4512 156.245 34.7706 155.08 32.9767C153.832 34.7575 152.296 36.3554 151.296 38.293C150.781 39.351 152.309 39.6384 153.02 39.9736C152.876 40.0694 152.584 40.2653 152.44 40.3611C150.685 40.3219 148.927 40.4134 147.172 40.2828C150.332 38.2581 151.973 34.7575 154.36 31.9884C152.981 29.8332 151.527 27.7215 150.018 25.6533C149.324 24.5953 147.993 24.3907 146.976 23.7855Z" fill="white"/>
<path d="M165.417 23.7629C167.485 23.6235 169.563 23.7367 171.635 23.6845C172.399 23.7106 173.241 23.5539 173.883 24.0894C173.137 24.3594 172.124 24.2941 171.679 25.0734C171.439 26.1706 172.067 27.1633 172.491 28.1299C173.782 30.7031 174.961 33.3373 176.27 35.9062C177.483 33.0369 178.609 30.1241 179.774 27.233C180.04 26.4928 180.376 25.7265 180.237 24.921C179.735 24.3289 178.914 24.1721 178.26 23.8021C180.219 23.6235 182.192 23.6801 184.16 23.7629C183.409 24.4116 182.331 24.7817 181.934 25.7527C179.486 31.722 177.13 37.7305 174.677 43.6998C173.752 45.9726 171.753 48.0843 169.192 48.2846C167.616 48.5284 165.753 46.6736 166.931 45.2063C168.459 43.3689 171.107 46.3427 172.556 44.3921C173.63 43.038 174.027 41.3051 174.756 39.7682C172.6 35.2966 170.505 30.7946 168.254 26.3709C167.717 25.1083 166.443 24.5379 165.417 23.7629Z" fill="white"/>
<path d="M185.221 23.6763C189.93 23.7459 194.643 23.6806 199.356 23.7067C198.74 25.1523 197.671 26.3148 196.759 27.5731C193.901 31.4438 191.008 35.284 188.171 39.1634C190.292 39.1199 192.413 39.1634 194.533 39.1504C195.428 39.0764 196.471 39.133 197.165 38.4624C198.16 37.5612 198.081 36.0982 198.443 34.9052C199.408 36.5336 198.57 38.5756 198.749 40.3695C193.779 40.3042 188.808 40.4043 183.842 40.326C184.492 38.6932 185.749 37.4218 186.744 35.9981C189.428 32.2711 192.295 28.679 194.939 24.9259C192.535 24.9346 190.113 24.7865 187.717 24.9955C186.194 25.2045 185.963 26.9853 185.719 28.2044L185.077 28.2218C185.086 26.7067 185.191 25.1958 185.221 23.6763Z" fill="white"/>
<path d="M210.263 10.0831C212.135 9.51706 214.36 9.37337 216.01 10.5968C214.321 11.2412 212.623 11.9509 211.205 13.096C210.049 13.9189 209.128 15.0292 207.95 15.8129C205.798 16.392 203.599 16.8448 201.404 17.2236C203.49 13.9886 206.527 11.2325 210.263 10.0831Z" fill="#FB641B"/>
<path d="M229.393 9.97824C230.641 10.1872 231.893 10.3919 233.141 10.6009C233.067 11.8635 232.91 13.1262 232.718 14.3845C231.448 14.1363 230.178 13.8968 228.926 13.5834C229.096 12.3816 229.253 11.1799 229.393 9.97824Z" fill="#FB641B"/>
<path d="M221.783 18.9784C223.516 19.2092 225.231 19.5575 226.968 19.7839C226.959 19.8492 226.95 19.9798 226.946 20.0452C226.858 21.7084 226.623 23.3542 226.448 25.0087C224.677 24.8084 222.914 24.5254 221.181 24.1161C221.36 22.405 221.583 20.6939 221.783 18.9784Z" fill="#FB641B"/>
<path d="M229.986 25.0302C230.283 25.0651 230.885 25.1391 231.186 25.1739C231.958 25.2567 232.731 25.3829 233.499 25.5266C233.438 26.3539 233.377 27.1811 233.307 28.0084C232.482 27.8778 231.662 27.7297 230.841 27.5991C230.881 26.8023 230.92 26.0099 230.968 25.2131C230.719 25.1652 230.226 25.0781 229.986 25.0302Z" fill="#FB641B"/>
<path d="M140 36.1765C141.515 35.6584 143.099 37.13 142.824 38.6757C142.806 40.2257 140.864 41.3621 139.529 40.5C137.84 39.5987 138.124 36.6685 140 36.1765Z" fill="#FB641B"/>
<path d="M193.749 44.7101C195.581 44.4532 197.423 43.9438 199.282 44.2529C199.107 44.2877 198.767 44.3661 198.592 44.4009C199.273 45.7768 199.797 47.2702 200.835 48.4327C201.739 49.5343 202.982 50.2614 204.191 50.9668C202.31 51.8071 200.094 52.5516 198.121 51.5502C195.359 50.4399 194.351 47.366 193.749 44.7101Z" fill="#FB641B"/>
</svg>
