<svg width="16" height="16" viewBox="0 0 16 16" fill="none" xmlns="http://www.w3.org/2000/svg">
<path d="M6.94472 2.43531C7.27075 1.43191 7.43376 0.930204 7.736 0.930204C8.03824 0.930204 8.20125 1.4319 8.52728 2.43531L9.51056 5.46153C9.60067 5.73886 9.64573 5.87753 9.75508 5.95698C9.86443 6.03643 10.0102 6.03643 10.3018 6.03643H13.4838C14.5388 6.03643 15.0664 6.03643 15.1598 6.32388C15.2532 6.61133 14.8264 6.92139 13.9728 7.54153L11.3986 9.41184C11.1627 9.58324 11.0447 9.66894 11.0029 9.79749C10.9612 9.92604 11.0062 10.0647 11.0963 10.342L12.0796 13.3683C12.4056 14.3717 12.5687 14.8734 12.3241 15.051C12.0796 15.2287 11.6528 14.9186 10.7993 14.2985L8.22504 12.4282C7.98912 12.2568 7.87117 12.1711 7.736 12.1711C7.60083 12.1711 7.48288 12.2568 7.24696 12.4282L4.6727 14.2985C3.81916 14.9186 3.39239 15.2287 3.14787 15.051C2.90335 14.8734 3.06636 14.3717 3.39239 13.3683L4.37567 10.342C4.46578 10.0647 4.51083 9.92604 4.46906 9.79749C4.4273 9.66894 4.30934 9.58324 4.07342 9.41184L1.49917 7.54153C0.645621 6.92139 0.218849 6.61133 0.312247 6.32388C0.405645 6.03643 0.933164 6.03643 1.9882 6.03643H5.17016C5.46177 6.03643 5.60757 6.03643 5.71692 5.95698C5.82627 5.87753 5.87133 5.73886 5.96144 5.46153L6.94472 2.43531Z" fill="#F3BF05"/>
</svg>
