<svg width="120" height="100" viewBox="0 0 120 100" fill="none" xmlns="http://www.w3.org/2000/svg">
<g clip-path="url(#clip0_4_8)">
<path d="M95.0159 53.2802C93.6251 52.9963 92.2485 53.2021 90.8853 53.4893C88.0912 54.078 85.4147 55.0488 82.769 56.1045C80.0216 57.2004 77.2917 58.3384 74.5477 59.4419C72.9219 60.0961 71.2361 60.3741 69.4879 60.1423C67.8096 59.9189 66.133 59.6812 64.4556 59.4469C64.2773 59.4217 64.0973 59.3948 63.9265 59.3428C63.5882 59.2395 63.2948 59.0463 63.284 58.6608C63.2715 58.2502 63.5765 58.0335 63.9256 57.9336C64.2015 57.8546 64.4989 57.8227 64.7864 57.8219C67.7721 57.8143 70.7578 57.8185 73.7427 57.8168C75.1351 57.816 76.4784 57.575 77.7359 56.951C78.4192 56.6117 79.0091 56.154 79.4133 55.4872C80.3182 53.9932 79.7949 52.432 78.155 51.8785C77.5584 51.677 76.9034 51.5241 76.2826 51.5468C74.8985 51.5955 73.5185 51.7567 72.1386 51.8936C70.4953 52.0574 68.8571 52.2858 67.2113 52.4101C64.7339 52.5974 62.3549 52.0414 60.0125 51.2948C58.0951 50.6835 56.2018 49.9856 54.2611 49.4666C51.2287 48.6553 48.1938 48.6427 45.2215 49.8227C42.9307 50.7322 41.0158 52.1976 39.3051 53.9453C38.4409 54.8288 37.636 55.7711 36.8077 56.6822C36.9277 56.8494 36.9985 56.9518 37.0735 57.0518C39.7159 60.5807 42.3799 64.0936 44.9823 67.6527C45.4931 68.3506 45.9789 68.7478 46.8397 68.4783C46.9039 68.4581 46.9781 68.4682 47.0472 68.4631C50.1746 68.2255 53.2678 68.5412 56.3176 69.1963C59.505 69.8807 62.6715 70.6676 65.8364 71.4545C67.0572 71.7577 68.1971 71.6872 69.3029 71.0859C69.7429 70.8474 70.1937 70.629 70.6262 70.3787C78.0892 66.0646 85.5505 61.7472 93.0118 57.4305C94.3343 56.6655 95.6576 55.9012 96.9992 55.1252C96.7483 54.0066 96.0134 53.4834 95.0159 53.2802Z" fill="#E1E1E1"/>
<path d="M68.4504 51.5603C70.6287 51.3084 72.8044 51.0338 74.9851 50.8036C76.4151 50.6525 77.8192 50.7835 79.11 51.4973C80.2741 52.1406 80.7732 53.2601 80.5357 54.5736C80.4057 55.295 80.0949 55.9231 79.6533 56.5412C80.2541 56.2969 80.8582 56.06 81.4515 55.7997C81.5632 55.751 81.6715 55.62 81.7165 55.5016C82.0432 54.6433 82.4482 53.8001 82.6506 52.9116C83.2231 50.398 82.9473 47.8954 82.2732 45.4431C80.6324 39.4729 77.5017 34.3736 73.2419 29.9469C72.9636 29.658 72.7194 29.3783 72.2603 29.6034C72.1219 29.6706 71.9319 29.6387 71.7661 29.6387C69.8779 29.6412 67.9896 29.642 66.1014 29.6379C65.8806 29.637 65.6406 29.6479 65.4447 29.5665C65.1981 29.464 65.0606 29.5497 64.9031 29.7092C60.5116 34.156 57.3218 39.3284 55.6352 45.3919C55.3227 46.5147 55.1694 47.6812 54.9369 48.8561C57.3309 49.617 59.6167 50.3888 61.9307 51.0665C64.059 51.6896 66.2455 51.8148 68.4504 51.5603ZM63.9715 44.4799C64.8931 44.4799 65.8014 44.4799 66.7105 44.4799C67.0897 45.8488 68.0188 46.4618 69.2312 46.1334C69.4004 46.0873 69.5762 46.0075 69.7095 45.8958C70.0812 45.5842 70.0545 45.0912 69.6396 44.8435C69.3562 44.6747 69.0362 44.5664 68.7271 44.4437C67.8638 44.1003 66.958 43.8408 66.1422 43.4066C64.4273 42.4937 63.7565 40.7242 64.3223 38.8775C64.8006 37.3154 66.3647 36.2253 67.983 36.3253C68.118 36.3337 68.2529 36.3412 68.4346 36.3522C68.4346 35.928 68.4346 35.5291 68.4346 35.1034C68.7638 35.1034 69.0479 35.1034 69.3954 35.1034C69.3954 35.5283 69.3779 35.9432 69.4054 36.3564C69.4146 36.4941 69.5071 36.657 69.6129 36.7511C70.0404 37.134 70.4878 37.4951 70.9237 37.8605C70.9645 37.538 71.0195 37.1122 71.0762 36.6688C71.9278 36.6688 72.7569 36.6688 73.6244 36.6688C73.6244 38.1006 73.6244 39.5317 73.6244 40.993C72.7469 40.993 71.8678 40.993 70.9703 40.993C70.927 40.7729 70.9003 40.5529 70.8395 40.3421C70.592 39.4796 69.8004 38.9321 68.9129 38.9967C68.4588 39.0295 68.0855 39.3091 67.9755 39.7038C67.8496 40.1565 68.0646 40.4857 68.4213 40.6915C68.8638 40.9476 69.3396 41.1466 69.8062 41.3591C70.5762 41.7102 71.3836 41.9932 72.1136 42.4131C73.5677 43.2487 74.1527 44.5504 73.8794 46.1141C73.5919 47.7618 72.3528 48.8922 70.6053 49.0753C70.2237 49.1148 69.8354 49.0812 69.3996 49.0812C69.3996 49.4549 69.3996 49.7984 69.3996 50.1645C69.0637 50.1645 68.7788 50.1645 68.4354 50.1645C68.4354 49.8068 68.4554 49.4599 68.4254 49.1173C68.4138 48.9813 68.3229 48.8141 68.2146 48.7302C67.7471 48.3665 67.2597 48.0289 66.758 47.6661C66.708 48.002 66.648 48.4018 66.5847 48.8217C65.7122 48.8217 64.8573 48.8217 63.9731 48.8217C63.9715 47.3755 63.9715 45.9411 63.9715 44.4799Z" fill="#E1E1E1"/>
<path d="M35.5027 56.2002C34.9586 55.4721 34.4053 55.3923 33.6936 55.9432C31.9979 57.2558 30.3046 58.5701 28.6097 59.8844C26.4215 61.5817 24.2332 63.2798 22 65.0123C25.994 70.3619 29.9622 75.6771 33.9361 80.9999C34.1428 80.8403 34.3086 80.7135 34.4736 80.5858C38.1509 77.7397 41.8274 74.8927 45.5065 72.0474C46.4072 71.3504 46.4797 70.881 45.8048 69.9782C42.3708 65.3844 38.9367 60.7923 35.5027 56.2002ZM39.8275 72.5631C38.8851 72.5606 38.0943 71.7384 38.1026 70.7684C38.111 69.8169 38.8934 69.0325 39.8334 69.0342C40.8008 69.0359 41.5841 69.8253 41.5783 70.7953C41.5725 71.7653 40.78 72.5665 39.8275 72.5631Z" fill="#E1E1E1"/>
<path d="M65.6222 26.2173C65.6681 26.324 65.863 26.4256 65.9889 26.4273C67.9588 26.4407 69.9279 26.4306 71.8978 26.4458C72.1394 26.4474 72.2369 26.3677 72.3203 26.1602C72.6819 25.2683 73.0569 24.3815 73.4285 23.4938C73.9502 22.2475 74.4727 21.0021 75.0043 19.7315C74.111 19.325 73.2169 19.0621 72.2628 19.0075C71.0336 18.9378 69.9245 19.3636 68.8046 19.7928C68.0321 20.0892 67.2372 20.368 66.4272 20.5116C65.2081 20.7266 64.0706 20.3244 62.9298 19.7592C62.9465 19.8608 62.9448 19.9019 62.9598 19.9364C63.844 22.0317 64.7248 24.1279 65.6222 26.2173Z" fill="#E1E1E1"/>
<path d="M66.0139 27.194C65.4256 27.1966 65.0806 27.5224 65.0789 28.033C65.0764 28.5587 65.4306 28.8686 66.0505 28.8712C67.0213 28.8754 67.9921 28.872 68.9621 28.872C69.9462 28.872 70.9312 28.8695 71.9153 28.8737C72.2628 28.8754 72.5411 28.7595 72.7094 28.4403C73.0286 27.8357 72.6161 27.1982 71.8786 27.194C69.9237 27.1831 67.9688 27.1856 66.0139 27.194Z" fill="#E1E1E1"/>
</g>
<defs>
<clipPath id="clip0_4_8">
<rect width="75" height="62" fill="white" transform="translate(22 19)"/>
</clipPath>
</defs>
</svg>
