<svg width="180" height="74" viewBox="0 0 180 74" fill="none" xmlns="http://www.w3.org/2000/svg">
<path fill-rule="evenodd" clip-rule="evenodd" d="M116.321 67.3773H39.0566C35.7742 67.3773 33.1132 64.7164 33.1132 61.4339C33.1132 58.1515 35.7742 55.4905 39.0566 55.4905H5.9434C2.66095 55.4905 0 52.8296 0 49.5471C0 46.2647 2.66095 43.6037 5.9434 43.6037H39.9057C43.1881 43.6037 45.8491 40.9428 45.8491 37.6603C45.8491 34.3779 43.1881 31.7169 39.9057 31.7169H18.6792C15.3968 31.7169 12.7358 29.056 12.7358 25.7735C12.7358 22.4911 15.3968 19.8302 18.6792 19.8302H52.6415C49.3591 19.8302 46.6981 17.1692 46.6981 13.8868C46.6981 10.6043 49.3591 7.94336 52.6415 7.94336L101.038 7.94336C104.32 7.94336 106.981 10.6043 106.981 13.8868C106.981 17.1692 104.32 19.8302 101.038 19.8302H155.377C158.66 19.8302 161.321 22.4911 161.321 25.7735C161.321 29.056 158.66 31.7169 155.377 31.7169H174.057C177.339 31.7169 180 34.3779 180 37.6603C180 40.9428 177.339 43.6037 174.057 43.6037H157.925C154.642 43.6037 151.981 46.2647 151.981 49.5471C151.981 52.8296 154.642 55.4905 157.925 55.4905H163.019C166.301 55.4905 168.962 58.1515 168.962 61.4339C168.962 64.7164 166.301 67.3773 163.019 67.3773H118.868C118.431 67.3773 118.005 67.3301 117.594 67.2406C117.184 67.3301 116.758 67.3773 116.321 67.3773Z" fill="#FFE8DC"/>
<path fill-rule="evenodd" clip-rule="evenodd" d="M63.6792 72.4717C53.363 72.4717 45 64.2988 45 54.217C45 44.1352 53.363 35.9623 63.6792 35.9623C64.1179 35.9623 64.5531 35.977 64.9842 36.0061C64.6847 34.3387 64.5283 32.6216 64.5283 30.8679C64.5283 14.9246 77.4529 2 93.3962 2C106.124 2 116.929 10.2375 120.769 21.6722C121.678 21.5771 122.602 21.5283 123.538 21.5283C137.84 21.5283 149.434 32.9324 149.434 47C149.434 60.3647 138.97 71.3911 125.66 72.4532V72.4717H77.6953" fill="white"/>
<path d="M63.6792 72.4717C53.363 72.4717 45 64.2988 45 54.217C45 44.1352 53.363 35.9623 63.6792 35.9623C64.1179 35.9623 64.5531 35.977 64.9842 36.0061C64.6847 34.3387 64.5283 32.6216 64.5283 30.8679C64.5283 14.9246 77.4529 2 93.3962 2C106.124 2 116.929 10.2375 120.769 21.6722C121.678 21.5771 122.602 21.5283 123.538 21.5283C137.84 21.5283 149.434 32.9324 149.434 47C149.434 60.3647 138.97 71.3911 125.66 72.4532V72.4717H77.6953" stroke="#FB641B" stroke-width="2.5" stroke-linecap="round"/>
<path fill-rule="evenodd" clip-rule="evenodd" d="M73.8645 72.4714H67.9512H73.8645Z" fill="white"/>
<path d="M73.8645 72.4714H67.9512" stroke="#FB641B" stroke-width="2.5" stroke-linecap="round" stroke-linejoin="round"/>
<path fill-rule="evenodd" clip-rule="evenodd" d="M84.5768 8.23371C84.5768 35.593 109.217 58.1373 140.944 61.1811C136.968 66.0702 130.828 69.3869 123.833 69.908V69.9239H66.8576C59.9448 69.9239 48.3965 67.0114 48.3965 54.2574C48.3965 41.5035 57.3745 38.5909 66.8576 38.5909C67.2608 38.5909 67.6608 38.6036 68.0571 38.6286C67.7818 37.1976 67.7334 35.7226 67.6381 34.2189C66.994 24.0614 71.4254 11.26 84.5921 7.09375C84.5815 7.47356 84.5768 7.85317 84.5768 8.23371Z" fill="#FFE8DC"/>
<path fill-rule="evenodd" clip-rule="evenodd" d="M101.887 12.1895C107.414 13.652 111.777 17.974 113.299 23.4761L101.887 12.1895Z" fill="#FB641B"/>
<path d="M101.887 12.1895C107.414 13.652 111.777 17.974 113.299 23.4761" stroke="#FB641B" stroke-width="2.5" stroke-linecap="round"/>
<path d="M77.2636 39.7839C77.2636 42.8319 79.9245 45.3027 83.207 45.3027C86.4894 45.3027 89.1504 42.8319 89.1504 39.7839" stroke="#FB641B" stroke-width="2.5" stroke-linecap="round"/>
<path d="M101.887 39.7839C101.887 42.8319 104.548 45.3027 107.83 45.3027C111.112 45.3027 113.773 42.8319 113.773 39.7839" stroke="#FB641B" stroke-width="2.5" stroke-linecap="round"/>
<path d="M89.1504 55.4897H101.462" stroke="#FB641B" stroke-width="2.5" stroke-linecap="round"/>
<path d="M34.1407 4.79492H44.2835V6.56945L36.513 16.1145H44.4703V18.1319H33.543V16.2266L41.3135 6.81228H34.1407V4.79492Z" fill="#FB641B"/>
<path d="M48.2941 17.7715H55.6707V19.0621L50.0194 26.0039H55.8065V27.4711H47.8594V26.0854L53.5107 19.2387H48.2941V17.7715Z" fill="#FB641B"/>
</svg>
