<svg version="1.2" xmlns="http://www.w3.org/2000/svg" viewBox="0 0 16 18" width="16" height="18">
	<title>svgviewer-output-svg</title>
	<style>
		.s0 { fill: #e9611e } 
	</style>
	<path id="Layer" fill-rule="evenodd" class="s0" d="m2.9 2.8c1.3-1.4 3.2-2.1 5.1-2.1 1.9 0 3.8 0.7 5.1 2.1 1.4 1.4 2.2 3.2 2.2 5.1 0 2-0.8 3.8-2.2 5.2l-1 0.9q-1.1 1.1-2.8 2.8c-0.3 0.3-0.8 0.5-1.3 0.5-0.5 0-1-0.2-1.3-0.5l-2.9-2.8q-0.6-0.6-0.9-0.9-1-1.1-1.6-2.4-0.6-1.3-0.6-2.8 0-1.4 0.6-2.7 0.6-1.4 1.6-2.4zm9.3 0.9c-1.1-1.1-2.6-1.8-4.2-1.8-1.6 0-3.1 0.7-4.2 1.8-1.2 1.1-1.8 2.6-1.8 4.2 0 1.6 0.6 3.2 1.8 4.3l1.2 1.2q1.3 1.3 2.6 2.5 0.1 0.2 0.4 0.2 0.3 0 0.4-0.2l2.9-2.7q0.6-0.6 0.9-1c1.2-1.1 1.8-2.7 1.8-4.3 0-1.6-0.6-3.1-1.8-4.2zm-4.2 2q0.5 0 1 0.2 0.4 0.1 0.8 0.5 0.3 0.4 0.5 0.8 0.2 0.5 0.2 1 0 0.5-0.2 0.9-0.2 0.5-0.5 0.8-0.4 0.4-0.8 0.6-0.5 0.2-1 0.2c-0.7 0-1.3-0.3-1.7-0.8-0.5-0.4-0.8-1.1-0.8-1.7 0-0.7 0.3-1.3 0.8-1.8 0.4-0.5 1-0.7 1.7-0.7zm0 1.2q-0.2 0-0.5 0.1-0.2 0.1-0.4 0.3-0.2 0.2-0.3 0.4-0.1 0.2-0.1 0.5 0 0.2 0.1 0.4 0.1 0.3 0.3 0.5 0.2 0.1 0.4 0.2 0.3 0.1 0.5 0.1c0.3 0 0.6-0.1 0.9-0.3 0.2-0.3 0.4-0.6 0.4-0.9 0-0.4-0.2-0.7-0.4-0.9-0.3-0.2-0.6-0.4-0.9-0.4z"/>
</svg>