<svg width="30" height="30" viewBox="0 0 30 30" fill="none" xmlns="http://www.w3.org/2000/svg">
<path d="M24.5684 15.0212C24.5426 20.438 20.1792 24.8371 14.8777 24.7964C9.65952 24.7557 5.34995 20.2912 5.35192 14.9274C5.35389 9.50439 9.70123 5.0461 14.9671 5.06445C20.3343 5.08484 24.5943 9.50235 24.5684 15.0212ZM15.3309 9.39834C14.6669 9.50847 14.0328 9.54926 13.4364 9.72874C12.2974 10.0693 11.381 10.6995 11.2419 12.0476C11.0948 13.4834 11.6594 14.4542 13.0229 15.1232C13.7664 15.4882 14.5338 15.8043 15.2851 16.1551C15.9471 16.4651 16.5494 16.8363 16.2971 17.752C16.0962 18.4842 15.3448 18.8554 14.4323 18.6209C13.8261 18.4659 13.2496 18.1967 12.6513 18.0008C12.1245 17.8296 11.5461 17.7215 11.2995 18.3904C11.0669 19.0247 11.3432 19.4958 11.9794 19.7466C13.4046 20.3075 14.8558 20.5135 16.3506 20.1056C17.6229 19.7568 18.3624 18.8064 18.4399 17.4665C18.5193 16.1021 17.9052 15.1272 16.5096 14.4705C15.7007 14.0891 14.8181 13.8403 14.0666 13.3692C13.7009 13.1408 13.3033 12.478 13.3828 12.119C13.4683 11.7335 14.0766 11.2379 14.488 11.2074C15.2116 11.1523 15.963 11.3868 16.6905 11.5541C17.2273 11.6764 17.782 11.8682 18.0344 11.1747C18.2749 10.5119 17.9251 10.0122 17.3307 9.81644C16.6827 9.60433 15.9849 9.52886 15.3309 9.39834Z" fill="white"/>
<path d="M12.157 4.94448C8.41583 6.19059 6.17159 8.71547 5.12202 12.4559C3.96904 10.8692 4.39041 8.04857 5.89926 6.315C7.46573 4.51619 10.2745 3.79422 12.157 4.94448Z" fill="white"/>
<path d="M17.7826 24.9107C21.1639 23.7727 23.4201 21.5701 24.6068 18.1417C25.4768 19.7631 24.8374 22.2492 23.3346 23.7646C21.8637 25.2493 19.4364 25.8346 17.7826 24.9107Z" fill="white"/>
</svg>
