<svg width="22" height="22" viewBox="0 0 22 22" fill="none" xmlns="http://www.w3.org/2000/svg">
<path d="M11 1.4C16.3 1.4 20.6 5.7 20.6 11C20.6 16.3 16.3 20.6 11 20.6C5.7 20.6 1.4 16.3 1.4 11C1.4 5.7 5.7 1.4 11 1.4ZM11 0C4.9 0 0 4.9 0 11C0 17.1 4.9 22 11 22C17.1 22 22 17.1 22 11C22 4.9 17.1 0 11 0ZM17.1 14.7L17 14.5C16.9 14.1 16.4 13.6 15.9 13.5L14.4 13C14 12.9 13.3 13 13 13.4L12.4 14C10.3 13.4 8.6 11.7 8 9.6L8.6 9C8.9 8.7 9.1 8 9 7.6L8.5 6C8.4 5.6 7.9 5.1 7.5 4.9H7.3C6.9 4.7 6.3 4.9 6 5.2L5.1 6.1C4.9 6.2 4.8 6.7 4.8 6.7C4.8 9.5 5.9 12.2 7.8 14.2C9.8 16.2 12.5 17.3 15.2 17.2C15.2 17.2 15.7 17.1 15.8 16.9L16.7 16C17.1 15.7 17.3 15.1 17.1 14.7Z" fill="#66696D"/>
</svg>
