<svg width="39" height="31" viewBox="0 0 39 31" fill="none" xmlns="http://www.w3.org/2000/svg">
<path d="M36.4917 16.6563C36.7536 17.2603 36.4731 17.9687 35.8692 18.23L8.57126 30.0488C7.96732 30.3102 7.25907 30.03 6.99733 29.4259L0.0978525 13.4904C-0.163305 12.8864 0.116475 12.1781 0.7207 11.9167L28.0189 0.0979778C28.6228 -0.163469 29.331 0.1166 29.5928 0.72068L36.4917 16.6563Z" fill="#46767E"/>
<path d="M31.9431 6.14954L2.44856 18.9197L0.564453 14.5681L30.0591 1.79834L31.9431 6.14954Z" fill="#1F4744"/>
<path d="M39.0002 26.5781C39.0002 27.239 38.4644 27.7749 37.8034 27.7749H8.189C7.52803 27.7749 6.99219 27.239 6.99219 26.5781V9.1846C6.99219 8.52364 7.52803 7.98779 8.189 7.98779H37.8034C38.4644 7.98779 39.0002 8.52364 39.0002 9.1846V26.5781Z" fill="#EBEAEE"/>
<path d="M12.06 13.2988C12.06 13.1077 11.9421 12.7896 11.7965 12.7896H9.95561C9.95518 12.7896 9.90527 12.7978 9.90527 12.8269V13.808H11.7965C11.9421 13.808 12.06 13.4897 12.06 13.2988Z" fill="#E4B673"/>
<path d="M12.06 14.6811C12.06 14.4813 11.9421 14.2446 11.7965 14.2446H9.90527V15.021C9.90527 15.0514 9.95518 15.1176 9.95561 15.1176H11.7965C11.9421 15.1176 12.06 14.8809 12.06 14.6811Z" fill="#E4B673"/>
<path d="M13.6387 13.2988C13.6387 13.5173 13.7568 13.808 13.9023 13.808H15.723V12.8393C15.723 12.8058 15.7436 12.7896 15.7428 12.7896H13.9023C13.7568 12.7896 13.6387 13.0808 13.6387 13.2988Z" fill="#E4B673"/>
<path d="M15.723 14.2446H13.9022C13.7567 14.2446 13.6387 14.4626 13.6387 14.6811C13.6387 14.8996 13.7567 15.1176 13.9022 15.1176H15.7428C15.7436 15.1176 15.723 15.0461 15.723 15.0128V14.2446Z" fill="#E4B673"/>
<path d="M13.6396 14.8262C13.6396 14.6807 13.7578 14.5352 13.9033 14.5352H15.7239V13.5168H13.9033C13.7578 13.5168 13.6396 13.2987 13.6396 13.153C13.6396 13.0076 13.7578 12.7893 13.9033 12.7893H15.7437C15.7087 11.6254 14.7521 10.7524 13.574 10.7524H12.1251C10.9469 10.7524 9.98999 11.6254 9.95464 12.7893H11.7955C11.9412 12.7893 12.059 13.0076 12.059 13.153C12.059 13.2987 11.9412 13.5168 11.7955 13.5168H9.9043V14.5352H11.7955C11.9412 14.5352 12.059 14.6807 12.059 14.8262C12.059 14.9717 11.9412 15.1172 11.7955 15.1172H9.95464C9.98999 16.1356 10.9469 17.0086 12.1251 17.0086H13.574C14.7521 17.0086 15.7087 16.1356 15.7437 15.1172H13.9033C13.7578 15.1172 13.6396 14.9717 13.6396 14.8262Z" fill="#FFED1A"/>
<path d="M32.7435 13.5988C32.7435 15.1639 31.4747 16.4327 29.9097 16.4327C28.3443 16.4327 27.0752 15.1639 27.0752 13.5988C27.0752 12.0333 28.3443 10.7646 29.9097 10.7646C31.4747 10.7646 32.7435 12.0333 32.7435 13.5988Z" fill="#E4B673"/>
<path d="M35.9016 13.5988C35.9016 15.1639 34.6325 16.4327 33.0674 16.4327C31.5021 16.4327 30.2334 15.1639 30.2334 13.5988C30.2334 12.0333 31.5021 10.7646 33.0674 10.7646C34.6325 10.7646 35.9016 12.0333 35.9016 13.5988Z" fill="#FFED1A"/>
<path d="M36.0915 24.0338C36.0915 24.252 35.9146 24.4291 35.6964 24.4291H16.9909C16.7726 24.4291 16.5957 24.252 16.5957 24.0338V23.9515C16.5957 23.7332 16.7726 23.5562 16.9909 23.5562H35.6964C35.9146 23.5562 36.0915 23.7332 36.0915 23.9515V24.0338Z" fill="#1F4744"/>
<path d="M14.9965 24.0338C14.9965 24.252 14.8196 24.4291 14.6013 24.4291H10.2995C10.0812 24.4291 9.9043 24.252 9.9043 24.0338V23.9515C9.9043 23.7332 10.0812 23.5562 10.2995 23.5562H14.6013C14.8196 23.5562 14.9965 23.7332 14.9965 23.9515V24.0338Z" fill="#1F4744"/>
<path d="M23.435 22.2877C23.435 22.5057 23.2581 22.6825 23.04 22.6825H10.2993C10.0812 22.6825 9.9043 22.5057 9.9043 22.2877V22.2044C9.9043 21.9863 10.0812 21.8096 10.2993 21.8096H23.04C23.2581 21.8096 23.435 21.9863 23.435 22.2044V22.2877Z" fill="#1F4744"/>
</svg>
