<svg width="22" height="22" viewBox="0 0 22 22" fill="none" xmlns="http://www.w3.org/2000/svg">
<path d="M5.8092 20.4828C7.40829 21.3533 9.20727 21.8135 11.0437 21.8135C17.0778 21.8135 22 16.9259 22 10.9067C22 7.99661 20.8631 5.24816 18.7893 3.19616C16.7155 1.13171 13.9671 0 11.0437 0C5.00965 0 0.0874499 4.88751 0.0874499 10.9067C0.0874499 12.8344 0.587166 14.6998 1.54912 16.3539L0 22L5.8092 20.4828ZM11.0437 1.82815C13.4798 1.82815 15.766 2.77332 17.4776 4.48954C19.2016 6.20577 20.1386 8.48163 20.1386 10.9067C20.1386 15.9062 16.0534 19.9729 11.0312 19.9729C9.39466 19.9729 7.79557 19.5376 6.39637 18.7044L6.05906 18.5054L2.61102 19.4008L3.53549 16.0554L3.32311 15.7072C2.41113 14.2646 1.9364 12.5981 1.9364 10.8819C1.9364 5.89486 6.02158 1.82815 11.0437 1.82815ZM11.2686 15.4087C11.9182 15.6947 12.4304 15.8564 12.8302 15.9808C13.4798 16.1922 14.0795 16.1549 14.5542 16.0927C15.0789 16.0181 16.1783 15.4336 16.4032 14.7993C16.628 14.1651 16.6281 13.6179 16.5656 13.5059C16.5031 13.394 16.3157 13.3194 16.0409 13.1826C15.766 13.0458 14.4168 12.3867 14.1669 12.2996C13.9171 12.2125 13.7297 12.1628 13.5548 12.4364C13.3674 12.71 12.8427 13.3194 12.6928 13.5059C12.5304 13.6925 12.368 13.7049 12.1056 13.5681C11.8308 13.4313 10.9438 13.1453 9.90687 12.2125C9.09483 11.4912 8.54514 10.5958 8.38274 10.3222C8.22033 10.0486 8.37024 9.89938 8.50766 9.76258C8.63259 9.63821 8.78251 9.43923 8.91993 9.28999C9.05735 9.12832 9.10732 9.01639 9.19477 8.82985C9.28222 8.6433 9.24475 8.49406 9.16979 8.35726C9.10732 8.22046 8.55764 6.87733 8.32027 6.33013C8.0954 5.79536 7.87053 5.86998 7.70812 5.85755C7.54571 5.84511 7.37081 5.84511 7.18342 5.84511C6.99602 5.84511 6.70869 5.90729 6.45883 6.18089C6.20897 6.45449 5.49688 7.11362 5.49688 8.45676C5.49688 9.79989 6.48381 11.0933 6.60874 11.2798C6.73367 11.4788 8.52016 14.2272 11.2686 15.4087Z" fill="#66696D"/>
</svg>
