<svg width="245" height="58" viewBox="0 0 245 58" fill="none" xmlns="http://www.w3.org/2000/svg">
<path d="M83.8897 38.6472V18.8026C83.8897 18.3881 84.0331 18.0322 84.3201 17.7346C84.607 17.4371 84.9576 17.2883 85.3721 17.2883H97.5339C103.963 17.2883 107.177 20.2531 107.177 26.1825C107.177 32.1014 103.963 35.0608 97.5339 35.0608H89.8989V38.6472C89.8989 39.0616 89.7501 39.4176 89.4526 39.7151C89.1657 40.0021 88.815 40.1455 88.4006 40.1455H85.4039C84.9895 40.1455 84.6335 40.0021 84.336 39.7151C84.0385 39.4176 83.8897 39.0616 83.8897 38.6472ZM89.8989 30.55H95.7168C97.502 30.55 98.8568 30.2524 99.7813 29.6573C100.706 29.0516 101.168 27.8934 101.168 26.1825C101.168 24.4611 100.706 23.3028 99.7813 22.7077C98.8568 22.102 97.502 21.7992 95.7168 21.7992H89.8989V30.55ZM111.306 38.169C109.648 36.6388 108.819 34.386 108.819 31.4107C108.819 28.4247 109.648 26.1719 111.306 24.6524C112.963 23.1222 115.344 22.3571 118.446 22.3571C121.56 22.3571 123.946 23.1222 125.603 24.6524C127.261 26.1719 128.09 28.4247 128.09 31.4107C128.09 34.386 127.261 36.6388 125.603 38.169C123.946 39.6992 121.56 40.4643 118.446 40.4643C115.344 40.4643 112.963 39.6992 111.306 38.169ZM115.338 27.2664C114.679 28.1272 114.35 29.5033 114.35 31.3947C114.35 33.2862 114.679 34.6676 115.338 35.539C115.997 36.4104 117.033 36.846 118.446 36.846C119.87 36.846 120.912 36.4104 121.571 35.539C122.24 34.6676 122.575 33.2862 122.575 31.3947C122.575 29.5033 122.24 28.1272 121.571 27.2664C120.912 26.4057 119.87 25.9753 118.446 25.9753C117.033 25.9753 115.997 26.4057 115.338 27.2664ZM143.121 26.7245L140.666 26.6288C139.231 26.6288 137.861 27.4152 136.554 28.9879V39.1732C136.554 39.4601 136.458 39.6939 136.267 39.8745C136.086 40.0552 135.858 40.1455 135.581 40.1455H132.011C131.724 40.1455 131.49 40.0552 131.31 39.8745C131.129 39.6939 131.039 39.4601 131.039 39.1732V23.6641C131.039 23.3772 131.129 23.1434 131.31 22.9628C131.501 22.7715 131.735 22.6759 132.011 22.6759H135.581C135.868 22.6759 136.102 22.7715 136.283 22.9628C136.463 23.1434 136.554 23.3772 136.554 23.6641V24.6683C137.638 23.8819 138.679 23.3028 139.678 22.9309C140.687 22.5483 142.005 22.3571 143.631 22.3571C143.918 22.3571 144.151 22.4527 144.332 22.644C144.523 22.8246 144.619 23.0531 144.619 23.3294V25.7522C144.619 26.0391 144.523 26.2729 144.332 26.4535C144.151 26.6342 143.918 26.7245 143.631 26.7245H143.121ZM155.235 36.6866L157.418 36.4954H158.008C158.295 36.4954 158.529 36.5857 158.71 36.7663C158.901 36.947 158.996 37.1808 158.996 37.4677V39.1732C158.996 39.407 158.901 39.6195 158.71 39.8108C158.529 39.9914 158.295 40.103 158.008 40.1455C156.924 40.358 155.511 40.4643 153.768 40.4643C149.199 40.4643 146.914 38.0734 146.914 33.2915V18.2766C146.914 17.9897 147.005 17.7559 147.185 17.5752C147.377 17.384 147.61 17.2883 147.887 17.2883H151.457C151.733 17.2883 151.962 17.384 152.142 17.5752C152.334 17.7559 152.429 17.9897 152.429 18.2766V23.6003H156.876C157.153 23.6003 157.381 23.6907 157.562 23.8713C157.753 24.052 157.849 24.2857 157.849 24.5727V26.4695C157.849 26.7564 157.753 26.9901 157.562 27.1708C157.381 27.3514 157.153 27.4418 156.876 27.4418H152.429V33.2915C152.429 34.3754 152.684 35.2149 153.194 35.81C153.705 36.3944 154.385 36.6866 155.235 36.6866ZM161.929 38.6472V18.8026C161.929 18.3881 162.073 18.0322 162.36 17.7346C162.647 17.4371 162.997 17.2883 163.412 17.2883H175.573C182.002 17.2883 185.217 20.2531 185.217 26.1825C185.217 32.1014 182.002 35.0608 175.573 35.0608H167.938V38.6472C167.938 39.0616 167.79 39.4176 167.492 39.7151C167.205 40.0021 166.855 40.1455 166.44 40.1455H163.444C163.029 40.1455 162.673 40.0021 162.376 39.7151C162.078 39.4176 161.929 39.0616 161.929 38.6472ZM167.938 30.55H173.756C175.542 30.55 176.896 30.2524 177.821 29.6573C178.745 29.0516 179.208 27.8934 179.208 26.1825C179.208 24.4611 178.745 23.3028 177.821 22.7077C176.896 22.102 175.542 21.7992 173.756 21.7992H167.938V30.55ZM189.345 38.169C187.687 36.6388 186.859 34.386 186.859 31.4107C186.859 28.4247 187.687 26.1719 189.345 24.6524C191.003 23.1222 193.383 22.3571 196.486 22.3571C199.6 22.3571 201.985 23.1222 203.643 24.6524C205.301 26.1719 206.129 28.4247 206.129 31.4107C206.129 34.386 205.301 36.6388 203.643 38.169C201.985 39.6992 199.6 40.4643 196.486 40.4643C193.383 40.4643 191.003 39.6992 189.345 38.169ZM193.378 27.2664C192.719 28.1272 192.39 29.5033 192.39 31.3947C192.39 33.2862 192.719 34.6676 193.378 35.539C194.037 36.4104 195.073 36.846 196.486 36.846C197.91 36.846 198.951 36.4104 199.61 35.539C200.28 34.6676 200.614 33.2862 200.614 31.3947C200.614 29.5033 200.28 28.1272 199.61 27.2664C198.951 26.4057 197.91 25.9753 196.486 25.9753C195.073 25.9753 194.037 26.4057 193.378 27.2664ZM208.09 27.5055C208.09 24.0732 210.858 22.3571 216.394 22.3571C222.218 22.3571 225.129 23.8819 225.129 26.9317C225.129 27.208 225.039 27.4418 224.858 27.633C224.678 27.8137 224.444 27.904 224.157 27.904H221.782C221.017 27.904 220.374 27.5852 219.853 26.9476C219.333 26.2994 218.307 25.9753 216.777 25.9753C214.673 25.9753 213.621 26.4854 213.621 27.5055C213.621 27.9837 214.03 28.3822 214.848 28.701C215.677 29.0198 216.681 29.3014 217.861 29.5458C219.051 29.7795 220.236 30.0824 221.415 30.4543C222.595 30.8262 223.594 31.4213 224.412 32.2395C225.241 33.0471 225.655 34.0726 225.655 35.3159C225.655 38.7481 222.733 40.4643 216.889 40.4643C211.044 40.4643 208.122 38.9447 208.122 35.9056C208.122 35.6187 208.212 35.3849 208.393 35.2043C208.584 35.013 208.823 34.9174 209.11 34.9174H211.485C212.25 34.9174 212.893 35.2415 213.414 35.8897C213.934 36.5273 214.96 36.846 216.49 36.846C218.923 36.846 220.14 36.336 220.14 35.3159C220.14 34.8377 219.726 34.4392 218.897 34.1204C218.079 33.8016 217.075 33.52 215.884 33.2756C214.694 33.0206 213.509 32.7124 212.33 32.3511C211.161 31.9792 210.162 31.3841 209.333 30.5659C208.504 29.7477 208.09 28.7275 208.09 27.5055Z" fill="#040B1C"/>
<path d="M70.8453 18.6919C73.4731 21.3201 74.9494 24.8845 74.9494 28.6011C74.9494 32.3177 73.4731 35.8821 70.8453 38.5104L56.2606 53.0919C54.9592 54.3933 53.4142 55.4257 51.7138 56.13C50.0135 56.8343 48.191 57.1968 46.3506 57.1968C44.5101 57.1968 42.6877 56.8343 40.9873 56.13C39.2869 55.4257 37.742 54.3933 36.4406 53.0919L21.8512 38.5057C19.2233 35.8775 17.7471 32.3131 17.7471 28.5965C17.7471 24.8799 19.2233 21.3155 21.8512 18.6872L36.4406 4.10255C39.0687 1.47567 42.6324 0 46.3482 0C50.0641 0 53.6278 1.47567 56.2559 4.10255L70.8453 18.6919Z" fill="#1E4A1E"/>
<path d="M53.0959 18.6937C55.7223 21.3217 57.1977 24.8851 57.1977 28.6006C57.1977 32.316 55.7223 35.8794 53.0959 38.5074L38.5096 53.0968C35.8815 55.7242 32.3174 57.2001 28.6012 57.2001C24.8849 57.2001 21.3209 55.7242 18.6927 53.0968L4.10178 38.5074C1.47537 35.8794 0 32.316 0 28.6006C0 24.8851 1.47537 21.3217 4.10178 18.6937L18.6927 4.10431C21.3209 1.47695 24.8849 0.000976562 28.6012 0.000976562C32.3174 0.000976562 35.8815 1.47695 38.5096 4.10431L53.0959 18.6937Z" fill="#389625"/>
</svg>