<svg width="19" height="19" viewBox="0 0 19 19" fill="none" xmlns="http://www.w3.org/2000/svg">
<path d="M15.833 5.5415H3.16634C2.29189 5.5415 1.58301 6.25039 1.58301 7.12484V15.0415C1.58301 15.916 2.29189 16.6248 3.16634 16.6248H15.833C16.7075 16.6248 17.4163 15.916 17.4163 15.0415V7.12484C17.4163 6.25039 16.7075 5.5415 15.833 5.5415Z" stroke="#5B5C5D" stroke-width="2" stroke-linecap="round" stroke-linejoin="round"/>
<path d="M12.6663 16.625V3.95833C12.6663 3.53841 12.4995 3.13568 12.2026 2.83875C11.9057 2.54181 11.5029 2.375 11.083 2.375H7.91634C7.49641 2.375 7.09369 2.54181 6.79676 2.83875C6.49982 3.13568 6.33301 3.53841 6.33301 3.95833V16.625" stroke="#5B5C5D" stroke-width="2" stroke-linecap="round" stroke-linejoin="round"/>
</svg>
