<svg width="22" height="22" viewBox="0 0 22 22" fill="none" xmlns="http://www.w3.org/2000/svg">
<path d="M1.9375 21.875C1.9375 21.875 0.125 21.875 0.125 20.0625C0.125 18.25 1.9375 12.8125 11 12.8125C20.0625 12.8125 21.875 18.25 21.875 20.0625C21.875 21.875 20.0625 21.875 20.0625 21.875H1.9375ZM11 11C12.4421 11 13.8252 10.4271 14.8449 9.40739C15.8646 8.38766 16.4375 7.00461 16.4375 5.5625C16.4375 4.12039 15.8646 2.73734 14.8449 1.71761C13.8252 0.697878 12.4421 0.125 11 0.125C9.55789 0.125 8.17484 0.697878 7.15511 1.71761C6.13538 2.73734 5.5625 4.12039 5.5625 5.5625C5.5625 7.00461 6.13538 8.38766 7.15511 9.40739C8.17484 10.4271 9.55789 11 11 11Z" fill="#444444"/>
</svg>
