<svg width="16" height="15" viewBox="0 0 16 15" fill="none" xmlns="http://www.w3.org/2000/svg">
<path d="M3.1 10.8H2.4C2.0287 10.8 1.6726 10.6525 1.41005 10.3899C1.1475 10.1274 1 9.7713 1 9.4V2.4C1 2.0287 1.1475 1.6726 1.41005 1.41005C1.6726 1.1475 2.0287 1 2.4 1H13.6C13.9713 1 14.3274 1.1475 14.5899 1.41005C14.8525 1.6726 15 2.0287 15 2.4V9.4C15 9.7713 14.8525 10.1274 14.5899 10.3899C14.3274 10.6525 13.9713 10.8 13.6 10.8H12.9" stroke="#5B5C5D" stroke-width="2" stroke-linecap="round" stroke-linejoin="round"/>
<path d="M7.5 9L11 13.2H4L7.5 9Z" stroke="#5B5C5D" stroke-width="2" stroke-linecap="round" stroke-linejoin="round"/>
</svg>
