<svg width="14" height="19" viewBox="0 0 14 19" fill="none" xmlns="http://www.w3.org/2000/svg">
<path d="M7 0C4.09167 0 1.75 2.42132 1.75 5.42857V6.33333C0.7875 6.33333 0 7.14762 0 8.14286V17.1905C0 18.1857 0.7875 19 1.75 19H12.25C13.2125 19 14 18.1857 14 17.1905V8.14286C14 7.14762 13.2125 6.33333 12.25 6.33333V5.42857C12.25 2.42132 9.90833 0 7 0ZM7 1.80952C8.99167 1.80952 10.5 3.36916 10.5 5.42857V6.33333H3.5V5.42857C3.5 3.36916 5.00833 1.80952 7 1.80952ZM7 10.8571C7.9625 10.8571 8.75 11.6714 8.75 12.6667C8.75 13.6619 7.9625 14.4762 7 14.4762C6.0375 14.4762 5.25 13.6619 5.25 12.6667C5.25 11.6714 6.0375 10.8571 7 10.8571Z" fill="#FB641B"/>
</svg>
