<svg width="515" height="163" viewBox="0 0 515 163" fill="none" xmlns="http://www.w3.org/2000/svg">
<g clip-path="url(#clip0_1406_13854)">
<path d="M154.914 78.8352H140.315V86.3105H154.914V78.8352Z" fill="#664249"/>
<path d="M171.882 91.4105H160.77V98.8859H171.882V91.4105Z" fill="#664249"/>
<path d="M235.473 119.136H219.62V141.412H235.473V119.136Z" fill="#6A5472"/>
<path d="M191.25 93.187H180.137V98.8858H191.25V93.187Z" fill="#6A5472"/>
<path d="M109.357 25.6497H99.5681L98.7715 85.7517H110.143L109.357 25.6497Z" fill="#FB641B"/>
<path d="M109.437 31.9772H99.4888L99.3594 41.728H109.566L109.437 31.9772Z" fill="#FFF5E3"/>
<path d="M109.616 45.2911H99.3098L99.25 49.6925H109.676L109.616 45.2911Z" fill="#FFF5E3"/>
<g style="mix-blend-mode:multiply" opacity="0.7">
<path d="M103.89 79.2544L104.597 25.6497H99.5681L98.7715 85.7517H110.143L110.064 79.2544H103.89Z" fill="#7A5353"/>
</g>
<path d="M204.375 45.9697H209.045C209.953 45.9697 210.825 46.3314 211.467 46.9753C212.11 47.6192 212.47 48.4924 212.47 49.403V50.8402H200.949V49.403C200.949 48.4924 201.31 47.6192 201.953 46.9753C202.595 46.3314 203.466 45.9697 204.375 45.9697Z" fill="#FB641B"/>
<path d="M245.391 45.9697H250.061C250.97 45.9697 251.841 46.3314 252.484 46.9753C253.126 47.6192 253.487 48.4924 253.487 49.403V50.8402H241.976V49.403C241.976 48.4942 242.335 47.6224 242.975 46.9788C243.616 46.3353 244.484 45.9724 245.391 45.9697Z" fill="#FB641B"/>
<path d="M231.151 157.471H229.239V54.1437C229.193 53.1621 229.538 52.2022 230.196 51.4744C230.855 50.7467 231.775 50.3105 232.755 50.2614H239.725C240.704 50.3105 241.624 50.7467 242.283 51.4744C242.942 52.2022 243.286 53.1621 243.24 54.1437V59.9922H241.318V54.1437C241.354 53.6708 241.209 53.202 240.913 52.8317C240.618 52.4614 240.193 52.217 239.725 52.1476H232.755C232.286 52.2169 231.86 52.4609 231.563 52.831C231.266 53.201 231.119 53.6698 231.151 54.1437V157.471Z" fill="#6A5472"/>
<path d="M189.487 105.164H187.575V53.6447C187.584 53.1912 187.682 52.7439 187.864 52.3284C188.046 51.9129 188.307 51.5373 188.633 51.2232C188.96 50.909 189.345 50.6623 189.766 50.4973C190.188 50.3322 190.638 50.2521 191.09 50.2613H195.87C196.323 50.2521 196.772 50.3322 197.194 50.4973C197.616 50.6623 198.001 50.909 198.327 51.2232C198.653 51.5373 198.915 51.9129 199.096 52.3284C199.278 52.7439 199.376 53.1912 199.385 53.6447V58.5251H197.473V53.6447C197.463 53.2282 197.288 52.8328 196.988 52.5448C196.688 52.2568 196.286 52.0997 195.87 52.1077H191.09C190.675 52.0997 190.273 52.2568 189.972 52.5448C189.672 52.8328 189.498 53.2282 189.487 53.6447V105.164Z" fill="#6A5472"/>
<path d="M240.412 48.4848H255.03C255.669 48.4822 256.301 48.6059 256.892 48.849C257.483 49.0921 258.02 49.4497 258.472 49.9013C258.924 50.3529 259.283 50.8896 259.528 51.4806C259.773 52.0716 259.899 52.7053 259.899 53.3452V59.4133H235.562V53.3452C235.562 52.0562 236.073 50.8199 236.983 49.9084C237.892 48.9969 239.126 48.4848 240.412 48.4848Z" fill="#6A5472"/>
<path d="M200.859 49.1135H213.546C215.079 49.1135 216.551 49.7207 217.64 50.803C218.729 51.8853 219.348 53.355 219.361 54.8922V58.9742H195.044V54.8922C195.057 53.355 195.676 51.8853 196.765 50.803C197.854 49.7207 199.326 49.1135 200.859 49.1135Z" fill="#6A5472"/>
<path d="M25.7514 158.688H23.2021V95.233C23.2691 94.0512 23.7978 92.9434 24.6738 92.1496C25.5497 91.3557 26.7025 90.9395 27.8823 90.9913H32.7816C33.9648 90.9341 35.1226 91.3478 36.003 92.1423C36.8833 92.9367 37.4148 94.0476 37.4817 95.233V98.9058H34.9524V95.233C34.897 94.7137 34.6408 94.2369 34.2387 93.9048C33.8366 93.5727 33.3206 93.4117 32.8015 93.4565H27.8823C27.3632 93.4117 26.8473 93.5727 26.4452 93.9048C26.0431 94.2369 25.7868 94.7137 25.7314 95.233L25.7514 158.688Z" fill="#C4B09D"/>
<path d="M37.601 95.1432L34.6634 96.3508C34.2286 96.5251 33.8554 96.825 33.5912 97.2124C33.327 97.5998 33.1838 98.0573 33.1797 98.5266V102.309H41.0165V97.3189C41.0035 96.9194 40.8934 96.5291 40.6957 96.1819C40.498 95.8348 40.2187 95.5412 39.8821 95.3268C39.5455 95.1124 39.1618 94.9836 38.7643 94.9516C38.3667 94.9196 37.9674 94.9854 37.601 95.1432Z" fill="#664249"/>
<path d="M77.1628 100.682H74.3945V77.8471C74.4049 77.1883 74.5452 76.5381 74.8076 75.934C75.0699 75.3299 75.449 74.7838 75.923 74.3273C76.397 73.8708 76.9565 73.5129 77.5692 73.2742C78.182 73.0356 78.8358 72.9209 79.4929 72.9368H84.7905C85.4477 72.9209 86.1015 73.0356 86.7142 73.2742C87.3269 73.5129 87.8864 73.8708 88.3604 74.3273C88.8344 74.7838 89.2135 75.3299 89.4759 75.934C89.7382 76.5381 89.8786 77.1883 89.8889 77.8471V82.2185H87.1206V77.8471C87.1142 77.547 87.0488 77.251 86.9281 76.9762C86.8075 76.7014 86.6341 76.4531 86.4177 76.2455C86.2013 76.0379 85.9462 75.875 85.667 75.7662C85.3878 75.6575 85.09 75.6049 84.7905 75.6115H79.4929C79.1935 75.6049 78.8956 75.6575 78.6164 75.7662C78.3372 75.875 78.0821 76.0379 77.8658 76.2455C77.6494 76.4531 77.4759 76.7014 77.3553 76.9762C77.2347 77.251 77.1693 77.547 77.1628 77.8471V100.682Z" fill="#3F262C"/>
<path d="M64.4372 100.682H61.6689V77.8471C61.6793 77.1883 61.8197 76.5381 62.082 75.934C62.3443 75.3299 62.7234 74.7838 63.1974 74.3273C63.6714 73.8708 64.2309 73.5129 64.8436 73.2742C65.4564 73.0356 66.1102 72.9209 66.7674 72.9368H72.0649C72.7213 72.9222 73.374 73.0379 73.9856 73.2772C74.5971 73.5164 75.1555 73.8746 75.6284 74.3309C76.1013 74.7873 76.4795 75.3329 76.7412 75.9364C77.003 76.5398 77.143 77.1892 77.1534 77.8471V82.2185H74.3951V77.8471C74.3886 77.547 74.3232 77.251 74.2026 76.9762C74.0819 76.7014 73.9085 76.4531 73.6921 76.2455C73.4757 76.0379 73.2206 75.875 72.9414 75.7662C72.6622 75.6575 72.3644 75.6049 72.0649 75.6115H66.7674C66.4679 75.6049 66.17 75.6575 65.8908 75.7662C65.6116 75.875 65.3566 76.0379 65.1402 76.2455C64.9238 76.4531 64.7503 76.7014 64.6297 76.9762C64.5091 77.251 64.4437 77.547 64.4372 77.8471V100.682Z" fill="#3F262C"/>
<path d="M262.628 61.3096C262.628 53.9241 232.814 53.9241 232.814 61.3096V144.037H262.628V61.3096Z" fill="#FFF5E3"/>
<path d="M262.638 98.6464H232.814V102.209H262.638V98.6464Z" fill="#FB641B"/>
<path d="M262.638 86.4802H232.814V95.2829H262.638V86.4802Z" fill="#FB641B"/>
<path d="M247.721 131.242C253.611 131.242 258.385 126.644 258.385 120.972C258.385 115.301 253.611 110.703 247.721 110.703C241.83 110.703 237.056 115.301 237.056 120.972C237.056 126.644 241.83 131.242 247.721 131.242Z" fill="#FB641B"/>
<g style="mix-blend-mode:multiply" opacity="0.3">
<path d="M242.384 135.444V56.0999C237.076 56.7785 232.814 58.5151 232.814 61.3096V144.037H262.628V135.444H242.384Z" fill="#7A5353"/>
</g>
<path d="M265.048 137.63H224.38V144.756H265.048V137.63Z" fill="#664249"/>
<path d="M235.801 137.63H218.664V144.756H235.801V137.63Z" fill="#3F262C"/>
<path d="M141.64 0H126.663L125.647 88.1869H142.655L141.64 0Z" fill="#FB641B"/>
<path d="M141.71 5.55908H126.604L126.444 19.0825H141.859L141.71 5.55908Z" fill="#FFF5E3"/>
<path d="M141.919 24.432H126.385L126.335 28.3643H141.969L141.919 24.432Z" fill="#FFF5E3"/>
<path d="M142.257 53.3652H126.046L125.986 58.8644H142.317L142.257 53.3652Z" fill="#FFF5E3"/>
<g style="mix-blend-mode:multiply" opacity="0.7">
<path d="M132.011 82.3683L132.957 0H126.663L125.647 88.1869H142.655L142.586 82.3683H132.011Z" fill="#7A5353"/>
</g>
<path d="M100.793 70.5016H108.122C109.82 70.5095 111.446 71.1912 112.644 72.3976C113.842 73.604 114.515 75.2368 114.515 76.9389V94.0653H94.3701V76.9389C94.3701 75.2317 95.0468 73.5943 96.2513 72.387C97.4558 71.1798 99.0895 70.5016 100.793 70.5016Z" fill="#664249"/>
<path d="M102.038 84.6338V70.5015H98.4927C97.9601 70.491 97.4306 70.586 96.9348 70.7811C96.439 70.9763 95.9865 71.2677 95.6034 71.6387C95.2203 72.0097 94.9141 72.4529 94.7025 72.9428C94.4908 73.4328 94.3779 73.9598 94.3701 74.4937V94.0653H114.515V84.6338H102.038Z" fill="#3F262C"/>
<path d="M128.197 62.7069H140.147C141.85 62.7069 143.484 63.3851 144.688 64.5924C145.893 65.7996 146.57 67.437 146.57 69.1443V90.5423H121.765V69.1443C121.765 68.2981 121.931 67.4602 122.255 66.6785C122.578 65.8968 123.052 65.1867 123.649 64.5888C124.247 63.9909 124.956 63.517 125.736 63.1941C126.517 62.8711 127.353 62.7056 128.197 62.7069Z" fill="#664249"/>
<path d="M129.93 84.3543V62.7069H125.947C125.414 62.6963 124.884 62.7912 124.388 62.9862C123.891 63.1813 123.438 63.4726 123.054 63.8434C122.67 64.2143 122.363 64.6574 122.15 65.1474C121.938 65.6374 121.824 66.1647 121.814 66.699V90.5422H146.59V84.3543H129.93Z" fill="#3F262C"/>
<path d="M222.11 61.3096C222.11 53.9241 192.296 53.9241 192.296 61.3096V144.037H222.11V61.3096Z" fill="#FFF5E3"/>
<path d="M222.12 80.4021H192.296V89.2048H222.12V80.4021Z" fill="#95CBDB"/>
<g style="mix-blend-mode:multiply" opacity="0.3">
<path d="M219.172 57.8864V144.077H222.159V61.3096C222.109 59.8824 220.984 58.7147 219.172 57.8864Z" fill="#7A5353"/>
</g>
<g style="mix-blend-mode:multiply" opacity="0.3">
<path d="M202.901 133.348V55.9801C197.125 56.559 192.296 58.3355 192.296 61.3096V144.037H222.11V133.348H202.901Z" fill="#7A5353"/>
</g>
<path d="M25.4226 128.827H23.5306C22.4307 128.827 21.5391 129.721 21.5391 130.823V145.175C21.5391 146.277 22.4307 147.171 23.5306 147.171H25.4226C26.5225 147.171 27.4142 146.277 27.4142 145.175V130.823C27.4142 129.721 26.5225 128.827 25.4226 128.827Z" fill="#664249"/>
<path d="M29.157 140.384H12.0494C9.99259 140.384 8.3252 142.056 8.3252 144.117V154.996C8.3252 157.057 9.99259 158.728 12.0494 158.728H29.157C31.2138 158.728 32.8812 157.057 32.8812 154.996V144.117C32.8812 142.056 31.2138 140.384 29.157 140.384Z" fill="#664249"/>
<path d="M33.7873 142.131H17.5361V159.956H33.7873V142.131Z" fill="#C4B09D"/>
<path d="M19.9154 142.131H11.5508V159.956H19.9154V142.131Z" fill="#EDDCC0"/>
<path d="M22.7532 157.351H10.4951V161.124H22.7532V157.351Z" fill="#C4B09D"/>
<path d="M12.2975 142.131H7.30859V159.956H12.2975V142.131Z" fill="#C4B09D"/>
<path d="M269.35 142.131H199.476V159.956H269.35V142.131Z" fill="#C4B09D"/>
<path d="M242.493 149.896H238.6V155.555H242.493V149.896Z" fill="#6A5472"/>
<path d="M235.682 149.896H231.788V155.555H235.682V149.896Z" fill="#6A5472"/>
<path d="M260.607 149.896H254.473V159.956H260.607V149.896Z" fill="#6A5472"/>
<path d="M229.438 142.131H214.422V159.956H229.438V142.131Z" fill="#664249"/>
<path d="M215.468 96.271H134.81V159.966H215.468V96.271Z" fill="#C4B09D"/>
<path d="M166.774 95.1033H155.661V159.956H166.774V95.1033Z" fill="#664249"/>
<path d="M163.259 81.2705H82.6006V159.966H163.259V81.2705Z" fill="#FFF5E3"/>
<path d="M163.259 127.36H82.6006V144.896H163.259V127.36Z" fill="#C4B09D"/>
<path d="M108.68 81.2705H82.6006V159.966H108.68V81.2705Z" fill="#C4B09D"/>
<path d="M227.367 129.326H102.147V159.966H227.367V129.326Z" fill="#FFF5E3"/>
<path d="M227.367 130.374H102.147V135.324H227.367V130.374Z" fill="#EDDCC0"/>
<path d="M124.025 129.326H81.7041V159.966H124.025V129.326Z" fill="#C4B09D"/>
<path d="M103.472 150.185H30.999V160.595H103.472V150.185Z" fill="#48344C"/>
<path d="M63.8001 150.185H30.999V160.595H63.8001V150.185Z" fill="#312335"/>
<path d="M192.554 148.638H169.562V159.956H192.554V148.638Z" fill="#C4B09D"/>
<path d="M189.418 150.095H170.01V160.156H189.418V150.095Z" fill="#EDDCC0"/>
<path d="M218.774 152.101H214.044V159.966H218.774V152.101Z" fill="#C4B09D"/>
<path d="M212.131 152.101H207.401V159.966H212.131V152.101Z" fill="#C4B09D"/>
<path d="M204.713 152.101H199.983V155.245H204.713V152.101Z" fill="#C4B09D"/>
<path d="M157.084 148.638H134.092V159.956H157.084V148.638Z" fill="#C4B09D"/>
<path d="M154.207 150.375H134.54V159.966H154.207V150.375Z" fill="#EDDCC0"/>
<path d="M85.0696 93.247C85.0696 88.7757 45.2383 88.7757 45.2383 93.247V97.5385H85.0696V93.247Z" fill="#664249"/>
<path d="M228.353 128.677H102.646V133.238H228.353V128.677Z" fill="#FFC043"/>
<g style="mix-blend-mode:multiply" opacity="0.7">
<path d="M122.222 128.677H92.1992V133.238H122.222V128.677Z" fill="#7A5353"/>
</g>
<path d="M105.055 105.732C105.055 90.7619 30.1925 90.7619 30.1925 105.732L29.4258 155.465H105.105L105.055 105.732Z" fill="#95CBDB"/>
<path d="M51.562 153.259V95.4426C39.1247 96.9596 29.4258 100.433 29.4258 105.732V155.465H105.105V153.259H51.562Z" fill="#6D94A0"/>
<path d="M281 159.856H0V163H281V159.856Z" fill="#FB641B"/>
<g style="mix-blend-mode:overlay" opacity="0.7">
<path d="M105.055 112.789H29.4258V120.803H105.055V112.789Z" fill="#FFF5E3"/>
<path d="M105.055 128.677H29.4258V132.141H105.055V128.677Z" fill="#FFF5E3"/>
</g>
<g opacity="0.66">
<path d="M97.8955 136.013V137.73L97.2085 139.466H92.4088V141.013H96.2127C96.4422 140.998 96.6723 141.031 96.8885 141.109C97.1046 141.188 97.3019 141.312 97.4678 141.471C97.6337 141.631 97.7645 141.824 97.8519 142.037C97.9393 142.25 97.9813 142.479 97.9752 142.71V147.999C97.9797 148.229 97.9367 148.458 97.8488 148.67C97.7609 148.883 97.6301 149.075 97.4645 149.234C97.2989 149.394 97.1022 149.517 96.8868 149.597C96.6713 149.676 96.4418 149.71 96.2127 149.696H87.9775V146.303H93.6037V144.406H87.9775V136.033L97.8955 136.013Z" fill="#FFF5E3"/>
</g>
<path d="M126.604 93.6162V88.3865H116.466V93.6162H126.604Z" fill="#C4B09D"/>
<path d="M141.81 93.6162V88.3865H131.672V93.6162H141.81Z" fill="#C4B09D"/>
<path d="M157.722 93.6062V88.3765H147.585V93.6062H157.722Z" fill="#C4B09D"/>
<path d="M207.89 108.078H201.955V125.494H207.89V108.078Z" fill="#6A5472"/>
<path d="M194.117 108.078H188.183V125.494H194.117V108.078Z" fill="#6A5472"/>
<path d="M180.336 108.078H174.401V125.494H180.336V108.078Z" fill="#6A5472"/>
<path d="M157.722 98.9557H116.477V107.878H157.722V98.9557Z" fill="#C4B09D"/>
<path d="M72.2046 75.1126C72.1848 75.7797 72.364 76.4376 72.7194 77.002C73.0748 77.5665 73.5902 78.0118 74.1995 78.2809C74.8089 78.5501 75.4845 78.6309 76.14 78.513C76.7954 78.3951 77.4009 78.0839 77.8788 77.6191C78.3567 77.1544 78.6854 76.5572 78.8228 75.9042C78.9602 75.2511 78.9 74.5718 78.65 73.9532C78.3999 73.3346 77.9714 72.8049 77.4192 72.4318C76.867 72.0587 76.2164 71.8592 75.5504 71.8589C75.1172 71.851 74.6867 71.929 74.2837 72.0885C73.8807 72.248 73.5132 72.4858 73.2022 72.7881C72.8912 73.0905 72.643 73.4516 72.4718 73.8505C72.3006 74.2494 72.2098 74.6783 72.2046 75.1126Z" fill="#3F262C"/>
<path d="M75.5503 76.5496C76.3752 76.5496 77.044 75.9062 77.044 75.1125C77.044 74.3187 76.3752 73.6753 75.5503 73.6753C74.7254 73.6753 74.0566 74.3187 74.0566 75.1125C74.0566 75.9062 74.7254 76.5496 75.5503 76.5496Z" fill="#C4B09D"/>
</g>
<g clip-path="url(#clip1_1406_13854)">
<path d="M388.466 78.8352H373.815V86.3105H388.466V78.8352Z" fill="#664249"/>
<path d="M405.493 91.4105H394.341V98.8859H405.493V91.4105Z" fill="#664249"/>
<path d="M469.311 119.136H453.401V141.412H469.311V119.136Z" fill="#6A5472"/>
<path d="M424.931 93.187H413.778V98.8858H424.931V93.187Z" fill="#6A5472"/>
<path d="M342.746 25.6497H332.923L332.123 85.7517H343.535L342.746 25.6497Z" fill="#FB641B"/>
<path d="M342.826 31.9772H332.843L332.713 41.728H342.956L342.826 31.9772Z" fill="#FFF5E3"/>
<path d="M343.006 45.2911H332.663L332.603 49.6925H343.065L343.006 45.2911Z" fill="#FFF5E3"/>
<g style="mix-blend-mode:multiply" opacity="0.7">
<path d="M337.26 79.2544L337.969 25.6497H332.923L332.123 85.7517H343.535L343.455 79.2544H337.26Z" fill="#7A5353"/>
</g>
<path d="M438.102 45.9697H442.789C443.7 45.9697 444.575 46.3314 445.219 46.9753C445.864 47.6192 446.226 48.4924 446.226 49.403V50.8402H434.664V49.403C434.664 48.4924 435.026 47.6192 435.671 46.9753C436.316 46.3314 437.19 45.9697 438.102 45.9697Z" fill="#FB641B"/>
<path d="M479.264 45.9697H483.95C484.862 45.9697 485.737 46.3314 486.381 46.9753C487.026 47.6192 487.388 48.4924 487.388 49.403V50.8402H475.836V49.403C475.836 48.4942 476.197 47.6224 476.839 46.9788C477.482 46.3353 478.354 45.9724 479.264 45.9697Z" fill="#FB641B"/>
<path d="M464.974 157.471H463.055V54.1437C463.009 53.1621 463.354 52.2022 464.015 51.4744C464.677 50.7467 465.6 50.3105 466.583 50.2614H473.578C474.561 50.3105 475.484 50.7467 476.145 51.4744C476.806 52.2022 477.152 53.1621 477.105 54.1437V59.9922H475.177V54.1437C475.212 53.6708 475.067 53.202 474.77 52.8317C474.474 52.4614 474.048 52.217 473.578 52.1476H466.583C466.112 52.2169 465.685 52.4609 465.387 52.831C465.088 53.201 464.941 53.6698 464.974 54.1437V157.471Z" fill="#6A5472"/>
<path d="M423.162 105.164H421.243V53.6447C421.252 53.1912 421.351 52.7439 421.533 52.3284C421.715 51.9129 421.978 51.5373 422.305 51.2232C422.633 50.909 423.019 50.6623 423.442 50.4973C423.865 50.3322 424.317 50.2521 424.771 50.2613H429.568C430.022 50.2521 430.473 50.3322 430.896 50.4973C431.319 50.6623 431.706 50.909 432.033 51.2232C432.361 51.5373 432.623 51.9129 432.805 52.3284C432.988 52.7439 433.086 53.1912 433.095 53.6447V58.5251H431.176V53.6447C431.166 53.2282 430.991 52.8328 430.689 52.5448C430.388 52.2568 429.985 52.0997 429.568 52.1077H424.771C424.354 52.0997 423.95 52.2568 423.649 52.5448C423.347 52.8328 423.172 53.2282 423.162 53.6447V105.164Z" fill="#6A5472"/>
<path d="M474.267 48.4848H488.937C489.578 48.4822 490.213 48.6059 490.806 48.849C491.399 49.0921 491.937 49.4497 492.391 49.9013C492.845 50.3529 493.206 50.8896 493.452 51.4806C493.697 52.0716 493.824 52.7053 493.824 53.3452V59.4133H469.4V53.3452C469.4 52.0562 469.913 50.8199 470.826 49.9084C471.739 48.9969 472.976 48.4848 474.267 48.4848Z" fill="#6A5472"/>
<path d="M434.574 49.1135H447.306C448.845 49.1135 450.322 49.7207 451.415 50.803C452.508 51.8853 453.129 53.355 453.142 54.8922V58.9742H428.738V54.8922C428.751 53.355 429.372 51.8853 430.465 50.803C431.558 49.7207 433.035 49.1135 434.574 49.1135Z" fill="#6A5472"/>
<path d="M258.842 158.688H256.284V95.233C256.351 94.0512 256.882 92.9434 257.761 92.1496C258.64 91.3557 259.797 90.9395 260.981 90.9913H265.898C267.085 90.9341 268.247 91.3478 269.131 92.1423C270.014 92.9367 270.547 94.0476 270.615 95.233V98.9058H268.076V95.233C268.021 94.7137 267.763 94.2369 267.36 93.9048C266.956 93.5727 266.439 93.4117 265.918 93.4565H260.981C260.46 93.4117 259.942 93.5727 259.539 93.9048C259.135 94.2369 258.878 94.7137 258.822 95.233L258.842 158.688Z" fill="#C4B09D"/>
<path d="M270.735 95.1432L267.787 96.3508C267.351 96.5251 266.976 96.825 266.711 97.2124C266.446 97.5998 266.302 98.0573 266.298 98.5266V102.309H274.163V97.3189C274.15 96.9194 274.039 96.5291 273.841 96.1819C273.642 95.8348 273.362 95.5412 273.024 95.3268C272.686 95.1124 272.301 94.9836 271.902 94.9516C271.503 94.9196 271.103 94.9854 270.735 95.1432Z" fill="#664249"/>
<path d="M310.438 100.682H307.66V77.8471C307.671 77.1883 307.811 76.5381 308.075 75.934C308.338 75.3299 308.718 74.7838 309.194 74.3273C309.67 73.8708 310.231 73.5129 310.846 73.2742C311.461 73.0356 312.117 72.9209 312.777 72.9368H318.093C318.753 72.9209 319.409 73.0356 320.024 73.2742C320.639 73.5129 321.2 73.8708 321.676 74.3273C322.151 74.7838 322.532 75.3299 322.795 75.934C323.058 76.5381 323.199 77.1883 323.21 77.8471V82.2185H320.432V77.8471C320.425 77.547 320.359 77.251 320.238 76.9762C320.117 76.7014 319.943 76.4531 319.726 76.2455C319.509 76.0379 319.253 75.875 318.973 75.7662C318.693 75.6575 318.394 75.6049 318.093 75.6115H312.777C312.476 75.6049 312.177 75.6575 311.897 75.7662C311.617 75.875 311.361 76.0379 311.144 76.2455C310.927 76.4531 310.753 76.7014 310.631 76.9762C310.51 77.251 310.445 77.547 310.438 77.8471V100.682Z" fill="#3F262C"/>
<path d="M297.667 100.682H294.889V77.8471C294.899 77.1883 295.04 76.5381 295.303 75.934C295.566 75.3299 295.947 74.7838 296.423 74.3273C296.898 73.8708 297.46 73.5129 298.075 73.2742C298.69 73.0356 299.346 72.9209 300.005 72.9368H305.322C305.98 72.9222 306.635 73.0379 307.249 73.2772C307.863 73.5164 308.423 73.8746 308.898 74.3309C309.372 74.7873 309.752 75.3329 310.015 75.9364C310.277 76.5398 310.418 77.1892 310.428 77.8471V82.2185H307.66V77.8471C307.654 77.547 307.588 77.251 307.467 76.9762C307.346 76.7014 307.172 76.4531 306.955 76.2455C306.737 76.0379 306.481 75.875 306.201 75.7662C305.921 75.6575 305.622 75.6049 305.322 75.6115H300.005C299.705 75.6049 299.406 75.6575 299.126 75.7662C298.845 75.875 298.589 76.0379 298.372 76.2455C298.155 76.4531 297.981 76.7014 297.86 76.9762C297.739 77.251 297.673 77.547 297.667 77.8471V100.682Z" fill="#3F262C"/>
<path d="M496.562 61.3096C496.562 53.9241 466.643 53.9241 466.643 61.3096V144.037H496.562V61.3096Z" fill="#FFF5E3"/>
<path d="M496.572 98.6464H466.643V102.209H496.572V98.6464Z" fill="#FB641B"/>
<path d="M496.572 86.4802H466.643V95.2829H496.572V86.4802Z" fill="#FB641B"/>
<path d="M481.602 131.242C487.513 131.242 492.305 126.644 492.305 120.972C492.305 115.301 487.513 110.703 481.602 110.703C475.691 110.703 470.899 115.301 470.899 120.972C470.899 126.644 475.691 131.242 481.602 131.242Z" fill="#FB641B"/>
<g style="mix-blend-mode:multiply" opacity="0.3">
<path d="M476.246 135.444V56.0999C470.92 56.7785 466.643 58.5151 466.643 61.3096V144.037H496.562V135.444H476.246Z" fill="#7A5353"/>
</g>
<path d="M498.991 137.63H458.179V144.756H498.991V137.63Z" fill="#664249"/>
<path d="M469.641 137.63H452.442V144.756H469.641V137.63Z" fill="#3F262C"/>
<path d="M375.144 0H360.114L359.095 88.1869H376.163L375.144 0Z" fill="#FB641B"/>
<path d="M375.214 5.55908H360.054L359.895 19.0825H375.364L375.214 5.55908Z" fill="#FFF5E3"/>
<path d="M375.424 24.432H359.834L359.784 28.3643H375.474L375.424 24.432Z" fill="#FFF5E3"/>
<path d="M375.764 53.3652H359.495L359.435 58.8644H375.824L375.764 53.3652Z" fill="#FFF5E3"/>
<g style="mix-blend-mode:multiply" opacity="0.7">
<path d="M365.48 82.3683L366.43 0H360.114L359.095 88.1869H376.163L376.093 82.3683H365.48Z" fill="#7A5353"/>
</g>
<path d="M334.152 70.5016H341.507C343.211 70.5095 344.843 71.1912 346.045 72.3976C347.247 73.604 347.922 75.2368 347.922 76.9389V94.0653H327.706V76.9389C327.706 75.2317 328.385 73.5943 329.594 72.387C330.803 71.1798 332.442 70.5016 334.152 70.5016Z" fill="#664249"/>
<path d="M335.401 84.6338V70.5015H331.843C331.309 70.491 330.777 70.586 330.28 70.7811C329.782 70.9763 329.328 71.2677 328.944 71.6387C328.559 72.0097 328.252 72.4529 328.04 72.9428C327.827 73.4328 327.714 73.9598 327.706 74.4937V94.0653H347.922V84.6338H335.401Z" fill="#3F262C"/>
<path d="M361.653 62.7069H373.645C375.354 62.7069 376.994 63.3851 378.203 64.5924C379.411 65.7996 380.09 67.437 380.09 69.1443V90.5423H355.197V69.1443C355.197 68.2981 355.364 67.4602 355.689 66.6785C356.013 65.8968 356.489 65.1867 357.089 64.5888C357.688 63.9909 358.4 63.517 359.183 63.1941C359.966 62.8711 360.806 62.7056 361.653 62.7069Z" fill="#664249"/>
<path d="M363.393 84.3543V62.7069H359.395C358.86 62.6963 358.328 62.7912 357.83 62.9862C357.332 63.1813 356.877 63.4726 356.492 63.8434C356.107 64.2143 355.799 64.6574 355.585 65.1474C355.372 65.6374 355.257 66.1647 355.248 66.699V90.5422H380.111V84.3543H363.393Z" fill="#3F262C"/>
<path d="M455.9 61.3096C455.9 53.9241 425.98 53.9241 425.98 61.3096V144.037H455.9V61.3096Z" fill="#FFF5E3"/>
<path d="M455.91 80.4021H425.98V89.2048H455.91V80.4021Z" fill="#95CBDB"/>
<g style="mix-blend-mode:multiply" opacity="0.3">
<path d="M452.952 57.8864V144.077H455.95V61.3096C455.9 59.8824 454.771 58.7147 452.952 57.8864Z" fill="#7A5353"/>
</g>
<g style="mix-blend-mode:multiply" opacity="0.3">
<path d="M436.623 133.348V55.9801C430.827 56.559 425.98 58.3355 425.98 61.3096V144.037H455.9V133.348H436.623Z" fill="#7A5353"/>
</g>
<path d="M258.513 128.827H256.614C255.51 128.827 254.615 129.721 254.615 130.823V145.175C254.615 146.277 255.51 147.171 256.614 147.171H258.513C259.616 147.171 260.511 146.277 260.511 145.175V130.823C260.511 129.721 259.616 128.827 258.513 128.827Z" fill="#664249"/>
<path d="M262.26 140.384H245.092C243.028 140.384 241.354 142.056 241.354 144.117V154.996C241.354 157.057 243.028 158.728 245.092 158.728H262.26C264.325 158.728 265.998 157.057 265.998 154.996V144.117C265.998 142.056 264.325 140.384 262.26 140.384Z" fill="#664249"/>
<path d="M266.907 142.131H250.598V159.956H266.907V142.131Z" fill="#C4B09D"/>
<path d="M252.986 142.131H244.592V159.956H252.986V142.131Z" fill="#EDDCC0"/>
<path d="M255.835 157.351H243.533V161.124H255.835V157.351Z" fill="#C4B09D"/>
<path d="M245.342 142.131H240.335V159.956H245.342V142.131Z" fill="#C4B09D"/>
<path d="M503.308 142.131H433.186V159.956H503.308V142.131Z" fill="#C4B09D"/>
<path d="M476.356 149.896H472.448V155.555H476.356V149.896Z" fill="#6A5472"/>
<path d="M469.521 149.896H465.613V155.555H469.521V149.896Z" fill="#6A5472"/>
<path d="M494.534 149.896H488.378V159.956H494.534V149.896Z" fill="#6A5472"/>
<path d="M463.254 142.131H448.185V159.956H463.254V142.131Z" fill="#664249"/>
<path d="M449.235 96.271H368.289V159.966H449.235V96.271Z" fill="#C4B09D"/>
<path d="M400.367 95.1033H389.215V159.956H400.367V95.1033Z" fill="#664249"/>
<path d="M396.84 81.2705H315.895V159.966H396.84V81.2705Z" fill="#FFF5E3"/>
<path d="M396.84 127.36H315.895V144.896H396.84V127.36Z" fill="#C4B09D"/>
<path d="M342.067 81.2705H315.895V159.966H342.067V81.2705Z" fill="#C4B09D"/>
<path d="M461.176 129.326H335.511V159.966H461.176V129.326Z" fill="#FFF5E3"/>
<path d="M461.176 130.374H335.511V135.324H461.176V130.374Z" fill="#EDDCC0"/>
<path d="M357.467 129.326H314.995V159.966H357.467V129.326Z" fill="#C4B09D"/>
<path d="M336.84 150.185H264.109V160.595H336.84V150.185Z" fill="#48344C"/>
<path d="M297.027 150.185H264.109V160.595H297.027V150.185Z" fill="#312335"/>
<path d="M426.239 148.638H403.165V159.956H426.239V148.638Z" fill="#C4B09D"/>
<path d="M423.092 150.095H403.615V160.156H423.092V150.095Z" fill="#EDDCC0"/>
<path d="M452.552 152.101H447.806V159.966H452.552V152.101Z" fill="#C4B09D"/>
<path d="M445.886 152.101H441.14V159.966H445.886V152.101Z" fill="#C4B09D"/>
<path d="M438.441 152.101H433.694V155.245H438.441V152.101Z" fill="#C4B09D"/>
<path d="M390.644 148.638H367.569V159.956H390.644V148.638Z" fill="#C4B09D"/>
<path d="M387.755 150.375H368.019V159.966H387.755V150.375Z" fill="#EDDCC0"/>
<path d="M318.372 93.247C318.372 88.7757 278.399 88.7757 278.399 93.247V97.5385H318.372V93.247Z" fill="#664249"/>
<path d="M462.166 128.677H336.011V133.238H462.166V128.677Z" fill="#FFC043"/>
<g style="mix-blend-mode:multiply" opacity="0.7">
<path d="M355.657 128.677H325.527V133.238H355.657V128.677Z" fill="#7A5353"/>
</g>
<path d="M338.429 105.732C338.429 90.7619 263.3 90.7619 263.3 105.732L262.53 155.465H338.479L338.429 105.732Z" fill="#95CBDB"/>
<path d="M284.745 153.259V95.4426C272.264 96.9596 262.53 100.433 262.53 105.732V155.465H338.479V153.259H284.745Z" fill="#6D94A0"/>
<path d="M515 159.856H233V163H515V159.856Z" fill="#FB641B"/>
<g style="mix-blend-mode:overlay" opacity="0.7">
<path d="M338.429 112.789H262.53V120.803H338.429V112.789Z" fill="#FFF5E3"/>
<path d="M338.429 128.677H262.53V132.141H338.429V128.677Z" fill="#FFF5E3"/>
</g>
<g opacity="0.66">
<path d="M331.243 136.013V137.73L330.554 139.466H325.737V141.013H329.554C329.785 140.998 330.016 141.031 330.233 141.109C330.45 141.188 330.648 141.312 330.814 141.471C330.981 141.631 331.112 141.824 331.2 142.037C331.287 142.25 331.329 142.479 331.323 142.71V147.999C331.328 148.229 331.285 148.458 331.196 148.67C331.108 148.883 330.977 149.075 330.811 149.234C330.645 149.394 330.447 149.517 330.231 149.597C330.015 149.676 329.784 149.71 329.554 149.696H321.29V146.303H326.936V144.406H321.29V136.033L331.243 136.013Z" fill="#FFF5E3"/>
</g>
<path d="M360.055 93.6162V88.3865H349.882V93.6162H360.055Z" fill="#C4B09D"/>
<path d="M375.314 93.6162V88.3865H365.141V93.6162H375.314Z" fill="#C4B09D"/>
<path d="M391.283 93.6062V88.3765H381.11V93.6062H391.283Z" fill="#C4B09D"/>
<path d="M441.63 108.078H435.674V125.494H441.63V108.078Z" fill="#6A5472"/>
<path d="M427.809 108.078H421.853V125.494H427.809V108.078Z" fill="#6A5472"/>
<path d="M413.978 108.078H408.022V125.494H413.978V108.078Z" fill="#6A5472"/>
<path d="M391.284 98.9557H349.892V107.878H391.284V98.9557Z" fill="#C4B09D"/>
<path d="M305.461 75.1126C305.442 75.7797 305.621 76.4376 305.978 77.002C306.335 77.5665 306.852 78.0118 307.463 78.2809C308.075 78.5501 308.753 78.6309 309.411 78.513C310.069 78.3951 310.676 78.0839 311.156 77.6191C311.635 77.1544 311.965 76.5572 312.103 75.9042C312.241 75.2511 312.181 74.5718 311.93 73.9532C311.679 73.3346 311.249 72.8049 310.695 72.4318C310.14 72.0587 309.487 71.8592 308.819 71.8589C308.384 71.851 307.952 71.929 307.548 72.0885C307.144 72.248 306.775 72.4858 306.463 72.7881C306.151 73.0905 305.901 73.4516 305.73 73.8505C305.558 74.2494 305.467 74.6783 305.461 75.1126Z" fill="#3F262C"/>
<path d="M308.819 76.5496C309.647 76.5496 310.318 75.9062 310.318 75.1125C310.318 74.3187 309.647 73.6753 308.819 73.6753C307.991 73.6753 307.32 74.3187 307.32 75.1125C307.32 75.9062 307.991 76.5496 308.819 76.5496Z" fill="#C4B09D"/>
</g>
<defs>
<clipPath id="clip0_1406_13854">
<rect width="281" height="163" fill="white"/>
</clipPath>
<clipPath id="clip1_1406_13854">
<rect width="282" height="163" fill="white" transform="translate(233)"/>
</clipPath>
</defs>
</svg>
