<svg width="119" height="85" viewBox="0 0 119 85" fill="none" xmlns="http://www.w3.org/2000/svg">
<path d="M108.294 11.5748C79.7712 -7.94981 67.4827 14.1212 43.6802 7.94479C16.1976 0.812591 -1.20109 12.5801 0.0647236 41.6955C1.81233 81.8945 81.7636 93.6481 106.761 70.5491C123.72 54.8772 121.928 20.9077 108.294 11.5748Z" fill="#FFDDCC"/>
<path d="M94.5939 60.0017L91.988 60.6231L56.9292 21.4729C56.4179 20.902 55.593 20.7329 54.8981 21.0568L30.062 32.6439L27.3686 30.3693C26.2715 30.8915 24.2364 33.2462 26.7172 36.5257C26.7172 36.5257 52.3456 70.2612 61.5211 82.5258C63.6936 85.4301 68.0928 85.6097 70.3609 83.936C77.1326 78.9397 94.337 66.0881 94.337 66.0881C96.5859 64.4135 95.6441 61.2166 94.5939 60.0017Z" fill="#4F5358"/>
<path d="M94.3353 62.5572C94.3353 62.5572 75.99 76.559 69.32 80.8312C67.5272 81.9796 64.1985 82.0871 61.973 79.315C52.3901 67.3778 26.716 32.9948 26.716 32.9948C26.0481 32.1117 26.3638 30.8376 27.3674 30.3697L53.9503 17.9677C55.207 17.3816 56.6989 17.6873 57.6242 18.72L94.5923 60.0017C95.2741 60.7635 95.1554 61.9467 94.3353 62.5572Z" fill="#696F77"/>
<path d="M84.087 72.7703L81.0466 75.0049C80.7744 75.2049 80.3917 75.1462 80.1917 74.874L80.183 74.8627C79.9834 74.591 80.0417 74.2083 80.3139 74.0083L83.3547 71.7736C83.6269 71.5736 84.0096 71.6323 84.2096 71.9045L84.2179 71.9154C84.4179 72.1876 84.3592 72.5703 84.087 72.7703Z" fill="#25292B"/>
<path d="M91.0446 61.5788C91.0446 61.5788 74.5726 74.0673 68.5418 78.0113C66.098 79.6071 64.3839 79.7898 61.8579 76.6281C61.1926 75.7932 60.436 74.8413 59.6098 73.7842C49.6564 61.0653 29.3713 33.9145 29.3713 33.9145C28.7629 33.11 29.0499 31.9534 29.9631 31.5272L54.1396 20.2476C55.2836 19.7127 56.6399 19.991 57.4835 20.9303L87.9134 55.0171L91.5264 59.0654C92.4874 60.0786 92.1835 60.6826 91.0446 61.5788Z" fill="#E1E9EC"/>
<path d="M43.8176 24.3355C44.5389 24.9604 44.6768 25.9827 44.1259 26.6184C43.5749 27.2546 42.543 27.2633 41.8217 26.638C41.1003 26.0131 40.9624 24.9908 41.5134 24.3551C42.0643 23.7193 43.0962 23.7106 43.8176 24.3355Z" fill="#696F77"/>
<path d="M43.1538 25.1008C43.3956 25.3104 43.4416 25.653 43.2573 25.8661C43.0725 26.0792 42.7268 26.0822 42.485 25.8726C42.2432 25.663 42.1971 25.3204 42.3815 25.1073C42.5663 24.8942 42.912 24.8916 43.1538 25.1008Z" fill="#4F5358"/>
<path d="M57.9721 26.2657L42.5098 33.5936L43.5421 34.8877L59.0875 27.5198L57.9721 26.2657Z" fill="#0E2F56"/>
<path d="M57.0367 29.6495L44.2168 35.8151L45.2487 37.1092L58.1516 30.9036L57.0367 29.6495Z" fill="#0E2F56"/>
<path d="M42.7643 37.429C42.7643 38.9205 41.3337 40.1298 39.57 40.1298C37.8063 40.1298 36.377 38.9205 36.377 37.429C36.377 35.9371 37.8063 34.7282 39.57 34.7282C41.3337 34.7282 42.7643 35.9371 42.7643 37.429Z" fill="#C9D9DD"/>
<path d="M39.4172 37.0902C39.0298 37.2789 38.5045 37.108 38.2988 36.7493L38.1766 36.5362C37.9844 36.2005 38.101 35.7726 38.4367 35.5804L38.521 35.5317C38.9106 35.3622 39.3298 35.5257 39.522 35.8613L39.6442 36.0749C39.8499 36.4336 39.799 36.8819 39.4172 37.0902Z" fill="white"/>
<path d="M41.6438 38.3633L39.477 39.3682C39.3848 39.4208 39.2674 39.3891 39.2148 39.2969L38.9804 38.8873C38.6648 38.3363 38.9222 37.5306 39.6014 37.2414L39.681 37.1958C40.4363 36.9057 41.1986 37.2114 41.4808 37.6919L41.7151 38.1011C41.7678 38.1933 41.736 38.3107 41.6438 38.3633Z" fill="white"/>
<path d="M64.6144 33.3692L49.5869 41.1323L50.6188 42.426L65.7294 34.6233L64.6144 33.3692Z" fill="#0E2F56"/>
<path d="M63.678 36.7532L51.293 43.3536L52.3248 44.6472L64.7929 38.0072L63.678 36.7532Z" fill="#0E2F56"/>
<path d="M49.8404 44.9671C49.8404 46.459 48.4103 47.6683 46.6466 47.6683C44.8829 47.6683 43.4531 46.459 43.4531 44.9671C43.4531 43.4752 44.8829 42.2659 46.6466 42.2659C48.4103 42.2659 49.8404 43.4752 49.8404 44.9671Z" fill="#C9D9DD"/>
<path d="M46.4925 44.6275C46.1051 44.8163 45.5794 44.6467 45.3741 44.2879L45.2519 44.0744C45.0597 43.7387 45.1758 43.3109 45.5115 43.1182L45.5959 43.0695C45.9855 42.8999 46.4051 43.0634 46.5973 43.3991L46.7195 43.6131C46.9252 43.9718 46.8743 44.4193 46.4925 44.6275Z" fill="white"/>
<path d="M48.719 45.902L46.5522 46.907C46.46 46.9596 46.3426 46.9274 46.29 46.8352L46.0556 46.426C45.74 45.8751 45.9974 45.0693 46.6766 44.7802L46.7562 44.7345C47.5115 44.4445 48.2737 44.7502 48.556 45.2307L48.7903 45.6398C48.8429 45.732 48.8112 45.8494 48.719 45.902Z" fill="white"/>
<path d="M70.334 40.3674L55.8213 48.648L56.8532 49.9425L71.4485 41.6214L70.334 40.3674Z" fill="#0E2F56"/>
<path d="M69.4805 43.8344L57.5303 50.8696L58.5621 52.1633L70.5954 45.0885L69.4805 43.8344Z" fill="#0E2F56"/>
<path d="M56.3424 52.7476C56.3424 54.2396 54.9127 55.4493 53.149 55.4493C51.3848 55.4493 49.9551 54.2396 49.9551 52.7476C49.9551 51.2562 51.3848 50.0469 53.149 50.0469C54.9127 50.0469 56.3424 51.2562 56.3424 52.7476Z" fill="#0E2F56"/>
<path d="M52.9855 52.4207C52.6094 52.6307 52.0754 52.4903 51.8497 52.1437L51.7158 51.9376C51.5049 51.6132 51.5971 51.1797 51.9215 50.9688L52.0032 50.9157C52.3824 50.7244 52.8103 50.864 53.0212 51.1884L53.1551 51.3945C53.3808 51.7415 53.3551 52.1911 52.9855 52.4207Z" fill="white"/>
<path d="M55.2833 53.5674L53.1765 54.6918C53.0873 54.7501 52.9686 54.7245 52.9103 54.6358L52.6538 54.2405C52.3077 53.7078 52.519 52.889 53.1808 52.562L53.2578 52.512C53.9957 52.1802 54.7736 52.442 55.0828 52.906L55.3398 53.3017C55.3976 53.3908 55.3724 53.5095 55.2833 53.5674Z" fill="white"/>
<path d="M76.7517 48.4772L62.6738 57.1927L63.7057 58.4872L77.8662 49.7313L76.7517 48.4772Z" fill="#0E2F56"/>
<path d="M75.8991 51.9442L64.3838 59.4142L65.4161 60.7079L77.0141 53.1982L75.8991 51.9442Z" fill="#0E2F56"/>
<path d="M63.194 61.2926C63.194 62.7846 61.7638 63.9943 60.0001 63.9943C58.2364 63.9943 56.8066 62.7846 56.8066 61.2926C56.8066 59.8011 58.2364 58.5919 60.0001 58.5919C61.7638 58.5919 63.194 59.8011 63.194 61.2926Z" fill="#0E2F56"/>
<path d="M91.0461 61.5788C91.0461 61.5788 74.5741 74.0674 68.5433 78.0113C66.0995 79.6072 64.3858 79.7898 61.8599 76.6281C61.1946 75.7932 60.4375 74.8414 59.6113 73.7843L87.9153 55.0172L91.5284 59.0655C92.4893 60.0787 92.185 60.6826 91.0461 61.5788Z" fill="#0E2F56"/>
<path d="M70.7325 74.3744C69.8355 75.034 68.4688 74.6996 67.6808 73.6277C66.8929 72.5554 66.9821 71.1522 67.8796 70.4921C68.7771 69.8329 70.1438 70.1669 70.9317 71.2388C71.7196 72.3111 71.63 73.7147 70.7325 74.3744Z" fill="white"/>
<path d="M78.7742 68.7358C77.8914 69.3846 76.5482 69.0558 75.7738 68.0022C74.9985 66.9478 75.0863 65.5676 75.969 64.9188C76.8513 64.27 78.195 64.5988 78.9694 65.6528C79.7443 66.7073 79.6564 68.0875 78.7742 68.7358Z" fill="white"/>
<path d="M86.2644 63.4134C85.4239 64.0309 84.145 63.7182 83.4075 62.7146C82.6696 61.7106 82.7531 60.3965 83.5932 59.7791C84.4337 59.1616 85.713 59.4738 86.4509 60.4778C87.1884 61.4814 87.1049 62.796 86.2644 63.4134Z" fill="white"/>
<path d="M58.4135 62.3011C57.7743 61.2945 57.9665 60.0274 58.8427 59.4703C59.7194 58.9138 60.9486 59.2786 61.5874 60.2852C62.2271 61.2919 62.0349 62.5594 61.1582 63.116C60.2816 63.6726 59.0528 63.3078 58.4135 62.3011Z" fill="#B5C1C4"/>
<path d="M58.6777 61.197C58.6282 61.1188 58.6429 61.0205 58.7112 60.9775C58.779 60.9344 58.8743 60.9627 58.9238 61.0409C58.9734 61.1183 58.9586 61.2171 58.8904 61.2601C58.8225 61.3031 58.7273 61.2749 58.6777 61.197Z" fill="#0E2F56"/>
<path d="M60.2967 60.1691C60.2472 60.0913 60.2624 59.993 60.3302 59.95C60.3981 59.9065 60.4933 59.9356 60.5429 60.0135C60.5924 60.0913 60.5776 60.19 60.5094 60.2331C60.4415 60.2761 60.3463 60.2474 60.2967 60.1691Z" fill="#0E2F56"/>
<path d="M61.1348 60.1961C61.4366 60.6718 61.561 61.1967 61.5171 61.658C61.4744 62.1107 61.2705 62.5025 60.9148 62.7286C60.5587 62.9547 60.1173 62.973 59.6899 62.8186C59.2533 62.6625 58.8315 62.3268 58.5293 61.8511L61.1348 60.1961Z" fill="white"/>
<path d="M61.5166 61.6579C61.474 62.1105 61.2705 62.5019 60.9144 62.7284C60.5583 62.9541 60.1169 62.9724 59.6895 62.8185C59.7577 62.3806 59.9686 62.0092 60.3169 61.7879C60.6652 61.5666 61.0918 61.534 61.5166 61.6579Z" fill="#0E2F56"/>
<path d="M17.838 35.7563L52.3723 32.3354C54.0238 32.1719 55.4957 33.3781 55.6592 35.0296L56.6755 45.2918C56.8394 46.9433 55.6327 48.4144 53.9812 48.5779L27.6714 51.1838L23.086 51.6387L19.4469 51.9992C17.7954 52.1627 16.3239 50.9564 16.1604 49.3049L15.1437 39.0432C14.9802 37.3912 16.1865 35.9198 17.838 35.7563Z" fill="#FF732F"/>
<path d="M46.0966 40.6643L33.8851 41.8736C33.4764 41.9145 33.1115 41.6157 33.0711 41.2065L32.9246 39.7268C32.8841 39.3176 33.1829 38.9528 33.592 38.9128L45.8031 37.7026C46.2123 37.6626 46.5767 37.9614 46.6176 38.3705L46.7637 39.8499C46.8041 40.259 46.5058 40.6234 46.0966 40.6643Z" fill="#FFF0E6"/>
<path d="M39.585 45.0735L33.8477 45.6423C33.6625 45.6605 33.4977 45.5253 33.4794 45.3401L33.3859 44.3943C33.3625 44.1586 33.5342 43.9495 33.7699 43.926L39.4158 43.3668C39.6006 43.3481 39.7659 43.4837 39.7841 43.6686L39.8867 44.7056C39.905 44.8904 39.7698 45.0552 39.585 45.0735Z" fill="#FFF0E6"/>
<path d="M48.1202 44.2277L42.7135 44.7639C42.4547 44.7896 42.2243 44.6 42.1986 44.3412L42.1225 43.572C42.0964 43.3133 42.2856 43.0824 42.5443 43.0572L47.9511 42.521C48.2102 42.4954 48.4407 42.6845 48.4659 42.9437L48.5425 43.7129C48.5681 43.9716 48.379 44.2021 48.1202 44.2277Z" fill="#FFF0E6"/>
<path d="M52.1939 43.8247L51.4086 43.903C51.1542 43.9277 50.9273 43.7421 50.902 43.4877L50.8246 42.7019C50.799 42.4476 50.9851 42.221 51.2395 42.1958L52.0248 42.118C52.2796 42.0927 52.5061 42.2784 52.5314 42.5328L52.6092 43.3185C52.6344 43.5729 52.4483 43.7995 52.1939 43.8247Z" fill="#FFF0E6"/>
<path d="M17.7354 43.4372C17.7354 39.702 20.7636 36.6738 24.4988 36.6738C28.2345 36.6738 31.2623 39.702 31.2623 43.4372C31.2623 47.1729 28.2345 50.2011 24.4988 50.2011C20.7636 50.2011 17.7354 47.1729 17.7354 43.4372Z" fill="white"/>
<path d="M28.2202 41.3239L28.2793 42.3118L28.3541 43.6063C28.5641 45.7262 27.0826 47.6086 25.0493 47.8103L24.8954 47.8251C22.8599 48.0269 21.0401 46.4715 20.8301 44.3517L20.6497 43.068L20.5114 42.0875C20.2335 40.0911 21.605 38.2705 23.53 38.0796L24.4762 37.9856C26.3991 37.7952 28.1032 39.3115 28.2202 41.3239Z" fill="#FFC8A0"/>
<path d="M25.708 41.9801C25.8011 41.6944 26.2959 41.4765 26.6277 41.9431" stroke="#009BFF" stroke-width="0.555" stroke-linecap="round" stroke-linejoin="round"/>
<path d="M25.8944 43.1938C25.8718 42.9681 25.9871 42.772 26.1514 42.7559C26.3158 42.7393 26.4671 42.9094 26.4897 43.1346C26.5119 43.3603 26.3967 43.5564 26.2323 43.5725C26.0679 43.5886 25.9166 43.4194 25.8944 43.1938Z" fill="#4E4D5F"/>
<path d="M25.8944 43.1938C25.8718 42.9681 25.9871 42.772 26.1514 42.7559C26.3158 42.7393 26.4671 42.9094 26.4897 43.1346C26.5119 43.3603 26.3967 43.5564 26.2323 43.5725C26.0679 43.5886 25.9166 43.4194 25.8944 43.1938Z" stroke="#4E4D5F" stroke-width="0.555" stroke-miterlimit="10"/>
<path d="M23.104 42.2383C22.9566 41.9757 22.4283 41.8596 22.1943 42.3822" stroke="#4E4D5F" stroke-width="0.721" stroke-linecap="round" stroke-linejoin="round"/>
<path d="M23.1605 43.4646C23.1383 43.2389 22.987 43.0698 22.8227 43.0863C22.6583 43.1024 22.5431 43.2985 22.5652 43.5242C22.5878 43.7494 22.7392 43.919 22.9035 43.9029C23.0679 43.8869 23.1831 43.6903 23.1605 43.4646Z" fill="#4E4D5F"/>
<path d="M23.1605 43.4646C23.1383 43.2389 22.987 43.0698 22.8227 43.0863C22.6583 43.1024 22.5431 43.2985 22.5652 43.5242C22.5878 43.7494 22.7392 43.919 22.9035 43.9029C23.0679 43.8869 23.1831 43.6903 23.1605 43.4646Z" stroke="#4E4D5F" stroke-width="0.555" stroke-miterlimit="10"/>
<path d="M24.5148 44.0711L24.2335 44.6917C24.2021 44.7617 24.2582 44.8395 24.3348 44.8321L25.0122 44.7651C25.0888 44.7573 25.1283 44.6699 25.0836 44.6073L24.6866 44.0546C24.6418 43.9924 24.5465 44.0016 24.5148 44.0711Z" fill="#EA5D48"/>
<path d="M24.0488 45.587C24.2876 45.8009 25.2268 45.6879 25.4403 45.4496" stroke="#4E4D5F" stroke-width="0.721" stroke-linecap="round" stroke-linejoin="round"/>
<path d="M22.933 39.9585C23.2234 40.5212 25.5394 43.0389 28.2662 42.848C28.2662 42.848 29.0994 45.707 26.3921 47.3999L26.8282 48.6287C26.8282 48.6287 31.004 48.3587 30.0873 42.7758C29.5103 39.2623 26.8443 36.4781 22.6977 37.5878C22.6977 37.5878 19.1725 38.183 19.0259 43.7629C18.8794 49.3431 23.4034 48.9679 23.4034 48.9679L23.423 47.6629C23.423 47.6629 22.0607 47.2381 21.4254 46.0893C20.7901 44.94 20.6592 43.1441 20.6592 43.1441C20.6592 43.1441 20.7662 42.1144 21.4241 41.2243C22.082 40.3342 22.933 39.9585 22.933 39.9585Z" fill="#5E524B"/>
<path d="M20.9285 44.6816C20.8455 44.7238 20.7554 44.749 20.6567 44.759C20.208 44.8029 19.8062 44.465 19.7601 44.0019C19.7144 43.5406 20.0423 43.1279 20.4915 43.0836C20.5637 43.0766 20.6059 43.0723 20.6593 43.1444L20.8263 44.2989C20.8389 44.4285 20.8963 44.5629 20.9285 44.6816Z" fill="#E4AD88"/>
<path d="M22.5983 43.192L22.3252 43.0598" stroke="#4E4D5F" stroke-width="0.555" stroke-linecap="round" stroke-linejoin="round"/>
<path d="M26.3887 42.8162L26.6313 42.6332" stroke="#4E4D5F" stroke-width="0.555" stroke-linecap="round" stroke-linejoin="round"/>
<path d="M64.3515 7.38618L98.5862 13.0686C100.224 13.3404 101.331 14.888 101.059 16.5256L99.3707 26.6986C99.0984 28.3358 97.5513 29.4424 95.9137 29.1706L69.8322 24.8418L65.2864 24.087L61.679 23.4878C60.0414 23.216 58.9343 21.6688 59.2061 20.0317L60.895 9.85866C61.1667 8.2215 62.7143 7.11441 64.3515 7.38618Z" fill="#FF732F"/>
<path d="M90.0287 19.5693L77.8989 17.5564C77.5001 17.4903 77.2297 17.1129 77.2962 16.7141L77.5436 15.2231C77.6097 14.8239 77.9876 14.5543 78.3868 14.6204L90.5157 16.6337C90.9149 16.6998 91.1845 17.0776 91.1184 17.4768L90.8709 18.967C90.8048 19.3662 90.4274 19.6354 90.0287 19.5693Z" fill="#FFF0E6"/>
<path d="M82.2589 22.0771L76.9974 21.2039C76.7578 21.1639 76.5956 20.9369 76.6347 20.6969L76.7717 19.8742C76.8117 19.6342 77.0383 19.4715 77.2787 19.5115L82.5398 20.3847C82.7798 20.4247 82.9425 20.6517 82.9025 20.8917L82.7655 21.7144C82.7255 21.9545 82.4994 22.1171 82.2589 22.0771Z" fill="#FFF0E6"/>
<path d="M90.8803 23.5086L85.6697 22.6437C85.4197 22.6024 85.2514 22.3663 85.2922 22.1167L85.4231 21.3279C85.4649 21.0783 85.7006 20.91 85.9502 20.9518L91.1608 21.8158C91.4104 21.8576 91.5787 22.0937 91.5374 22.3433L91.4069 23.1316C91.3656 23.3817 91.1295 23.5499 90.8803 23.5086Z" fill="#FFF0E6"/>
<path d="M95.0825 24.2052L94.3051 24.0765C94.0524 24.0343 93.8815 23.7961 93.9233 23.5434L94.0524 22.7651C94.0946 22.5129 94.3329 22.342 94.5855 22.3841L95.3634 22.5129C95.6161 22.555 95.7865 22.7938 95.7444 23.046L95.6157 23.8239C95.5739 24.0765 95.3347 24.247 95.0825 24.2052Z" fill="#FFF0E6"/>
<path d="M61.9238 16.4729C61.9238 12.7377 64.9512 9.70947 68.6868 9.70947C72.4221 9.70947 75.4499 12.7377 75.4499 16.4729C75.4499 20.2082 72.4221 23.2364 68.6868 23.2364C64.9512 23.2364 61.9238 20.2082 61.9238 16.4729Z" fill="white"/>
<path d="M73.3899 15.9849L73.159 17.1025L72.8546 18.5683C72.8094 18.8383 72.7411 19.1023 72.6519 19.3514C71.9532 21.3391 69.976 22.6049 67.9083 22.2618L67.7339 22.2327C65.6632 21.8892 64.2009 20.0524 64.1822 17.9456C64.1778 17.6808 64.1992 17.4095 64.2439 17.139L64.4296 15.6536L64.5692 14.5208C64.8592 12.2119 66.9351 10.5943 69.1385 10.96L70.2212 11.1395C72.4215 11.5048 73.8643 13.7064 73.3899 15.9849Z" fill="#FFB573"/>
<path d="M68.4625 17.6687L67.8433 18.4218C67.7794 18.4997 67.8237 18.6179 67.9237 18.6345L68.8847 18.7941C68.9843 18.8106 69.0648 18.7132 69.0291 18.6188L68.6869 17.7061C68.6517 17.6113 68.5264 17.5904 68.4625 17.6687Z" fill="#EA5D48"/>
<path d="M64.1943 17.5838C64.0891 17.606 63.9812 17.6078 63.8682 17.5891C63.3546 17.5038 63.0085 17.0055 63.0968 16.4754C63.1842 15.948 63.6729 15.5858 64.1865 15.6714C64.2691 15.6849 64.3469 15.7088 64.4174 15.7436L64.2447 17.1407C64.2204 17.289 64.2038 17.4386 64.1943 17.5838Z" fill="#F1AC6C"/>
<path d="M72.7744 18.9518C72.867 19.0066 72.9675 19.0431 73.0801 19.0618C73.5941 19.1471 74.0828 18.7879 74.1707 18.2578C74.2581 17.7304 73.9119 17.2299 73.3988 17.1446C73.3162 17.1307 73.2349 17.1285 73.1571 17.1381L72.8688 18.5161C72.844 18.6644 72.8118 18.8114 72.7744 18.9518Z" fill="#F1AC6C"/>
<path d="M66.7364 17.7987L66.4681 17.7548C65.8293 17.6487 65.3975 17.0443 65.5032 16.4055L65.6354 15.6106C65.6628 15.4445 65.8198 15.3319 65.9854 15.3597L68.2675 15.738L68.0853 16.8347C67.9792 17.4734 67.3756 17.9048 66.7364 17.7987Z" fill="#FFDBBC"/>
<path d="M66.7364 17.7987L66.4681 17.7548C65.8293 17.6487 65.3975 17.0443 65.5032 16.4055L65.6354 15.6106C65.6628 15.4445 65.8198 15.3319 65.9854 15.3597L68.2675 15.738L68.0853 16.8347C67.9792 17.4734 67.3756 17.9048 66.7364 17.7987Z" stroke="#554E4B" stroke-width="0.606" stroke-linejoin="round"/>
<path d="M70.5471 18.4313L70.2788 18.3865C69.6396 18.2809 69.2078 17.6769 69.3139 17.0381L69.4956 15.9423L71.7724 16.3202C71.9412 16.348 72.0551 16.5076 72.0268 16.6763L71.8959 17.4664C71.7894 18.1052 71.1859 18.5374 70.5471 18.4313Z" fill="#FFDBBC"/>
<path d="M70.5471 18.4313L70.2788 18.3865C69.6396 18.2809 69.2078 17.6769 69.3139 17.0381L69.4956 15.9423L71.7724 16.3202C71.9412 16.348 72.0551 16.5076 72.0268 16.6763L71.8959 17.4664C71.7894 18.1052 71.1859 18.5374 70.5471 18.4313Z" stroke="#554E4B" stroke-width="0.606" stroke-linejoin="round"/>
<path d="M68.1787 16.2673L69.4076 16.4716" stroke="#554E4B" stroke-width="0.606" stroke-miterlimit="10"/>
<path d="M72.6557 12.8929C68.8074 14.3683 67.8916 11.2284 65.9953 12.4642C65.9953 12.4642 66.0044 14.3988 64.4942 15.1123C64.4942 15.1123 64.1672 13.693 65.5631 11.7019C67.218 9.34118 73.0653 10.4244 72.6557 12.8929Z" fill="#554E4B"/>
<path d="M72.6738 12.6571C72.1959 12.4949 73.2647 16.5684 73.2647 16.5684C73.2647 16.5684 75.101 13.4802 72.6738 12.6571Z" fill="#554E4B"/>
<path d="M67.4404 19.5954C67.6422 19.9054 68.7219 20.0615 69.0319 19.8598" stroke="#554E4B" stroke-width="0.787" stroke-linecap="round" stroke-linejoin="round"/>
<path d="M70.4941 15.3497C70.6842 15.0588 71.2999 14.9645 71.5299 15.5846" stroke="#554E4B" stroke-width="0.787" stroke-linecap="round" stroke-linejoin="round"/>
<path d="M70.2823 17.0963C70.3254 16.838 70.5123 16.6545 70.7006 16.6859C70.8885 16.7172 71.0063 16.952 70.9633 17.2098C70.9206 17.4681 70.7332 17.6516 70.5449 17.6208C70.3571 17.5894 70.2393 17.3542 70.2823 17.0963Z" fill="#554E4B"/>
<path d="M67.5156 14.8549C67.43 14.5183 66.8769 14.2301 66.459 14.7423" stroke="#554E4B" stroke-width="0.787" stroke-linecap="round" stroke-linejoin="round"/>
<path d="M67.1511 16.5769C67.1941 16.3186 67.0758 16.0842 66.888 16.0529C66.6997 16.022 66.5123 16.2055 66.4697 16.4638C66.4271 16.7217 66.5445 16.9565 66.7327 16.9878C66.921 17.0191 67.108 16.8347 67.1511 16.5769Z" fill="#554E4B"/>
<path d="M10.9793 5.41787L45.3454 0.592488C46.9891 0.362025 48.5088 1.50695 48.7393 3.15063L50.1734 13.3628C50.4043 15.006 49.2589 16.5258 47.6148 16.7567L21.4333 20.4328L16.8705 21.0733L13.2488 21.5816C11.6051 21.8125 10.0858 20.6672 9.85485 19.0239L8.4212 8.81178C8.1903 7.16809 9.33566 5.64877 10.9793 5.41787Z" fill="#FF732F"/>
<path d="M39.0341 9.11403L26.8904 10.819C26.4812 10.8764 26.1025 10.5912 26.0451 10.182L25.8394 8.71745C25.782 8.30827 26.0672 7.92953 26.4768 7.87213L38.6201 6.16714C39.0297 6.10974 39.4085 6.39499 39.4659 6.80417L39.6715 8.26827C39.7289 8.67788 39.4433 9.05663 39.0341 9.11403Z" fill="#FFF0E6"/>
<path d="M32.4459 13.8216L27.1453 14.5656C26.8818 14.6025 26.6387 14.4195 26.6017 14.1564L26.4969 13.4106C26.46 13.1476 26.643 12.9041 26.9061 12.8671L32.2072 12.1227C32.4707 12.0857 32.7138 12.2692 32.7508 12.5327L32.8556 13.278C32.8925 13.5411 32.709 13.7846 32.4459 13.8216Z" fill="#FFF0E6"/>
<path d="M41.1854 12.5944L35.8334 13.3462C35.5717 13.3828 35.3295 13.2001 35.2925 12.9384L35.1873 12.1878C35.1507 11.9261 35.3334 11.6839 35.5951 11.6473L40.9471 10.8959C41.2089 10.859 41.4507 11.0416 41.4876 11.3034L41.5929 12.0539C41.6298 12.3157 41.4472 12.5579 41.1854 12.5944Z" fill="#FFF0E6"/>
<path d="M45.2485 12.0243L44.4902 12.1313C44.2306 12.1678 43.9905 11.9865 43.954 11.7265L43.8475 10.9685C43.8109 10.7085 43.9918 10.4689 44.2519 10.4324L45.0098 10.3258C45.2698 10.2893 45.5098 10.4706 45.5464 10.7302L45.6529 11.4886C45.689 11.7482 45.5081 11.9878 45.2485 12.0243Z" fill="#FFF0E6"/>
<path d="M10.9082 12.7684C10.9082 9.03315 13.9364 6.00494 17.6717 6.00494C21.4073 6.00494 24.4351 9.03315 24.4351 12.7684C24.4351 16.5036 21.4073 19.5319 17.6717 19.5319C13.9364 19.5319 10.9082 16.5036 10.9082 12.7684Z" fill="white"/>
<path d="M21.7977 10.6563L21.9107 11.7768L22.0555 13.2449C22.3925 15.6443 20.7958 17.8528 18.4942 18.1759L18.3199 18.2007C16.0157 18.5242 13.875 16.8405 13.538 14.4407L13.2731 12.9896L13.0709 11.8816C12.6626 9.62484 14.1367 7.49196 16.3166 7.18584L17.3871 7.03538C19.5639 6.72969 21.5711 8.37381 21.7977 10.6563Z" fill="#FFC18A"/>
<path d="M16.0642 12.2223C15.8846 11.9309 15.2797 11.8218 15.0371 12.4266" stroke="#4E4D5F" stroke-width="0.82" stroke-linecap="round" stroke-linejoin="round"/>
<path d="M16.182 13.6141C16.1464 13.3589 15.9664 13.1728 15.7807 13.1984C15.5941 13.2245 15.4728 13.4524 15.508 13.708C15.5437 13.9633 15.7228 14.1494 15.9094 14.1237C16.0951 14.0981 16.2177 13.8694 16.182 13.6141Z" fill="#4E4D5F"/>
<path d="M16.182 13.6141C16.1464 13.3589 15.9664 13.1728 15.7807 13.1984C15.5941 13.2245 15.4728 13.4524 15.508 13.708C15.5437 13.9633 15.7228 14.1494 15.9094 14.1237C16.0951 14.0981 16.2177 13.8694 16.182 13.6141Z" stroke="#4E4D5F" stroke-width="0.631" stroke-miterlimit="10"/>
<path d="M19.0127 11.8138C19.1058 11.4846 19.6584 11.215 20.0563 11.7308" stroke="#4E4D5F" stroke-width="0.82" stroke-linecap="round" stroke-linejoin="round"/>
<path d="M19.2795 13.185C19.2443 12.9297 19.3665 12.7014 19.5521 12.6758C19.7387 12.6501 19.9183 12.8362 19.9535 13.0915C19.9887 13.3467 19.867 13.575 19.6804 13.6011C19.4947 13.6268 19.3151 13.4402 19.2795 13.185Z" fill="#4E4D5F"/>
<path d="M19.2795 13.185C19.2443 12.9297 19.3665 12.7014 19.5521 12.6758C19.7387 12.6501 19.9183 12.8362 19.9535 13.0915C19.9887 13.3467 19.867 13.575 19.6804 13.6011C19.4947 13.6268 19.3151 13.4402 19.2795 13.185Z" stroke="#4E4D5F" stroke-width="0.631" stroke-miterlimit="10"/>
<path d="M17.9561 13.9055L18.5523 14.6721C18.6367 14.7804 18.5723 14.9399 18.4358 14.9586L17.4744 15.0921C17.3378 15.1108 17.2321 14.9752 17.2839 14.8478L17.6492 13.9481C17.7013 13.8207 17.8718 13.7968 17.9561 13.9055Z" fill="#EA5D48"/>
<path d="M18.8776 15.8818C18.6702 16.1818 17.6018 16.3079 17.3018 16.1005" stroke="#4E4D5F" stroke-width="0.82" stroke-linecap="round" stroke-linejoin="round"/>
<path d="M21.7977 10.6563L21.9107 11.7768C21.1559 11.3177 20.5114 10.3575 20.1779 9.14869C19.2639 9.44916 18.2738 9.67963 17.2328 9.82573C16.1892 9.97227 15.1764 10.0227 14.2124 9.98662C14.225 11.2403 13.8693 12.3378 13.2731 12.9896L13.0709 11.8816C12.6626 9.62484 14.1367 7.49196 16.3166 7.18584L17.3871 7.03538C19.5639 6.72969 21.5711 8.37381 21.7977 10.6563Z" fill="#AC876C"/>
<path d="M13.6205 14.8722C13.5279 14.9239 13.4274 14.9578 13.3161 14.9735C12.8078 15.0448 12.3351 14.6791 12.2616 14.1542C12.1881 13.6324 12.5417 13.148 13.0495 13.0767C13.1313 13.065 13.2117 13.0645 13.2878 13.0758L13.5379 14.4404C13.5583 14.5873 13.587 14.7326 13.6205 14.8722Z" fill="#ECA977"/>
<path d="M22.0947 13.6272C22.1978 13.6515 22.3039 13.6559 22.4152 13.6402C22.9235 13.5689 23.277 13.0871 23.2036 12.5627C23.1301 12.0409 22.657 11.6721 22.1491 11.7434C22.0678 11.7548 21.9899 11.7769 21.9199 11.8087L22.0556 13.1893C22.076 13.3363 22.0886 13.4841 22.0947 13.6272Z" fill="#ECA977"/>
</svg>
