<svg width="20" height="13" viewBox="0 0 20 13" fill="none" xmlns="http://www.w3.org/2000/svg">
<path d="M6.66667 11.8333C7.10869 11.8333 7.53262 11.6577 7.84518 11.3452C8.15774 11.0326 8.33333 10.6087 8.33333 10.1667C8.33333 9.72464 8.15774 9.30072 7.84518 8.98816C7.53262 8.6756 7.10869 8.5 6.66667 8.5C6.22464 8.5 5.80072 8.6756 5.48816 8.98816C5.17559 9.30072 5 9.72464 5 10.1667C5 10.6087 5.17559 11.0326 5.48816 11.3452C5.80072 11.6577 6.22464 11.8333 6.66667 11.8333V11.8333ZM15 11.8333C15.442 11.8333 15.866 11.6577 16.1785 11.3452C16.4911 11.0326 16.6667 10.6087 16.6667 10.1667C16.6667 9.72464 16.4911 9.30072 16.1785 8.98816C15.866 8.6756 15.442 8.5 15 8.5C14.558 8.5 14.1341 8.6756 13.8215 8.98816C13.5089 9.30072 13.3333 9.72464 13.3333 10.1667C13.3333 10.6087 13.5089 11.0326 13.8215 11.3452C14.1341 11.6577 14.558 11.8333 15 11.8333V11.8333Z" stroke="#5B5C5D" stroke-width="1.5" stroke-miterlimit="1.5" stroke-linecap="round" stroke-linejoin="round"/>
<path d="M8.37467 10.1667H12.4997V1.5C12.4997 1.36739 12.447 1.24021 12.3532 1.14645C12.2595 1.05268 12.1323 1 11.9997 1H0.833008M4.70801 10.1667H2.99967C2.93401 10.1667 2.869 10.1537 2.80833 10.1286C2.74767 10.1035 2.69255 10.0667 2.64612 10.0202C2.59969 9.97379 2.56286 9.91867 2.53773 9.85801C2.51261 9.79735 2.49967 9.73233 2.49967 9.66667V5.58333" stroke="#5B5C5D" stroke-width="1.5" stroke-linecap="round"/>
<path d="M1.66602 3.5H4.99935" stroke="#5B5C5D" stroke-width="1.5" stroke-linecap="round" stroke-linejoin="round"/>
<path d="M12.5 3.5H17.175C17.2716 3.50002 17.3662 3.52806 17.4473 3.58071C17.5283 3.63336 17.5924 3.70837 17.6317 3.79667L19.1233 7.15333C19.1518 7.21707 19.1665 7.28605 19.1667 7.35583V9.66667C19.1667 9.73233 19.1537 9.79735 19.1286 9.85801C19.1035 9.91867 19.0666 9.97379 19.0202 10.0202C18.9738 10.0666 18.9187 10.1035 18.858 10.1286C18.7973 10.1537 18.7323 10.1667 18.6667 10.1667H17.0833M12.5 10.1667H13.3333" stroke="#5B5C5D" stroke-width="1.5" stroke-linecap="round"/>
</svg>
